<svg width="31" height="30" viewBox="0 0 31 30" fill="none" xmlns="http://www.w3.org/2000/svg">
<g clip-path="url(#clip0)">
<path d="M30.8008 4.39453V25.6055C30.8008 28.0312 28.8319 30 26.4062 30H19.3164L17.5586 28.2422H15.8008L14.043 30H5.19531C2.76962 30 0.800781 28.0312 0.800781 25.6055V4.39453C0.800781 1.96884 2.76962 0 5.19531 0H26.4062C28.8319 0 30.8008 1.96884 30.8008 4.39453Z" fill="#4267B2"/>
<path d="M19.3164 10.5469V14.0625H24.5898L23.7109 19.3359H19.3164V30H14.043V19.3359H10.5273V14.0625H14.043V10.5469C14.043 8.59566 15.1153 6.89049 16.6797 5.97656C17.4531 5.53711 18.3672 5.27344 19.3164 5.27344H24.5898V10.5469H19.3164Z" fill="#ECECF1"/>
</g>
<defs>
<clipPath id="clip0">
<rect width="30" height="30" fill="white" transform="translate(0.800781)"/>
</clipPath>
</defs>
</svg>
