<svg width="31" height="30" viewBox="0 0 31 30" fill="none" xmlns="http://www.w3.org/2000/svg">
<g clip-path="url(#clip0)">
<path d="M30.8008 4.39453V25.6055C30.8008 28.0312 28.8319 30 26.4062 30H19.3164H17.2363H15.7422H14.043H5.19531C2.76962 30 0.800781 28.0312 0.800781 25.6055V4.39453C0.800781 1.96884 2.76962 0 5.19531 0H26.4062C28.8319 0 30.8008 1.96884 30.8008 4.39453Z" fill="#007AB9"/>
<path d="M24.2969 16.434V22.7388H20.6415V16.8566C20.6415 15.3796 20.1138 14.371 18.7903 14.371C17.7803 14.371 17.1803 15.05 16.9153 15.7075C16.8191 15.9425 16.7943 16.2688 16.7943 16.5984V22.7385H13.1387C13.1387 22.7385 13.1878 12.776 13.1387 11.7447H16.7946V13.3026C16.7872 13.3149 16.7768 13.3269 16.7703 13.3386H16.7946V13.3026C17.2803 12.5552 18.1467 11.4866 20.089 11.4866C22.4939 11.4866 24.2969 13.0578 24.2969 16.434ZM9.31461 6.44531C8.06418 6.44531 7.24609 7.26612 7.24609 8.34454C7.24609 9.40006 8.04046 10.2446 9.26663 10.2446H9.29034C10.5653 10.2446 11.358 9.40006 11.358 8.34454C11.3338 7.26612 10.5653 6.44531 9.31461 6.44531ZM7.46336 22.7388H11.1176V11.7447H7.46336V22.7388Z" fill="#F1F2F2"/>
</g>
<defs>
<clipPath id="clip0">
<rect width="30" height="30" fill="white" transform="translate(0.800781)"/>
</clipPath>
</defs>
</svg>
