<svg width="31" height="30" viewBox="0 0 31 30" fill="none" xmlns="http://www.w3.org/2000/svg">
<g clip-path="url(#clip0)">
<path d="M30.5488 21.9749C29.4811 20.0468 24.8051 18.8188 20.6761 18.5859C20.303 18.1864 19.9242 17.7662 19.5359 17.3244C15.9874 13.2672 14.5505 7.37122 14.0138 4.24779C13.95 3.58594 13.8799 3.03573 13.8208 2.62586C13.773 2.29972 13.6725 1.61954 12.9652 1.61954C12.7388 1.61954 12.5203 1.71682 12.3648 1.88986C12.1128 2.17772 12.1503 2.48711 12.1949 2.84435C12.2452 3.25422 12.3209 3.80283 12.4286 4.4288C12.7308 7.60008 12.8735 13.638 10.4327 18.4344C10.1783 18.9344 9.92472 19.4144 9.67274 19.8722C5.1052 21.2006 1.41959 23.5697 0.879751 25.5345C0.684387 26.2458 0.854234 26.9276 1.35899 27.4555C1.94668 28.0695 2.64042 28.3805 3.42108 28.3805C5.58205 28.3805 8.04524 25.9739 10.7421 21.2301C11.943 20.9144 13.1351 20.6943 14.2873 20.5779C14.7363 20.5324 15.4627 20.4375 15.9093 20.3689C17.1397 20.1792 18.5319 20.1026 19.9625 20.1496C23.2733 23.5913 25.9805 25.336 28.0091 25.336C29.0983 25.3352 30.0002 24.8041 30.5472 23.8408C30.8837 23.2444 30.8853 22.5809 30.5488 21.9749ZM3.42029 26.7857C3.08219 26.7857 2.79352 26.6485 2.51045 26.3527C2.39482 26.2323 2.36931 26.1286 2.41715 25.958C2.69544 24.946 5.03344 23.2117 8.45032 21.9526C6.5198 24.9987 4.67221 26.7857 3.42029 26.7857ZM15.6645 18.7949C15.2402 18.8602 14.5513 18.9496 14.1255 18.9942C13.3512 19.0708 12.5554 19.1928 11.7524 19.357C11.7859 19.2916 11.8194 19.2255 11.8529 19.1593C13.0498 16.8077 13.7913 13.9881 14.0657 10.7562C15.1637 13.8294 16.5958 16.3859 18.335 18.3746C18.386 18.4336 18.4394 18.4934 18.4905 18.554C17.4865 18.578 16.5392 18.6601 15.6645 18.7949ZM29.1566 23.0578C28.8918 23.5267 28.5154 23.7444 27.9756 23.7444H27.9748C26.7069 23.7444 24.7573 22.5443 22.4233 20.3434C26.0355 20.7971 28.6805 21.8904 29.155 22.7476C29.2235 22.872 29.2235 22.9382 29.1566 23.0578Z" fill="#AD8400"/>
</g>
<defs>
<clipPath id="clip0">
<rect width="30" height="30" fill="white" transform="translate(0.800781)"/>
</clipPath>
</defs>
</svg>
