<svg width="31" height="30" viewBox="0 0 31 30" fill="none" xmlns="http://www.w3.org/2000/svg">
<g clip-path="url(#clip0)">
<path d="M30.8008 4.39453V25.6055C30.8008 28.0312 28.8319 30 26.4062 30H19.3164H17.2363H15.7422H14.043H5.19531C2.76962 30 0.800781 28.0312 0.800781 25.6055V4.39453C0.800781 1.96884 2.76962 0 5.19531 0H26.4062C28.8319 0 30.8008 1.96884 30.8008 4.39453Z" fill="#1DA1F2"/>
<path d="M11.0649 25.3123C20.6395 25.3123 25.8752 17.378 25.8752 10.498C25.8752 10.2726 25.8706 10.0482 25.8605 9.82497C26.8768 9.08999 27.7602 8.17282 28.457 7.12883C27.5244 7.54356 26.5206 7.82257 25.4678 7.94861C26.5425 7.30386 27.3676 6.28427 27.7567 5.06873C26.7509 5.66508 25.6372 6.0984 24.4514 6.33248C23.5015 5.32044 22.1491 4.6875 20.6517 4.6875C17.7772 4.6875 15.4461 7.01925 15.4461 9.89351C15.4461 10.3022 15.4918 10.6995 15.581 11.0808C11.2548 10.863 7.41853 8.79124 4.85145 5.64068C4.40451 6.41012 4.14668 7.30406 4.14668 8.25782C4.14668 10.0641 5.06573 11.6589 6.46308 12.5918C5.60907 12.5654 4.80693 12.331 4.10564 11.9406C4.10487 11.9625 4.10487 11.9838 4.10487 12.007C4.10487 14.5287 5.89903 16.6341 8.28106 17.1112C7.8436 17.2303 7.3833 17.2944 6.90848 17.2944C6.57361 17.2944 6.24726 17.2615 5.93 17.2005C6.59277 19.2693 8.5145 20.7747 10.7928 20.8169C9.01119 22.2136 6.76679 23.0456 4.32766 23.0456C3.90801 23.0456 3.49339 23.0216 3.08594 22.9736C5.38957 24.4505 8.12524 25.3125 11.0651 25.3125" fill="white"/>
</g>
<defs>
<clipPath id="clip0">
<rect width="30" height="30" fill="white" transform="translate(0.800781)"/>
</clipPath>
</defs>
</svg>
