<svg width="31" height="30" viewBox="0 0 31 30" fill="none" xmlns="http://www.w3.org/2000/svg">
<g clip-path="url(#clip0)">
<path d="M30.8008 4.39453V25.6055C30.8008 28.0312 28.8319 30 26.4062 30H19.3164H17.2363H15.7422H14.043H5.19531C2.76962 30 0.800781 28.0312 0.800781 25.6055V4.39453C0.800781 1.96884 2.76962 0 5.19531 0H26.4062C28.8319 0 30.8008 1.96884 30.8008 4.39453Z" fill="#1BD741"/>
<path d="M5.3125 25.4935L6.78445 20.2656C5.8379 18.6575 5.33953 16.8279 5.33953 14.9484C5.33953 9.16129 10.0477 4.45312 15.8348 4.45312C21.622 4.45312 26.3301 9.16129 26.3301 14.9484C26.3301 20.7355 21.622 25.4437 15.8348 25.4437C14.0316 25.4437 12.2659 24.9821 10.7039 24.1057L5.3125 25.4935ZM10.9795 22.1963L11.3007 22.3925C12.6626 23.2239 14.2305 23.6634 15.8348 23.6634C20.6403 23.6634 24.5497 19.7538 24.5497 14.9484C24.5497 10.143 20.6403 6.23347 15.8348 6.23347C11.0294 6.23347 7.11988 10.143 7.11988 14.9484C7.11988 16.6228 7.59577 18.2488 8.49596 19.6506L8.71231 19.9875L7.86466 22.9981L10.9795 22.1963Z" fill="white"/>
<path d="M12.8854 10.0636L12.2044 10.0265C11.9905 10.0148 11.7806 10.0863 11.619 10.2267C11.2888 10.5134 10.7609 11.0677 10.5988 11.79C10.357 12.867 10.7306 14.1858 11.6978 15.5045C12.6649 16.8233 14.4672 18.9334 17.6542 19.8346C18.6812 20.1249 19.4891 19.9292 20.1124 19.5304C20.6061 19.2147 20.9464 18.7078 21.0691 18.1348L21.1778 17.6269C21.2123 17.4655 21.1304 17.3017 20.9804 17.2326L18.6788 16.1717C18.5294 16.1029 18.3522 16.1464 18.2518 16.2766L17.3482 17.448C17.2799 17.5364 17.1631 17.5715 17.0576 17.5345C16.4388 17.317 14.3661 16.4489 13.2288 14.2582C13.1795 14.1631 13.1917 14.0478 13.2617 13.9668L14.1252 12.9678C14.2135 12.8658 14.2357 12.7224 14.1827 12.5984L13.1906 10.2773C13.1378 10.1537 13.0194 10.0709 12.8854 10.0636Z" fill="white"/>
</g>
<defs>
<clipPath id="clip0">
<rect width="30" height="30" fill="white" transform="translate(0.800781)"/>
</clipPath>
</defs>
</svg>
