<svg id="Capa_2" data-name="Capa 2" xmlns="http://www.w3.org/2000/svg" viewBox="0 0 740 200"><defs><style>.cls-1{fill:#0033a1;}.cls-2{fill:#ad8400;}</style></defs><path class="cls-1" d="M405.8,116.61a1.68,1.68,0,0,1-1.55-1l-4.19-10H380.75l-4.25,10a1.68,1.68,0,0,1-1.55,1h-8.2a1.69,1.69,0,0,1-1.54-2.37l20-45.88a1.7,1.7,0,0,1,1.55-1h7.42a1.69,1.69,0,0,1,1.54,1l20.05,45.88a1.7,1.7,0,0,1-1.55,2.37ZM395.69,95.14l-5.31-12.27-5.26,12.27Z"/><path class="cls-1" d="M460,116.61a1.7,1.7,0,0,1-1.33-.66l-22.05-28.5v27.47a1.69,1.69,0,0,1-1.69,1.69H427a1.69,1.69,0,0,1-1.68-1.69V69.36A1.69,1.69,0,0,1,427,67.67h7.41a1.7,1.7,0,0,1,1.33.66L457,95.92V69.36a1.69,1.69,0,0,1,1.68-1.69h7.94a1.69,1.69,0,0,1,1.69,1.69v45.56a1.69,1.69,0,0,1-1.69,1.69Z"/><path class="cls-1" d="M483.25,116.61a1.69,1.69,0,0,1-1.69-1.69V69.36a1.69,1.69,0,0,1,1.69-1.69h17a28.77,28.77,0,0,1,10.4,1.84,25,25,0,0,1,8.23,5.14,22.83,22.83,0,0,1,5.37,7.79,25.58,25.58,0,0,1,0,19.3,22.8,22.8,0,0,1-5.37,7.83,25.34,25.34,0,0,1-8.22,5.16,28.17,28.17,0,0,1-10.41,1.88ZM500.19,106a16.3,16.3,0,0,0,5.92-1,12.61,12.61,0,0,0,4.41-2.82,13,13,0,0,0,2.82-4.34,16,16,0,0,0,0-11.23,13.28,13.28,0,0,0-2.83-4.38,12.78,12.78,0,0,0-4.42-2.88,15.82,15.82,0,0,0-5.9-1.06h-7.31V106Z"/><path class="cls-1" d="M539,116.61a1.69,1.69,0,0,1-1.68-1.69V69.36A1.69,1.69,0,0,1,539,67.67h33.72a1.69,1.69,0,0,1,1.68,1.69v7.23a1.68,1.68,0,0,1-1.68,1.68H548.65v8.34h21.16a1.69,1.69,0,0,1,1.69,1.69v7.22a1.69,1.69,0,0,1-1.69,1.69H548.65V106h24.41a1.69,1.69,0,0,1,1.69,1.68v7.23a1.69,1.69,0,0,1-1.69,1.69Z"/><path class="cls-1" d="M622.66,116.61a1.69,1.69,0,0,1-1.56-1l-4.19-10h-19.3l-4.25,10a1.7,1.7,0,0,1-1.55,1h-8.2a1.71,1.71,0,0,1-1.42-.77,1.68,1.68,0,0,1-.13-1.6l20.05-45.88a1.68,1.68,0,0,1,1.54-1h7.42a1.7,1.7,0,0,1,1.55,1l20,45.88a1.69,1.69,0,0,1-1.54,2.37ZM612.54,95.14l-5.3-12.27L602,95.14Z"/><path class="cls-1" d="M676.82,116.61a1.72,1.72,0,0,1-1.34-.66l-22.05-28.5v27.47a1.69,1.69,0,0,1-1.68,1.69h-7.94a1.69,1.69,0,0,1-1.69-1.69V69.36a1.69,1.69,0,0,1,1.69-1.69h7.4a1.72,1.72,0,0,1,1.34.66l21.33,27.59V69.36a1.69,1.69,0,0,1,1.69-1.69h7.94a1.69,1.69,0,0,1,1.68,1.69v45.56a1.69,1.69,0,0,1-1.68,1.69Z"/><path class="cls-1" d="M365.06,131h7.81c2.84,0,4.78.16,6.36,1.87a6.34,6.34,0,0,1,1.71,4.52,6.15,6.15,0,0,1-1.84,4.55c-1.23,1.23-2.84,2-7,2h-3.78V154.3h-3.23Zm3.23,10.23h3.84c2.13,0,5.39-.16,5.39-4,0-3.64-3-3.64-4.71-3.64h-4.52Z"/><path class="cls-1" d="M386.32,131h8.33c1.19,0,3.65,0,5.36,1.1a5.47,5.47,0,0,1,2.58,4.74,5.66,5.66,0,0,1-4.39,5.65c2.23.58,3.23,1.58,3.55,4.49a31,31,0,0,0,1.45,7.32h-3.45a40.34,40.34,0,0,1-1.07-6.16c-.38-3.39-1.19-4.36-5.1-4.36h-4.06V154.3h-3.2Zm3.13,10h5.1a7.49,7.49,0,0,0,3.07-.52,3.32,3.32,0,0,0,1.58-3c0-3.78-3.36-3.78-4.65-3.78h-5.1Z"/><path class="cls-1" d="M409.13,131h14.62v2.75H412.36V141H423.2v2.71H412.36v7.74H424v2.84H409.13Z"/><path class="cls-1" d="M444.88,137.29c-.13-.8-.55-4-5-4-5.62,0-6.62,5.75-6.62,9.62,0,4.39,1.26,9.13,6.59,9.13a5.06,5.06,0,0,0,3.77-1.39,4.58,4.58,0,0,0,1.13-2.45h3.55c-.48,4.58-4.71,6.48-8.71,6.48-8.2,0-9.78-7.22-9.78-11.74,0-4.91,1.9-12.23,10.2-12.23,3.29,0,7.93,1.32,8.35,6.61Z"/><path class="cls-1" d="M454,131h3.22v23.3H454Z"/><path class="cls-1" d="M466.62,133.52a10.41,10.41,0,0,1,7.78-3.13c6.45,0,10.52,4.13,10.52,12,0,6.19-2.49,12.42-10.78,12.42-7.94,0-10.52-5.65-10.52-12C463.62,140.17,464.07,136.26,466.62,133.52ZM469.08,150a7.32,7.32,0,0,0,10.32,0c1.9-2.33,2.1-6,2.1-7.59,0-5.29-1.74-9.29-7.07-9.29-5.9,0-7.42,4.74-7.42,9.52C467,145.17,467.46,148,469.08,150Z"/><path class="cls-1" d="M494.66,131v14.43c0,2.48.55,3.51,1,4.19a6.38,6.38,0,0,0,5.33,2.29c6.29,0,6.29-4.93,6.29-6.61V131h3.13v14.36a9.45,9.45,0,0,1-1.91,6.2c-2.29,2.87-5.84,3.22-7.51,3.22-2.2,0-6.07-.61-8.23-3.71-.71-1-1.36-2.38-1.36-5.87V131Z"/><path class="cls-1" d="M520.31,147.49c.06,1.62.25,4.62,5.61,4.62,4.84,0,5.45-3,5.45-4.17,0-2.61-2.09-3.13-5.35-3.93-3.55-.87-5.13-1.26-6.33-2.07a5.26,5.26,0,0,1-2.42-4.58c0-4.74,4.49-6.81,8.88-6.81,1.54,0,4.68.26,6.55,2.29a6,6,0,0,1,1.42,4h-3.36c-.16-2.9-2.61-3.55-4.9-3.55-3.23,0-5.17,1.45-5.17,3.78,0,2.06,1.36,2.77,4.2,3.45,5.55,1.42,6.16,1.55,7.52,2.45a5.34,5.34,0,0,1,2.32,4.65c0,4.13-3.23,7.26-9.2,7.26-1.77,0-5.39-.29-7.23-2.65a7.29,7.29,0,0,1-1.35-4.71Z"/><path class="cls-1" d="M551.76,131h5.71l6.58,19.2L570.8,131h5.32v23.3H573v-21l-7.65,21h-3.06l-7.36-20.85V154.3h-3.13Z"/><path class="cls-1" d="M583.37,131H598v2.75H586.6V141h10.84v2.71H586.6v7.74h11.65v2.84H583.37Z"/><path class="cls-1" d="M610.73,154.3V133.75h-7.81V131h18.82v2.75h-7.81V154.3Z"/><path class="cls-1" d="M631.25,131h3.46l9.42,23.3h-3.52l-2.52-6.07H627.28l-2.51,6.07h-3.33Zm-2.93,14.62h8.8l-4.29-11.42Z"/><path class="cls-1" d="M649.06,131h3.19v20.43h10.84v2.87h-14Z"/><path class="cls-1" d="M670.77,147.49c.07,1.62.26,4.62,5.62,4.62,4.84,0,5.45-3,5.45-4.17,0-2.61-2.1-3.13-5.36-3.93-3.55-.87-5.13-1.26-6.32-2.07a5.24,5.24,0,0,1-2.42-4.58c0-4.74,4.48-6.81,8.87-6.81,1.55,0,4.68.26,6.55,2.29a6,6,0,0,1,1.42,4h-3.35c-.17-2.9-2.62-3.55-4.91-3.55-3.23,0-5.16,1.45-5.16,3.78,0,2.06,1.35,2.77,4.19,3.45,5.55,1.42,6.17,1.55,7.52,2.45a5.34,5.34,0,0,1,2.32,4.65c0,4.13-3.22,7.26-9.19,7.26-1.78,0-5.39-.29-7.23-2.65a7.31,7.31,0,0,1-1.36-4.71Z"/><path class="cls-1" d="M166.27,45.15l-89,89h0c-10.85,9.56-14.49,10.38-21.77,10.7l-3.25,9.39H84.15a.11.11,0,0,1,0-.06A10.68,10.68,0,0,0,91,151.08l83.81-83.81,74.29,74.29c-4.71,2.84-8,3.12-13.06,3.32l-3.24,9.35H266l.25,0,.24,0h26.32c-29.9-29.89-80.37-80-109.49-109.08Z"/><path class="cls-2" d="M314.6,125.93c-15.42-15.4-41.22-41.16-58.66-58.79H240.53q-4,3.8-7.93,7.67-4.54,4.43-9.11,9h.12l-50.37,50.37h0c-10.85,9.56-14.49,10.38-21.78,10.71l-3.24,9.38h31.93a.08.08,0,0,1,0-.05,10.75,10.75,0,0,0,6.85-3.1l60.71-60.71.29-.28.11-.11c7.88,8,16.72,16.81,25.27,25.36,14.38,14.31,28.08,28,39,38.88l2.73.05,28.45-.05C337.82,148.64,317.65,129,314.6,125.93Z"/></svg>