<?xml version="1.0" encoding="utf-8"?>
<!-- Generator: Adobe Illustrator 16.0.0, SVG Export Plug-In . SVG Version: 6.00 Build 0)  -->
<!DOCTYPE svg PUBLIC "-//W3C//DTD SVG 1.1//EN" "http://www.w3.org/Graphics/SVG/1.1/DTD/svg11.dtd">
<svg version="1.1" id="Capa_1" xmlns="http://www.w3.org/2000/svg" xmlns:xlink="http://www.w3.org/1999/xlink" x="0px" y="0px"
	 width="35px" height="35px" viewBox="0 0 35 35" enable-background="new 0 0 35 35" xml:space="preserve">
<path id="XMLID_86_" d="M25.098,9.547C24.268,8.602,23.082,8,21.771,7.98c-2.516-0.044-4.555,2.085-4.555,4.751
	c0,0.378,0.04,0.744,0.116,1.1c-3.786-0.244-7.145-2.219-9.393-5.191c-0.395,0.709-0.616,1.545-0.616,2.436
	c0,1.688,0.803,3.187,2.025,4.073c-0.746-0.03-1.449-0.26-2.062-0.631v0.063c0,2.357,1.567,4.337,3.653,4.795
	c-0.382,0.109-0.786,0.165-1.2,0.165c-0.292-0.003-0.58-0.033-0.859-0.093c0.58,1.933,2.265,3.341,4.261,3.392
	c-1.562,1.297-3.527,2.064-5.663,2.059c-0.368,0-0.729-0.023-1.087-0.066c2.019,1.383,4.416,2.189,6.988,2.189
	c8.381,0.002,12.967-7.294,12.967-13.621c0-0.212-0.004-0.417-0.014-0.624c0.889-0.662,1.66-1.49,2.273-2.442
	c-0.818,0.368-1.697,0.612-2.619,0.716c0.941-0.58,1.666-1.508,2.006-2.617C27.113,8.963,26.139,9.348,25.098,9.547z"/>
</svg>
