<svg width="24" height="24" viewBox="0 0 24 24" fill="none" xmlns="http://www.w3.org/2000/svg">
<path d="M12.0008 0C5.37356 0 0.000976562 5.37267 0.000976562 11.9999C0.000976562 18.6269 5.37348 24 12.0006 24C18.6278 24 24.0008 18.6269 24.0008 11.9999C24.0008 5.37267 18.6281 0 12.0008 0ZM17.4155 10.5317L12.9319 15.0153C12.8889 15.0823 12.8402 15.1462 12.7815 15.2045C12.5578 15.4284 12.2628 15.5361 11.9698 15.5309C11.6765 15.5358 11.3822 15.4284 11.1585 15.2047C11.0998 15.1462 11.0505 15.0823 11.0073 15.0153L6.50411 10.5116C6.28523 10.2931 6.17548 10.0064 6.17588 9.71982C6.17548 9.43311 6.28523 9.14655 6.50371 8.92767C6.94131 8.49008 7.6505 8.49032 8.08834 8.92767L11.9698 12.8088L15.8307 8.94719C16.2683 8.50959 16.9778 8.51 17.4155 8.94719C17.8532 9.38471 17.8526 10.0939 17.4155 10.5317Z" fill="white"/>
</svg>
