<svg id="Capa_1" data-name="Capa 1" xmlns="http://www.w3.org/2000/svg" viewBox="0 0 34 31"><defs><style>.cls-1{fill:#ad8400;}</style></defs><path class="cls-1" d="M31.53,13.06a14.6,14.6,0,0,0-29,0C1,14,0,16.24,0,19s1,5.14,2.62,6v0c.41.12.82.23,1.24.33a5.94,5.94,0,0,0,.72,1.12c1.6,2,4.49,3.11,8.6,3.38a1.91,1.91,0,0,0,.69.8,2,2,0,0,0,1,.29h3.76A1.74,1.74,0,0,0,20,30.52a1.87,1.87,0,0,0,.42-.59,1.76,1.76,0,0,0,0-1.42,1.87,1.87,0,0,0-.42-.59,1.74,1.74,0,0,0-1.33-.48H14.89a2,2,0,0,0-1,.25,1.85,1.85,0,0,0-.69.7c-3.61-.25-6.17-1.2-7.48-2.81l-.07-.09h.66a4,4,0,0,0,.49-.15L7,25.27l.14-.09a2.85,2.85,0,0,0,.92-1,2.73,2.73,0,0,0,.32-1.34V15.23a2.68,2.68,0,0,0-2.5-2.77,11.33,11.33,0,0,1,22.25,0,2.67,2.67,0,0,0-2.51,2.77V22.8a2.66,2.66,0,0,0,2.55,2.76h.91a2.34,2.34,0,0,0,.74-.12h.11C32.29,25.41,34,22.71,34,19,34,16.25,33.05,14,31.53,13.06Z" transform="translate(0 0)"/></svg>