<svg width="34" height="31" viewBox="0 0 34 31" fill="none" xmlns="http://www.w3.org/2000/svg">
<path d="M31.5259 13.0617C31.1472 9.47728 29.4555 6.15973 26.7765 3.74811C24.0976 1.33649 20.6209 0.00139427 17.0163 1.09143e-06C13.4116 -0.00139208 9.93392 1.33101 7.2531 3.74056C4.57229 6.15011 2.87799 9.46636 2.49656 13.0505C0.961223 13.9855 0 16.2406 0 19.0175C0 21.8598 1.01172 24.156 2.61812 25.0499L2.62934 25.0798C3.04076 25.1976 3.45405 25.306 3.8692 25.4108C4.06584 25.8104 4.30671 26.1868 4.58732 26.5327C6.19185 28.5055 9.07552 29.6368 13.1897 29.9098C13.339 30.2372 13.5802 30.5142 13.8839 30.7071C14.1877 30.8999 14.541 31.0004 14.9008 30.9963H18.6597C18.9027 31.012 19.1463 30.9778 19.3756 30.8957C19.6048 30.8135 19.8148 30.6852 19.9925 30.5187C20.1701 30.3522 20.3118 30.1511 20.4086 29.9276C20.5054 29.7042 20.5554 29.4633 20.5554 29.2198C20.5554 28.9763 20.5054 28.7354 20.4086 28.512C20.3118 28.2886 20.1701 28.0874 19.9925 27.9209C19.8148 27.7544 19.6048 27.6261 19.3756 27.544C19.1463 27.4618 18.9027 27.4276 18.6597 27.4434H14.8859C14.5514 27.4399 14.2221 27.5262 13.9323 27.6933C13.6425 27.8604 13.4029 28.1021 13.2383 28.3933C9.63467 28.1427 7.06705 27.1853 5.75799 25.5791L5.69441 25.4949H6.25543L6.35268 25.4856C6.51797 25.4476 6.68093 25.4002 6.84077 25.3434C6.89313 25.3191 6.94549 25.2948 6.99598 25.2668C7.04648 25.2387 7.09323 25.2107 7.13998 25.1808C7.52687 24.9187 7.84267 24.5647 8.05906 24.1506C8.27546 23.7364 8.38568 23.275 8.37985 22.8078V15.2252C8.37985 13.7162 7.2578 12.4858 5.87954 12.4596C6.37689 9.87332 7.75976 7.54108 9.79043 5.86382C11.8211 4.18656 14.3727 3.26907 17.0065 3.26907C19.6404 3.26907 22.192 4.18656 24.2227 5.86382C26.2533 7.54108 27.6362 9.87332 28.1335 12.4596C26.7441 12.4764 25.6183 13.7106 25.6183 15.2252V22.7966C25.6183 24.3225 26.7609 25.5641 28.1653 25.5641H29.0761C29.3303 25.5642 29.5829 25.5232 29.8241 25.4426H29.9326C32.2889 25.4145 34 22.7106 34 19.0118C34.0019 16.2518 33.0463 13.9967 31.5259 13.0617Z" fill="white"/>
</svg>
