<svg width="32" height="32" viewBox="0 0 32 32" fill="none" xmlns="http://www.w3.org/2000/svg">
<path d="M31.6344 14.1227L28.8969 11.3664V6.41017C28.8969 5.72267 28.3344 5.16017 27.6469 5.16017C26.9594 5.16017 26.3969 5.72267 26.3969 6.41017V8.84767L18.6094 1.01017C18.5906 0.991419 18.5781 0.978919 18.5594 0.960169C17.1344 -0.314831 14.9906 -0.321081 13.5594 0.947669C13.5406 0.966419 13.5219 0.978919 13.5094 0.997669L0.365625 14.1227C-0.121875 14.6102 -0.121875 15.4039 0.365625 15.8914C0.853125 16.3789 1.64688 16.3789 2.13438 15.8914L3.12188 14.8977V25.6914C3.12188 28.4477 5.36562 30.6914 8.12187 30.6914H12.6219C13.3094 30.6914 13.8719 30.1289 13.8719 29.4414V19.2539H18.2469V29.4414C18.2469 30.1289 18.8094 30.6914 19.4969 30.6914H23.8719C26.6094 30.6914 28.8469 28.4727 28.8719 25.7414C28.8719 25.7352 28.8719 25.7227 28.8719 25.7164V14.8914L29.8594 15.8852C30.1031 16.1289 30.4219 16.2539 30.7469 16.2539C31.0656 16.2539 31.3844 16.1352 31.6281 15.8914C32.1156 15.4039 32.1219 14.6102 31.6344 14.1227Z" fill="white"/>
</svg>
