<svg id="Capa_1" data-name="Capa 1" xmlns="http://www.w3.org/2000/svg" viewBox="0 0 230.81 40"><defs><style>.cls-1{fill:#fff;}</style></defs><path class="cls-1" d="M131.76,28.56a.62.62,0,0,1-.57-.38l-1.53-3.64h-7l-1.55,3.64a.6.6,0,0,1-.56.38h-3a.64.64,0,0,1-.52-.28.62.62,0,0,1,0-.59L124.26,11a.63.63,0,0,1,.57-.37h2.7a.63.63,0,0,1,.57.37l7.31,16.73a.65.65,0,0,1,0,.59.64.64,0,0,1-.52.28Zm-3.69-7.83-1.93-4.48-1.92,4.48Z" transform="translate(-2.83 -2.5)"/><path class="cls-1" d="M151.51,28.56a.63.63,0,0,1-.49-.24l-8-10.4v10a.61.61,0,0,1-.61.62h-2.9a.61.61,0,0,1-.61-.62V11.33a.61.61,0,0,1,.61-.62h2.7a.63.63,0,0,1,.49.24L150.44,21V11.33a.61.61,0,0,1,.61-.62H154a.61.61,0,0,1,.61.62V27.94a.61.61,0,0,1-.61.62Z" transform="translate(-2.83 -2.5)"/><path class="cls-1" d="M160,28.56a.62.62,0,0,1-.62-.62V11.33a.62.62,0,0,1,.62-.62h6.19a10.61,10.61,0,0,1,3.8.67,9.14,9.14,0,0,1,3,1.88,8.31,8.31,0,0,1,2,2.84,9.3,9.3,0,0,1,0,7A8.39,8.39,0,0,1,173,26a9.31,9.31,0,0,1-3,1.88,10.19,10.19,0,0,1-3.8.69Zm6.18-3.87a6.06,6.06,0,0,0,2.15-.37,4.74,4.74,0,0,0,1.61-1,4.55,4.55,0,0,0,1-1.59,5.37,5.37,0,0,0,.37-2,5.46,5.46,0,0,0-.37-2.05,4.78,4.78,0,0,0-1-1.6A4.73,4.73,0,0,0,168.33,15a5.88,5.88,0,0,0-2.15-.38h-2.67V24.69Z" transform="translate(-2.83 -2.5)"/><path class="cls-1" d="M180.34,28.56a.62.62,0,0,1-.62-.62V11.33a.62.62,0,0,1,.62-.62h12.29a.61.61,0,0,1,.61.62V14a.61.61,0,0,1-.61.62h-8.78v3h7.71a.61.61,0,0,1,.62.61v2.64a.61.61,0,0,1-.62.61h-7.71v3.21h8.9a.61.61,0,0,1,.61.62v2.63a.61.61,0,0,1-.61.62Z" transform="translate(-2.83 -2.5)"/><path class="cls-1" d="M210.83,28.56a.6.6,0,0,1-.56-.38l-1.53-3.64h-7l-1.55,3.64a.62.62,0,0,1-.57.38h-3a.62.62,0,0,1-.56-.87L203.34,11a.62.62,0,0,1,.56-.37h2.71a.62.62,0,0,1,.56.37l7.31,16.73a.62.62,0,0,1,0,.59.61.61,0,0,1-.51.28Zm-3.69-7.83-1.93-4.48-1.92,4.48Z" transform="translate(-2.83 -2.5)"/><path class="cls-1" d="M230.58,28.56a.6.6,0,0,1-.48-.24l-8-10.4v10a.62.62,0,0,1-.62.62h-2.89a.62.62,0,0,1-.62-.62V11.33a.62.62,0,0,1,.62-.62h2.69a.6.6,0,0,1,.49.24L229.51,21V11.33a.62.62,0,0,1,.62-.62H233a.62.62,0,0,1,.62.62V27.94a.62.62,0,0,1-.62.62Z" transform="translate(-2.83 -2.5)"/><path class="cls-1" d="M116.9,33.8h2.85a2.78,2.78,0,0,1,2.32.69,2.3,2.3,0,0,1,.62,1.64,2.24,2.24,0,0,1-.67,1.66c-.45.45-1,.73-2.56.73h-1.38V42.3H116.9Zm1.18,3.73h1.4c.78,0,2-.05,2-1.44s-1.11-1.33-1.72-1.33h-1.65Z" transform="translate(-2.83 -2.5)"/><path class="cls-1" d="M124.66,33.8h3a3.8,3.8,0,0,1,2,.4,2,2,0,0,1,.94,1.73,2.15,2.15,0,0,1-.6,1.51,2.1,2.1,0,0,1-1,.55c.81.22,1.17.58,1.29,1.64a11.39,11.39,0,0,0,.53,2.67h-1.26a14.06,14.06,0,0,1-.39-2.25c-.14-1.23-.43-1.59-1.86-1.59h-1.48V42.3h-1.16Zm1.14,3.66h1.86a2.81,2.81,0,0,0,1.11-.18,1.21,1.21,0,0,0,.58-1.11c0-1.38-1.22-1.38-1.69-1.38H125.8Z" transform="translate(-2.83 -2.5)"/><path class="cls-1" d="M133,33.8h5.33v1h-4.15v2.65h3.95v1h-3.95v2.82h4.25v1H133Z" transform="translate(-2.83 -2.5)"/><path class="cls-1" d="M146,36.1a1.62,1.62,0,0,0-1.84-1.47c-2,0-2.41,2.09-2.41,3.5,0,1.61.46,3.33,2.4,3.33a1.84,1.84,0,0,0,1.38-.5,1.77,1.77,0,0,0,.41-.9h1.29c-.17,1.68-1.71,2.37-3.17,2.37-3,0-3.57-2.64-3.57-4.28s.7-4.46,3.72-4.46c1.2,0,2.89.48,3.05,2.41Z" transform="translate(-2.83 -2.5)"/><path class="cls-1" d="M149.32,33.8h1.18v8.5h-1.18Z" transform="translate(-2.83 -2.5)"/><path class="cls-1" d="M153.94,34.72a3.78,3.78,0,0,1,2.83-1.14c2.36,0,3.84,1.51,3.84,4.39,0,2.26-.91,4.53-3.93,4.53s-3.84-2.06-3.84-4.39A5,5,0,0,1,153.94,34.72Zm.89,6a2.32,2.32,0,0,0,1.88.78,2.36,2.36,0,0,0,1.89-.78,4.65,4.65,0,0,0,.76-2.76c0-1.93-.64-3.39-2.58-3.39-2.15,0-2.7,1.73-2.7,3.47A4.27,4.27,0,0,0,154.83,40.72Z" transform="translate(-2.83 -2.5)"/><path class="cls-1" d="M164.16,33.8v5.26a2.09,2.09,0,0,0,2.32,2.37A2.09,2.09,0,0,0,168.77,39V33.8h1.14V39a3.18,3.18,0,0,1-3.43,3.44,3.65,3.65,0,0,1-3-1.36A3.34,3.34,0,0,1,163,39V33.8Z" transform="translate(-2.83 -2.5)"/><path class="cls-1" d="M173.51,39.82c0,.59.1,1.68,2.05,1.68,1.76,0,2-1.09,2-1.52,0-.95-.77-1.14-2-1.43a7.34,7.34,0,0,1-2.3-.76,1.91,1.91,0,0,1-.89-1.67c0-1.73,1.64-2.48,3.24-2.48a3.28,3.28,0,0,1,2.39.84,2.2,2.2,0,0,1,.52,1.44h-1.23c-.06-1.06-.95-1.29-1.78-1.29-1.18,0-1.89.53-1.89,1.38s.5,1,1.53,1.25c2,.52,2.25.57,2.74.9a2,2,0,0,1,.85,1.69c0,1.51-1.18,2.65-3.35,2.65a3.45,3.45,0,0,1-2.64-1,2.68,2.68,0,0,1-.49-1.72Z" transform="translate(-2.83 -2.5)"/><path class="cls-1" d="M185,33.8h2.08l2.4,7,2.46-7h1.94v8.5h-1.15V34.65l-2.79,7.65H188.8l-2.68-7.6v7.6H185Z" transform="translate(-2.83 -2.5)"/><path class="cls-1" d="M196.51,33.8h5.33v1h-4.15v2.65h3.95v1h-3.95v2.82h4.24v1h-5.42Z" transform="translate(-2.83 -2.5)"/><path class="cls-1" d="M206.48,42.3V34.8h-2.84v-1h6.86v1h-2.85v7.5Z" transform="translate(-2.83 -2.5)"/><path class="cls-1" d="M214,33.8h1.26l3.43,8.5h-1.28l-.92-2.21h-3.94l-.92,2.21h-1.21Zm-1.07,5.33h3.21L214.54,35Z" transform="translate(-2.83 -2.5)"/><path class="cls-1" d="M220.46,33.8h1.16v7.45h4v1h-5.12Z" transform="translate(-2.83 -2.5)"/><path class="cls-1" d="M228.38,39.82c0,.59.09,1.68,2,1.68,1.77,0,2-1.09,2-1.52,0-.95-.76-1.14-1.95-1.43a7.54,7.54,0,0,1-2.31-.76,1.92,1.92,0,0,1-.88-1.67c0-1.73,1.64-2.48,3.24-2.48a3.31,3.31,0,0,1,2.39.84,2.12,2.12,0,0,1,.51,1.44h-1.22c-.06-1.06-.95-1.29-1.79-1.29-1.18,0-1.88.53-1.88,1.38s.49,1,1.53,1.25c2,.52,2.25.57,2.74.9a2,2,0,0,1,.85,1.69c0,1.51-1.18,2.65-3.36,2.65a3.44,3.44,0,0,1-2.63-1,2.7,2.7,0,0,1-.5-1.72Z" transform="translate(-2.83 -2.5)"/><path class="cls-1" d="M44.42,2.5,12,35h0C8,38.43,6.67,38.73,4,38.85L2.83,42.27H14.47v0A3.91,3.91,0,0,0,17,41.13L47.53,10.56l27.09,27.1a8.62,8.62,0,0,1-4.76,1.21l-1.18,3.4H90.57C79.66,31.38,61.26,13.12,50.64,2.5Z" transform="translate(-2.83 -2.5)"/><path class="cls-1" d="M98.5,32c-5.62-5.61-15-15-21.39-21.43H71.49c-1,.92-1.93,1.85-2.89,2.79s-2.21,2.17-3.32,3.28h0L47,35h0C43,38.44,41.66,38.74,39,38.86l-1.18,3.42H49.46v0A3.92,3.92,0,0,0,52,41.13L74.1,19l.1-.1,0,0c2.88,2.9,6.1,6.13,9.22,9.25L97.68,42.27l1,0,10.37,0C107,40.23,99.61,33.07,98.5,32Z" transform="translate(-2.83 -2.5)"/></svg>