<?xml version="1.0" encoding="utf-8"?>
<!-- Generator: Adobe Illustrator 25.2.3, SVG Export Plug-In . SVG Version: 6.00 Build 0)  -->
<svg version="1.1" id="Capa_1" xmlns="http://www.w3.org/2000/svg" xmlns:xlink="http://www.w3.org/1999/xlink" x="0px" y="0px"
	 viewBox="0 0 512 512" style="enable-background:new 0 0 512 512;" xml:space="preserve">
<style type="text/css">
	.st0{fill:#AD8400;}
</style>
<path class="st0" d="M256,0C114.6,0,0,114.6,0,256s114.6,256,256,256s256-114.6,256-256S397.4,0,256,0z"/>
<polygon points="198.8,394.3 158.9,394.3 158.9,388 198.8,346.7 198.8,394.3 "/>
<polygon points="278.6,394.3 238.7,394.3 238.7,319.9 278.6,359.4 "/>
<polygon points="358.5,394.3 318.6,394.3 318.6,322.7 358.5,282.8 "/>
<rect x="398.5" y="285.5" width="39.9" height="108.8"/>
<polygon points="398.4,245.6 398.4,186 280.2,304.7 231,256.1 96.3,395.2 67.6,367.4 230.3,199.3 279.9,248.3 371.2,156.7 
	308.5,156.7 308.5,116.8 438.3,116.8 438.3,245.6 "/>
</svg>
