<svg width="80" height="80" viewBox="0 0 80 80" fill="none" xmlns="http://www.w3.org/2000/svg">
<path d="M60.3125 70.625C59.4501 70.625 58.75 71.3251 58.75 72.1875C58.75 73.0499 59.4501 73.75 60.3125 73.75C61.1749 73.75 61.875 73.0499 61.875 72.1875C61.875 71.3251 61.1749 70.625 60.3125 70.625Z" fill="#005F28"/>
<path d="M8.75 72.1875C8.75 76.4954 12.2546 80 16.5625 80H69.6875C70.376 80 70.9833 79.5496 71.1829 78.8904C71.3824 78.2318 71.1273 77.5201 70.5548 77.1375C68.8715 76.0144 67.9059 74.2102 67.9059 72.1875C67.9059 70.1642 68.8715 68.36 70.5548 67.2369C70.5554 67.2369 70.5554 67.2363 70.556 67.2357C70.968 66.9592 71.2439 66.485 71.2488 65.9546C71.2488 65.9485 71.25 65.943 71.25 65.9375V1.5625C71.25 0.699463 70.5505 0 69.6875 0H16.5625C12.2546 0 8.75 3.50464 8.75 7.8125L8.75 72.1875ZM66.0828 76.875H16.5625C13.9777 76.875 11.875 74.7723 11.875 72.1875C11.875 69.5984 13.9734 67.4982 16.5625 67.4982H66.0828C65.2429 68.891 64.7815 70.5066 64.7815 72.1875C64.7815 73.8684 65.2423 75.4822 66.0828 76.875ZM68.125 64.375H21.25V3.125H68.125V64.375ZM16.5625 3.125H18.125V64.375H16.5625C14.8492 64.375 13.2202 64.9243 11.875 65.9381V7.8125C11.875 5.22766 13.9777 3.125 16.5625 3.125Z" fill="#005F28"/>
<path d="M53.8422 70.625H19.6875C18.8245 70.625 18.125 71.3245 18.125 72.1875C18.125 73.0505 18.8245 73.75 19.6875 73.75H53.8422C54.7052 73.75 55.4047 73.0505 55.4047 72.1875C55.4047 71.3245 54.7052 70.625 53.8422 70.625Z" fill="#005F28"/>
</svg>
