<svg width="80" height="80" viewBox="0 0 80 80" fill="none" xmlns="http://www.w3.org/2000/svg">
<g clip-path="url(#clip0)">
<path d="M58.3042 3.14401L12.1417 0.056358C10.6369 -0.0433295 9.33172 1.09776 9.23094 2.60214L8.86984 8.00167H2.73438C1.22672 8.00167 0 9.22839 0 10.736V77.2151C0 78.7228 1.22672 79.9495 2.73438 79.9495H38.0689C38.3752 79.9495 38.6786 79.8243 38.8958 79.6081L44.2298 74.2976C44.2841 74.3092 44.3394 74.3184 44.3962 74.3221L53.5028 74.9312C54.9562 75.0271 56.3161 73.845 56.4136 72.3854L60.85 6.05495C60.9498 4.5662 59.7928 3.24355 58.3042 3.14401ZM39.2408 75.9412V67.8006C39.2408 67.5853 39.4161 67.41 39.6314 67.41H47.7408L39.2408 75.9412ZM54.075 72.2292C54.0369 72.4651 53.8983 72.5864 53.6594 72.5928L46.4281 72.109L51.3894 67.1698C51.6103 66.95 51.7345 66.651 51.7345 66.3393V10.7362C51.7345 9.22855 50.5078 8.00183 49.0002 8.00183H36.8138C35.2986 8.00183 35.2986 10.3456 36.8138 10.3456H49.0002C49.2156 10.3456 49.3908 10.5209 49.3908 10.7362V65.0662H39.6314C38.1238 65.0662 36.897 66.2929 36.897 67.8006V77.6057H2.73438C2.51906 77.6057 2.34375 77.4304 2.34375 77.2151V10.7362C2.34375 10.5209 2.51906 10.3456 2.73438 10.3456H30.5731C32.0883 10.3456 32.0883 8.00183 30.5731 8.00183H11.2188L11.5694 2.7587C11.6075 2.52261 11.7461 2.40151 11.9852 2.39511L58.1477 5.48261C58.3837 5.52073 58.505 5.65933 58.5114 5.89839L54.075 72.2292Z" fill="#AD8400"/>
<path d="M41.8476 37.0386H9.88623C9.23904 37.0386 8.71436 37.5633 8.71436 38.2104C8.71436 38.8576 9.23904 39.3823 9.88623 39.3823H41.8476C42.495 39.3823 43.0195 38.8576 43.0195 38.2104C43.0195 37.5633 42.495 37.0386 41.8476 37.0386Z" fill="#AD8400"/>
<path d="M41.8476 45.208H9.88623C9.23904 45.208 8.71436 45.7327 8.71436 46.3799C8.71436 47.0271 9.23904 47.5518 9.88623 47.5518H41.8476C42.495 47.5518 43.0195 47.0271 43.0195 46.3799C43.0195 45.7327 42.495 45.208 41.8476 45.208Z" fill="#AD8400"/>
<path d="M8.71436 30.041C8.71436 30.6882 9.23904 31.2129 9.88623 31.2129H41.8476C42.495 31.2129 43.0195 30.6882 43.0195 30.041C43.0195 29.3938 42.495 28.8691 41.8476 28.8691H9.88623C9.23904 28.8691 8.71436 29.3938 8.71436 30.041Z" fill="#AD8400"/>
<path d="M14.3452 21.8713C14.3452 22.5185 14.8699 23.0432 15.5171 23.0432H36.2182C36.8654 23.0432 37.3901 22.5185 37.3901 21.8713C37.3901 21.2242 36.8654 20.6995 36.2182 20.6995H15.5171C14.8699 20.6995 14.3452 21.2242 14.3452 21.8713Z" fill="#AD8400"/>
<path d="M30.4302 68.5604C28.3226 68.566 26.2149 68.5705 24.1072 68.5738C23.3988 68.5749 22.6905 68.5759 21.9822 68.5763C20.6987 68.5773 19.8338 68.3196 19.5463 66.9077C19.3032 65.714 17.6144 65.8745 17.2863 66.9077C16.4754 69.4604 15.1341 68.4602 14.3829 66.7432C13.6333 65.0302 13.4412 63.1131 13.1138 61.2901C12.8732 59.9506 10.8472 60.326 10.8119 61.6016C10.7654 63.2815 10.6085 64.9346 10.1821 66.5638C9.74225 68.2448 9.08303 69.8602 8.42865 71.4663C7.85819 72.8665 10.1266 73.4688 10.6887 72.0894C11.2685 70.6663 11.8491 69.2354 12.2813 67.7591C13.0844 69.6904 14.746 71.8748 17.1137 70.5874C17.5541 70.3479 17.9655 70.0074 18.3266 69.6104C19.5579 71.0332 21.3905 70.921 23.1054 70.919C25.5471 70.9159 27.9888 70.9105 30.4305 70.9041C31.9382 70.9002 31.941 68.5565 30.4302 68.5604Z" fill="#AD8400"/>
<path d="M79.0516 38.506C78.4427 37.9001 77.6055 37.5893 76.7555 37.5663L75.8699 37.5707V35.8959C75.8699 34.8757 75.2639 33.7979 74.396 33.2612V30.9021C74.396 26.0476 66.8378 26.0687 66.8378 30.9249V33.2843C65.9536 33.8309 65.3605 34.8063 65.3605 35.9174V37.6334C61.4595 37.899 61.4484 43.8435 65.3648 44.0759C65.3898 49.322 65.3886 54.4821 65.3605 59.816C65.3528 61.287 67.6963 61.3732 67.7042 59.8284C67.7323 54.4899 67.7336 49.3253 67.7088 44.0748L73.523 44.0459C73.523 44.0459 73.5155 61.3659 73.5155 69.1684C73.5155 72.9712 67.7 72.9965 67.7 69.1288L67.702 66.9918C67.7934 65.4793 65.4541 65.3382 65.3625 66.8506V68.8559C65.3625 70.5746 65.8941 72.0303 66.9231 73.0542C67.0147 75.5062 68.0478 77.8788 69.7933 79.6098C70.2941 80.1067 70.9874 79.9548 71.472 79.5813C73.2478 77.8024 74.2485 75.4573 74.311 72.9542C75.0845 72.1837 75.8591 71.4079 75.8591 68.7517L75.86 58.0718C77.8866 58.6482 79.9997 57.0799 79.9997 54.9553V40.7878C79.9997 39.9248 79.663 39.1145 79.0516 38.506ZM67.7042 37.6112V35.9173C67.7042 35.5706 67.9422 35.2798 68.2625 35.1934L72.9539 35.1701C73.0852 35.2026 73.2063 35.2646 73.3044 35.3624C73.4474 35.5048 73.5261 35.6942 73.5261 35.8959V37.5824L67.7042 37.6112ZM70.6216 29.4862C71.341 29.4862 72.052 30.1915 72.052 30.9021V32.8031L69.1814 32.8173V30.9249C69.1816 30.1354 69.8272 29.4901 70.6216 29.4862ZM70.6199 76.9707C70.075 76.1985 69.6809 75.3253 69.4609 74.4073C69.8238 74.4859 70.1913 74.5268 70.5589 74.5268C70.9694 74.5268 71.3797 74.4759 71.7838 74.3773C71.5691 75.3092 71.1756 76.1878 70.6199 76.9707ZM77.656 54.9553C77.656 56.0648 75.8666 56.1521 75.8666 54.9757C75.8666 54.9757 75.8686 43.886 75.8699 42.8695C75.8706 42.2138 75.3256 41.6962 74.6889 41.6962L65.5656 41.7415C64.4341 41.7415 64.4605 39.971 65.5772 39.9656L76.7671 39.9101C77.3081 39.9562 77.6044 40.2488 77.6558 40.7878V54.9553H77.656Z" fill="#AD8400"/>
</g>
<defs>
<clipPath id="clip0">
<rect width="80" height="80" fill="white"/>
</clipPath>
</defs>
</svg>
