<svg width="80" height="80" viewBox="0 0 80 80" fill="none" xmlns="http://www.w3.org/2000/svg">
<g clip-path="url(#clip0)">
<path d="M72.3681 52.7628C73.6773 51.2835 74.4745 49.3408 74.4745 47.2146V44.6113C74.4745 39.9889 70.7139 36.2282 66.0914 36.2282C61.4689 36.2282 57.7083 39.9888 57.7083 44.6113V47.2146C57.7083 49.3414 58.5058 51.2846 59.8158 52.7641C58.6739 53.0441 57.5872 53.5233 56.6077 54.1825C54.9936 51.8827 52.6864 50.1035 49.9919 49.1503C49.9502 49.133 49.908 49.1178 49.8653 49.1057C49.228 48.8874 48.5697 48.7149 47.8939 48.5927C49.5638 46.9613 50.7303 44.8189 51.1403 42.4207C51.6075 42.5622 52.0956 42.6375 52.5952 42.6375C55.3575 42.6375 57.6048 40.3902 57.6048 37.6278C57.6048 36.0735 56.8902 34.6433 55.7131 33.7082C55.8469 33.3927 55.9223 33.0468 55.9223 32.683V29.4635C55.9223 23.9741 51.4564 19.5083 45.9672 19.5083H43.2962C43.1716 19.5083 43.0469 19.5147 42.9227 19.5244C41.9398 18.3055 40.4358 17.5236 38.7517 17.5236H37.3189C37.3319 17.2641 37.3408 17.0039 37.3408 16.7427C37.3408 8.21769 30.4052 1.28223 21.8803 1.28223C13.3555 1.28223 6.41984 8.21785 6.41984 16.7427C6.41984 25.2675 13.3555 32.2032 21.8803 32.2032C22.6205 32.2032 23.3542 32.1496 24.0778 32.0466V33.0774C24.0778 33.3263 24.1127 33.5674 24.1775 33.796C23.0595 34.7368 22.3953 36.1297 22.3953 37.6277C22.3953 40.39 24.6427 42.6374 27.405 42.6374C27.9047 42.6374 28.3928 42.5618 28.8598 42.4203C29.2698 44.8193 30.437 46.9621 32.1075 48.5938C31.4434 48.7144 30.7958 48.8836 30.1683 49.0975C30.1027 49.1143 30.038 49.1371 29.9744 49.1658C27.2987 50.1243 25.0045 51.9002 23.3964 54.1905C22.4319 53.5375 21.3483 53.0485 20.1855 52.7627C21.4948 51.2833 22.2919 49.3407 22.2919 47.2143V44.611C22.2919 39.9886 18.5312 36.2278 13.9087 36.2278C9.28641 36.2278 5.52578 39.9885 5.52578 44.611V47.2143C5.52578 49.3405 6.32297 51.2832 7.63219 52.7625C3.25656 53.836 0 57.7893 0 62.4908V72.6243C0 73.2714 0.524687 73.7961 1.17188 73.7961C1.81906 73.7961 2.34375 73.2714 2.34375 72.6243V62.4908C2.34375 58.2596 5.78609 54.8172 10.0173 54.8172H10.3825C10.6394 54.9368 10.9031 55.0433 11.1733 55.1369L8.82812 64.2902C8.63047 65.0616 8.87922 65.8674 9.47719 66.393L12.5192 69.0672C12.9153 69.4153 13.4119 69.5894 13.9086 69.5894C14.4053 69.5894 14.902 69.4153 15.2981 69.0672L18.3402 66.393C18.9381 65.8672 19.1867 65.0614 18.9891 64.2902L16.6439 55.1369C16.9141 55.0433 17.1778 54.9368 17.4347 54.8172H17.7997C19.4433 54.8172 20.967 55.3378 22.217 56.2211C21.4062 57.9449 20.9464 59.8636 20.933 61.8853C20.9287 62.5325 21.4498 63.0607 22.097 63.065H22.105C22.7486 63.065 23.2725 62.5455 23.2767 61.901C23.3067 57.3799 26.0312 53.4799 29.9125 51.7194L38.8281 68.7002V77.5368C38.8281 78.1839 39.3528 78.7086 40 78.7086C40.6472 78.7086 41.1719 78.1839 41.1719 77.5368V68.7002L50.0892 51.7158C53.9975 53.4832 56.7253 57.4161 56.7253 61.9769V77.546C56.7253 78.1932 57.25 78.7178 57.8972 78.7178C58.5444 78.7178 59.0691 78.1932 59.0691 77.546V61.9769C59.0691 59.918 58.6083 57.965 57.7859 56.2141C59.0723 55.3094 60.6147 54.8171 62.2002 54.8171H62.5652C62.822 54.9366 63.0859 55.0433 63.3559 55.1368L61.0106 64.2899C60.813 65.0611 61.0617 65.8669 61.6598 66.3928L64.7019 69.0671C65.098 69.4152 65.5945 69.5893 66.0912 69.5893C66.588 69.5893 67.0847 69.4152 67.4808 69.0671L70.5227 66.3928C71.1208 65.8671 71.3695 65.0613 71.1719 64.29L70.7973 62.8282C70.6369 62.2013 69.9989 61.8236 69.3714 61.9838C68.7444 62.1444 68.3664 62.7828 68.527 63.4099L68.8652 64.7297L66.0914 67.1682L63.3177 64.7297L65.6603 55.5866C65.8031 55.5939 65.9469 55.5975 66.0914 55.5975C66.2359 55.5975 66.3798 55.5938 66.5227 55.5866L67.1181 57.9105C67.2538 58.4399 67.73 58.7919 68.2525 58.7919C68.3488 58.7919 68.4467 58.7799 68.5442 58.7549C69.1712 58.5943 69.5492 57.9558 69.3886 57.3289L68.827 55.1371C69.0991 55.0429 69.365 54.9355 69.6236 54.8147C69.6411 54.8155 69.6583 54.8174 69.6761 54.8174H69.983C74.2142 54.8174 77.6566 58.2597 77.6566 62.491V72.6244C77.6566 73.2716 78.1813 73.7963 78.8284 73.7963C79.4756 73.7963 80.0003 73.2716 80.0003 72.6244V62.491C80 57.7892 76.7434 53.836 72.3681 52.7628ZM7.86922 44.6113C7.86922 41.2811 10.5784 38.5719 13.9086 38.5719C17.2388 38.5719 19.948 41.2811 19.948 44.6113V47.2146C19.948 50.5447 17.2388 53.2539 13.9086 53.2539C10.5784 53.2539 7.86937 50.5447 7.86937 47.2146V44.6113H7.86922ZM16.6823 64.7297L13.9087 67.1682L11.1348 64.7297L13.4773 55.5866C13.6202 55.5939 13.7639 55.5975 13.9086 55.5975C14.0531 55.5975 14.1969 55.5938 14.3397 55.5866L16.6823 64.7297ZM52.5952 40.2936C52.1377 40.2936 51.6978 40.1775 51.3048 39.9593V36.853C51.3048 36.3874 51.2745 35.915 51.2153 35.4433C52.1266 35.4108 52.9328 35.3489 53.565 35.2863C53.6461 35.2783 53.7258 35.2663 53.8044 35.2511C54.6952 35.7041 55.2612 36.6172 55.2612 37.6277C55.2611 39.0979 54.0652 40.2936 52.5952 40.2936ZM45.967 21.8519C50.1641 21.8519 53.5784 25.2664 53.5784 29.4633V32.6828C53.5784 32.8235 53.4731 32.94 53.3334 32.9538C51.3294 33.1527 47.4798 33.3535 44.2114 32.4638C43.7075 32.3266 43.2314 32.0974 42.8064 31.7935C43.6338 30.5332 44.1086 29.0293 44.1086 27.4391V22.8805C44.1086 22.5286 44.0734 22.1849 44.0084 21.8518H45.967V21.8519ZM30.4827 29.59C31.0202 29.2294 31.1636 28.5014 30.803 27.9639C30.4423 27.4264 29.7144 27.2832 29.1769 27.6436C27.0159 29.0932 24.4928 29.8594 21.88 29.8594C14.6473 29.8594 8.76328 23.9752 8.76328 16.7427C8.76328 9.51019 14.6475 3.62598 21.88 3.62598C29.1125 3.62598 34.9967 9.51019 34.9967 16.7427C34.9967 19.3149 34.2519 21.8055 32.8428 23.9454C32.4869 24.4858 32.6366 25.2125 33.177 25.5685C33.7173 25.9244 34.4442 25.7749 34.8002 25.2343C35.8822 23.5913 36.6295 21.7727 37.0211 19.8672H38.7513C40.4128 19.8672 41.7645 21.2189 41.7645 22.8805V27.4391C41.7645 29.9413 40.1044 32.1408 37.7272 32.7878C33.5994 33.9116 28.613 33.5535 26.6606 33.3475C26.5239 33.3332 26.4209 33.2169 26.4209 33.0772V31.5243C27.8536 31.085 29.2205 30.4368 30.4827 29.59ZM24.7389 37.6277C24.7389 36.7952 25.1252 36.0244 25.7689 35.5239C25.973 35.6005 26.1887 35.6546 26.415 35.6785C27.0575 35.7463 27.8486 35.8146 28.7408 35.8608C28.7112 36.1932 28.6952 36.5247 28.6952 36.853V39.9593C28.3022 40.1777 27.8627 40.2936 27.4048 40.2936C25.9348 40.2936 24.7389 39.0979 24.7389 37.6277ZM31.0389 40.511V36.853C31.0389 36.5444 31.0575 36.2313 31.0908 35.9175C33.365 35.9078 35.9509 35.7007 38.3431 35.0496C39.4273 34.7544 40.4066 34.2335 41.238 33.5463C41.9388 34.0883 42.7413 34.4928 43.5959 34.7255C45.3155 35.1936 47.1562 35.3921 48.8481 35.4488C48.9223 35.9189 48.9611 36.3911 48.9611 36.8533V40.5113C48.9611 45.4525 44.9411 49.4724 40 49.4724C35.0589 49.4724 31.0389 45.4522 31.0389 40.511ZM40 65.8903L36.4077 59.0483L39.0703 51.7746C39.3772 51.7997 39.6867 51.816 40 51.816C40.3133 51.816 40.6227 51.7997 40.9297 51.7746L43.5923 59.0483L40 65.8903ZM34.5322 50.7194H35.1475C35.6572 50.9627 36.188 51.1678 36.7359 51.3335L34.937 56.2474L32.1678 50.973C32.9311 50.8083 33.7216 50.7194 34.5322 50.7194ZM45.0628 56.2474L43.2641 51.3335C43.8127 51.1677 44.3442 50.9622 44.8544 50.7186C44.86 50.7186 44.8655 50.7194 44.8711 50.7194H45.4678C46.2791 50.7194 47.0698 50.8077 47.833 50.9714L45.0628 56.2474ZM60.052 47.2144V44.6111C60.052 41.281 62.7612 38.5718 66.0914 38.5718C69.4216 38.5718 72.1308 41.281 72.1308 44.6111V47.2144C72.1308 50.5446 69.4216 53.2538 66.0914 53.2538C62.7612 53.2538 60.052 50.5446 60.052 47.2144Z" fill="#0033A1"/>
<path d="M22.103 66.3916C21.4558 66.3916 20.9312 66.9163 20.9312 67.5635V77.546C20.9312 78.1932 21.4558 78.7178 22.103 78.7178C22.7502 78.7178 23.2749 78.1932 23.2749 77.546V67.5635C23.2749 66.9163 22.7502 66.3916 22.103 66.3916Z" fill="#0033A1"/>
<path d="M44.4102 69.5688H44.3833C44.3821 69.5688 44.381 69.5688 44.3799 69.5688C43.7343 69.5688 43.2099 70.0913 43.208 70.7374C43.2061 71.3846 43.7293 71.9107 44.3766 71.9126H44.4036H44.4069C45.0525 71.9126 45.5769 71.3901 45.5788 70.744C45.5805 70.0968 45.0574 69.5706 44.4102 69.5688Z" fill="#0033A1"/>
<path d="M31.6569 11.1763L29.5394 9.05875C29.179 8.69844 28.7001 8.5 28.1908 8.5C27.6814 8.5 27.2025 8.69844 26.8423 9.05859L19.0992 16.8016L16.9178 14.6202C16.5576 14.26 16.0787 14.0616 15.5694 14.0616C15.06 14.0616 14.5811 14.26 14.2209 14.6202L12.1031 16.7378C11.3595 17.4814 11.3595 18.6911 12.1031 19.4347L17.2309 24.5625C17.7461 25.0777 18.4225 25.3352 19.0992 25.3352C19.7758 25.3352 20.4525 25.0777 20.9676 24.5625L31.657 13.8731C32.4004 13.1297 32.4004 11.92 31.6569 11.1763ZM19.3104 22.9052C19.1939 23.0216 19.0047 23.0216 18.8883 22.9052L14.0694 18.0861L15.5695 16.5859L18.2708 19.2872C18.7283 19.7448 19.4703 19.7448 19.9279 19.2872L28.1909 11.0245L29.6911 12.5245L19.3104 22.9052Z" fill="#0033A1"/>
</g>
<defs>
<clipPath id="clip0">
<rect width="80" height="80" fill="white"/>
</clipPath>
</defs>
</svg>
