<svg width="80" height="74" viewBox="0 0 80 74" fill="none" xmlns="http://www.w3.org/2000/svg">
<path d="M78.8283 38.0716H77.0612L69.7656 21.2272C70.4931 20.5816 70.9528 19.6404 70.9528 18.5935C70.9528 16.6513 69.3728 15.0714 67.4308 15.0714C66.4369 15.0714 65.5383 15.486 64.8972 16.1505C59.2443 13.5772 53.2676 11.9016 47.1026 11.1619C46.7152 8.80956 45.2274 6.82455 43.1866 5.7533V3.45502C43.1866 1.82673 41.8618 0.502197 40.2338 0.502197H39.209C37.5807 0.502197 36.2562 1.82704 36.2562 3.45502V5.7533C34.2074 6.82877 32.7157 8.82503 32.3355 11.1894C26.3358 11.9327 20.5127 13.5644 14.9988 16.0468C14.3663 15.4432 13.5108 15.0714 12.5696 15.0714C10.6274 15.0714 9.04752 16.6514 9.04752 18.5935C9.04752 19.6404 9.50721 20.5816 10.2347 21.2272L2.93891 38.0716H1.17188C0.524532 38.0716 0 38.5962 0 39.2435V40.772C0 45.6782 3.99173 49.6698 8.89783 49.6698H16.2408C21.1471 49.6698 25.1386 45.6781 25.1386 40.772V39.2435C25.1386 38.5962 24.6141 38.0716 23.9668 38.0716H22.1997L14.9042 21.2272C15.3207 20.8577 15.6488 20.3913 15.8536 19.8633H35.0243V55.9804H34.309C29.7307 55.9804 25.4111 59.5112 25.4111 65.269C23.9349 65.4795 22.795 66.7486 22.795 68.282V70.4506C22.795 72.1308 24.1621 73.4977 25.8421 73.4977H36.9868C37.6341 73.4977 38.1587 72.9731 38.1587 72.3258C38.1587 71.6784 37.6341 71.1539 36.9868 71.1539H25.8421C25.461 71.1539 25.139 70.8319 25.139 70.4508V68.2822C25.139 67.9011 25.461 67.579 25.8421 67.579C26.2171 67.579 53.2176 67.579 53.6009 67.579C53.982 67.579 54.304 67.9011 54.304 68.2822V70.4508C54.304 70.8319 53.982 71.1539 53.6009 71.1539H42.4562C41.8088 71.1539 41.2843 71.6784 41.2843 72.3258C41.2843 72.9731 41.8088 73.4977 42.4562 73.4977H53.6009C55.2811 73.4977 56.6479 72.1308 56.6479 70.4506V68.282C56.6479 66.7486 55.5081 65.4795 54.0318 65.269C54.0318 59.5618 49.756 55.9804 45.134 55.9804H44.4187V41.9781C44.4187 41.3307 43.8941 40.8062 43.2468 40.8062C42.5995 40.8062 42.0749 41.3307 42.0749 41.9781V55.9804H37.3688V19.4897C38.8976 20.0007 40.5462 20.0007 42.0749 19.4897V36.5091C42.0749 37.1565 42.5995 37.6812 43.2468 37.6812C43.8941 37.6812 44.4187 37.1566 44.4187 36.5091V19.8635H64.1469C64.3517 20.3913 64.6798 20.8577 65.0962 21.2274L57.8006 38.0718H56.0332C55.3859 38.0718 54.8614 38.5963 54.8614 39.2437V40.7721C54.8614 45.6784 58.8531 49.67 63.7592 49.67H71.1022C76.0084 49.67 80 45.6782 80 40.7721V39.2437C80.0002 38.5962 79.4755 38.0716 78.8283 38.0716ZM12.5694 17.4154C13.2213 17.4154 13.7722 17.9543 13.7438 18.6427C13.7435 18.651 13.7442 18.6591 13.7439 18.6672C13.7044 19.301 13.1728 19.7713 12.5696 19.7713C11.9317 19.7713 11.3914 19.2529 11.3914 18.5933C11.3911 17.944 11.9199 17.4154 12.5694 17.4154ZM22.795 40.4156C22.795 44.7632 19.5911 47.326 16.241 47.326H8.89783C5.53767 47.326 2.34375 44.757 2.34375 40.4156C3.03266 40.4156 22.1399 40.4156 22.795 40.4156ZM19.6457 38.0716H5.49314L12.4058 22.1115C12.5141 22.1174 12.6375 22.1166 12.733 22.1115L19.6457 38.0716ZM17.4891 17.5196C22.2418 15.5413 27.2188 14.2099 32.3313 13.5502C32.5612 15.0089 33.221 16.4 34.2807 17.5196H17.4891ZM38.5999 3.45502C38.5999 3.11923 38.873 2.84611 39.2088 2.84611H40.2337C40.5695 2.84611 40.8426 3.11923 40.8426 3.45502V4.9833C40.4938 4.93049 40.0712 4.89939 39.7212 4.89939C39.3784 4.89939 38.9555 4.92955 38.5999 4.9833V3.45502ZM45.1338 58.3245C48.4942 58.3245 51.6878 60.8936 51.6878 65.2351H27.7551C27.7551 60.8875 30.959 58.3245 34.309 58.3245C35.3969 58.3245 44.0465 58.3245 45.1338 58.3245ZM39.7213 17.5197C36.8529 17.5197 34.5232 15.1574 34.5865 12.2677C34.5865 12.2649 34.5862 12.2622 34.5862 12.2594C34.6377 10.0707 36.0662 8.21096 38.0396 7.52737C41.3931 6.3608 44.8596 8.89081 44.8596 12.3814C44.8596 15.2188 42.5526 17.5197 39.7213 17.5197ZM45.1609 17.5196C46.2223 16.3966 46.8926 14.9813 47.1167 13.5224C52.3068 14.1719 57.357 15.5125 62.1779 17.5196H45.1609ZM66.2564 18.643C66.2284 17.9616 66.7728 17.4154 67.4306 17.4154C68.0801 17.4154 68.6087 17.944 68.6087 18.5935C68.6087 19.2527 68.0681 19.7715 67.4306 19.7715C66.8214 19.7715 66.2956 19.2966 66.2562 18.6674C66.2561 18.6593 66.2569 18.6511 66.2564 18.643ZM67.267 22.1115C67.2673 22.1115 67.2676 22.1115 67.2681 22.1115C67.3736 22.1163 67.479 22.1177 67.5942 22.1115L74.5069 38.0716H60.3543L67.267 22.1115ZM71.1022 47.3259H63.7592C60.3989 47.3259 57.2053 44.7568 57.2053 40.4152C57.894 40.4152 77.0013 40.4152 77.6564 40.4152C77.6562 44.7632 74.4523 47.3259 71.1022 47.3259Z" fill="#43B28A"/>
</svg>
