<svg width="80" height="80" viewBox="0 0 80 80" fill="none" xmlns="http://www.w3.org/2000/svg">
<g clip-path="url(#clip0)">
<path d="M74.1965 16.3438C73.944 14.6454 72.8032 13.1829 71.2193 12.5269L41.8774 0.37582C40.6667 -0.125273 39.3332 -0.125273 38.1224 0.37582L8.78056 12.5269C7.19665 13.1829 6.05587 14.6454 5.80337 16.3438C5.18728 20.4885 4.15447 31.4541 7.85853 43.7313C9.91853 50.5589 13.1465 56.8424 17.4527 62.4069C22.6221 69.0868 29.4056 74.7988 37.6148 79.3839C38.3504 79.7946 39.1751 80 39.9999 80C40.8246 80 41.6495 79.7946 42.3851 79.3838C50.5943 74.7986 57.3777 69.0866 62.5471 62.4068C66.8532 56.8422 70.0812 50.5588 72.1412 43.7311C75.8454 31.4541 74.8124 20.4885 74.1965 16.3438ZM69.9001 43.0549C65.4988 57.6422 55.8576 69.1772 41.2437 77.3399C40.477 77.7682 39.5238 77.7683 38.7567 77.3399C24.1426 69.1774 14.501 57.6422 10.0999 43.0549C6.53259 31.2308 7.52634 20.6766 8.11915 16.6879C8.25134 15.7985 8.84806 15.0329 9.67634 14.69L39.0182 2.53895C39.3348 2.40785 39.6674 2.34223 40.0001 2.34223C40.3326 2.34223 40.6654 2.40785 40.982 2.53895L70.3238 14.69C71.1521 15.033 71.7487 15.7985 71.8807 16.6879C72.4737 20.6768 73.4673 31.231 69.9001 43.0549Z" fill="#B11DD6"/>
<path d="M65.1571 18.0277L53.6888 13.3474C53.0899 13.1033 52.4067 13.3903 52.1627 13.9889C51.9186 14.5875 52.2056 15.2708 52.8042 15.515L64.2725 20.1953C64.8613 20.4355 65.2849 20.9689 65.3781 21.5872C65.8517 24.7271 66.6455 33.035 63.7956 42.3436C60.2802 53.8263 52.5746 62.9089 40.893 69.3391C40.3424 69.6421 39.658 69.6421 39.1074 69.3391C27.4256 62.9089 19.72 53.8264 16.2046 42.3436C13.3544 33.0352 14.1481 24.7272 14.6217 21.5872C14.715 20.9688 15.1386 20.4355 15.7275 20.1953L39.2941 10.5777C39.7425 10.3946 40.2575 10.3944 40.7061 10.5777L47.7839 13.4663C48.3827 13.7103 49.066 13.4231 49.31 12.8247C49.5542 12.2261 49.2671 11.5428 48.6685 11.2986L41.5905 8.41002C40.5647 7.99143 39.4352 7.99174 38.4094 8.41002L14.8428 18.0277C13.4942 18.578 12.5224 19.8083 12.3067 21.2381C11.8094 24.5361 10.9753 33.2614 13.9658 43.0289C15.6294 48.4628 18.2361 53.4635 21.7136 57.8917C25.8853 63.2041 31.3575 67.7455 37.9783 71.3899C38.6019 71.7331 39.3008 71.9047 40 71.9047C40.6991 71.9046 41.3983 71.7331 42.0217 71.3899C48.6427 67.7456 54.1149 63.2041 58.2864 57.8917C61.7638 53.4635 64.3705 48.4627 66.0341 43.0289C69.0246 33.2613 68.1905 24.536 67.693 21.2381C67.4774 19.8081 66.5056 18.578 65.1571 18.0277Z" fill="#B11DD6"/>
<path d="M37.6671 54.196H42.3332C44.0035 54.196 45.3626 52.8435 45.3626 51.181V46.0066C45.3626 45.6351 45.6712 45.3327 46.0507 45.3327H51.2657C52.9362 45.3327 54.2951 43.9802 54.2951 42.3179V37.6882C54.2951 36.0257 52.9362 34.6732 51.2657 34.6732H46.0507C45.6712 34.6732 45.3626 34.371 45.3626 33.9994V28.8249C45.3626 27.1626 44.0037 25.8101 42.3332 25.8101H37.6671C35.9968 25.8101 34.6377 27.1624 34.6377 28.8249V33.9994C34.6377 34.3708 34.329 34.6732 33.9496 34.6732H28.7345C27.0641 34.6732 25.7051 36.0257 25.7051 37.6882V42.3179C25.7051 43.8266 26.8376 45.1118 28.3393 45.3072C28.9807 45.3916 29.5676 44.9385 29.6512 44.2976C29.7346 43.6565 29.2824 43.0693 28.6415 42.9857C28.3023 42.9415 28.0463 42.6544 28.0463 42.318V37.6883C28.0463 37.3168 28.3551 37.0144 28.7345 37.0144H33.9496C35.6199 37.0144 36.979 35.6619 36.979 33.9996V28.8251C36.979 28.4537 37.2877 28.1513 37.6671 28.1513H42.3332C42.7127 28.1513 43.0213 28.4535 43.0213 28.8251V33.9996C43.0213 35.6619 44.3802 37.0144 46.0505 37.0144H51.2656C51.6451 37.0144 51.9538 37.3166 51.9538 37.6883V42.318C51.9538 42.6894 51.6451 42.9918 51.2656 42.9918H46.0505C44.3802 42.9918 43.0213 44.3443 43.0213 46.0068V51.1812C43.0213 51.5527 42.7127 51.8551 42.3332 51.8551H37.6671C37.2877 51.8551 36.979 51.5529 36.979 51.1812V46.0068C36.979 44.3444 35.6201 42.9918 33.9496 42.9918C33.303 42.9918 32.779 43.5158 32.779 44.1624C32.779 44.809 33.303 45.333 33.9496 45.333C34.329 45.333 34.6377 45.6352 34.6377 46.0069V51.1813C34.6379 52.8435 35.9968 54.196 37.6671 54.196Z" fill="#B11DD6"/>
</g>
<defs>
<clipPath id="clip0">
<rect width="80" height="80" fill="white"/>
</clipPath>
</defs>
</svg>
