<svg width="80" height="80" viewBox="0 0 80 80" fill="none" xmlns="http://www.w3.org/2000/svg">
<path d="M63.125 4.6875H57.5781V2.10938C57.5781 0.94625 56.6319 0 55.4688 0H24.5312C23.3681 0 22.4219 0.94625 22.4219 2.10938V4.6875H16.875C13.6441 4.6875 11.0156 7.31594 11.0156 10.5469V74.1406C11.0156 77.3716 13.6441 80 16.875 80H54.9789C55.6262 80 56.1508 79.4755 56.1508 78.8281C56.1508 78.1808 55.6262 77.6562 54.9789 77.6562H16.875C14.9366 77.6562 13.3594 76.0791 13.3594 74.1406V10.5469C13.3594 8.60844 14.9366 7.03125 16.875 7.03125H26.8709C26.9708 7.84844 27.1734 8.63391 27.4659 9.375H16.875C16.2277 9.375 15.7031 9.89953 15.7031 10.5469V64.9642C15.7031 65.6116 16.2277 66.1361 16.875 66.1361C17.5223 66.1361 18.0469 65.6116 18.0469 64.9642V11.7188H28.7977C30.5564 13.9972 33.312 15.4688 36.4062 15.4688H43.5938C46.688 15.4688 49.4436 13.9972 51.2023 11.7188H61.9531V72.9688H18.0469V70.0659C18.0469 69.4186 17.5223 68.8941 16.875 68.8941C16.2277 68.8941 15.7031 69.4186 15.7031 70.0659V74.1406C15.7031 74.788 16.2277 75.3125 16.875 75.3125H63.125C63.7723 75.3125 64.2969 74.788 64.2969 74.1406V10.5469C64.2969 9.89953 63.7723 9.375 63.125 9.375H52.5342C52.8267 8.63391 53.0294 7.84844 53.1292 7.03125H63.125C65.0634 7.03125 66.6406 8.60844 66.6406 10.5469V14.9498C66.6406 15.5972 67.1652 16.1217 67.8125 16.1217C68.4598 16.1217 68.9844 15.5972 68.9844 14.9498V10.5469C68.9844 7.31594 66.3559 4.6875 63.125 4.6875ZM43.5938 13.125H36.4062C34.8028 13.125 33.3198 12.6019 32.1167 11.7188H47.8833C46.6802 12.6019 45.1972 13.125 43.5938 13.125ZM49.9494 9.375H30.0506C29.653 8.65891 29.373 7.86891 29.2366 7.03125H50.7636C50.627 7.86891 50.3472 8.65891 49.9494 9.375ZM24.7656 4.6875V2.34375H55.2344V4.6875H24.7656Z" fill="#00A3FF"/>
<path d="M67.8121 18.865C67.1647 18.865 66.6402 19.3895 66.6402 20.0369V74.1405C66.6402 76.0789 65.063 77.6561 63.1246 77.6561H60.0366C59.3893 77.6561 58.8647 78.1806 58.8647 78.828C58.8647 79.4753 59.3893 79.9998 60.0366 79.9998H63.1246C66.3555 79.9998 68.984 77.3714 68.984 74.1405V20.0369C68.984 19.3897 68.4594 18.865 67.8121 18.865Z" fill="#00A3FF"/>
<path d="M22.6533 38.6454C22.6533 39.2927 23.1779 39.8173 23.8252 39.8173H40.8305C41.4778 39.8173 42.0024 39.2927 42.0024 38.6454C42.0024 34.638 39.5532 31.1924 36.0732 29.7257C36.9854 28.7852 37.5486 27.5045 37.5486 26.0938C37.5486 23.2151 35.2066 20.873 32.3279 20.873C29.4491 20.873 27.1071 23.2151 27.1071 26.0938C27.1071 27.5045 27.6704 28.7852 28.5825 29.7257C25.1025 31.1924 22.6533 34.638 22.6533 38.6454ZM29.4508 26.0938C29.4508 24.5074 30.7414 23.2168 32.3279 23.2168C33.9143 23.2168 35.2049 24.5074 35.2049 26.0938C35.2049 27.6802 33.9143 28.9709 32.3279 28.9709C30.7414 28.9709 29.4508 27.6802 29.4508 26.0938ZM32.3279 31.3146C35.9713 31.3146 39.0025 33.9863 39.565 37.4735H25.0905C25.6533 33.9863 28.6844 31.3146 32.3279 31.3146Z" fill="#00A3FF"/>
<path d="M49.6197 34.7462C49.9159 34.7462 50.212 34.6347 50.4401 34.4111L57.0267 27.9526C57.4887 27.4995 57.4961 26.7576 57.043 26.2955C56.5897 25.8331 55.8476 25.8264 55.3858 26.2792L49.6351 31.918L46.1923 28.4122C45.7392 27.9506 44.997 27.9436 44.5353 28.3972C44.0736 28.8505 44.0669 29.5925 44.5203 30.0542L48.7836 34.3953C49.0131 34.6291 49.3162 34.7462 49.6197 34.7462Z" fill="#00A3FF"/>
<path d="M23.0952 46.3296C23.0952 46.9769 23.6197 47.5015 24.2671 47.5015H55.7316C56.379 47.5015 56.9035 46.9769 56.9035 46.3296C56.9035 45.6822 56.379 45.1577 55.7316 45.1577H24.2671C23.6199 45.1577 23.0952 45.6822 23.0952 46.3296Z" fill="#00A3FF"/>
<path d="M55.7318 51.0981H24.2671C23.6197 51.0981 23.0952 51.6227 23.0952 52.27C23.0952 52.9174 23.6197 53.4419 24.2671 53.4419H55.7316C56.379 53.4419 56.9035 52.9174 56.9035 52.27C56.9035 51.6227 56.379 51.0981 55.7318 51.0981Z" fill="#00A3FF"/>
<path d="M56.9036 58.2104C56.9036 57.5631 56.3791 57.0386 55.7318 57.0386H24.2671C23.6197 57.0386 23.0952 57.5631 23.0952 58.2104C23.0952 58.8578 23.6197 59.3823 24.2671 59.3823H55.7316C56.379 59.3823 56.9036 58.8576 56.9036 58.2104Z" fill="#00A3FF"/>
<path d="M24.2671 62.9792C23.6197 62.9792 23.0952 63.5038 23.0952 64.1511C23.0952 64.7985 23.6197 65.323 24.2671 65.323H43.3277C43.9751 65.323 44.4996 64.7985 44.4996 64.1511C44.4996 63.5038 43.9751 62.9792 43.3277 62.9792H24.2671Z" fill="#00A3FF"/>
</svg>
