<svg width="80" height="80" viewBox="0 0 80 80" fill="none" xmlns="http://www.w3.org/2000/svg">
<g clip-path="url(#clip0)">
<path d="M28.6116 69.9237C29.2588 69.9237 29.7835 69.399 29.7835 68.7518V67.4698C32.3233 66.957 33.8071 64.8557 34.1371 62.8929C34.5635 60.3568 33.2371 58.1519 30.758 57.2755C29.2307 56.7357 27.5374 56.0802 26.5585 55.3124C26.1185 54.9673 25.9318 54.2923 26.0715 53.551C26.2037 52.8495 26.6829 51.998 27.6308 51.7124C27.9855 51.6055 28.3179 51.5504 28.6262 51.5321C28.6468 51.5318 28.6671 51.5304 28.6874 51.529C30.0358 51.4698 30.9065 52.1207 31.0979 52.2799C31.5954 52.6938 32.3343 52.626 32.7482 52.1285C33.1621 51.631 33.0943 50.8921 32.5968 50.4782C32.3351 50.2605 31.3218 49.4938 29.7835 49.2538V48.1934C29.7835 47.5462 29.2588 47.0215 28.6116 47.0215C27.9644 47.0215 27.4398 47.5462 27.4398 48.1934V49.3421C27.2807 49.3779 27.1194 49.4188 26.9548 49.4685C25.3205 49.9607 24.0996 51.3588 23.7682 53.1171C23.4657 54.7216 23.9807 56.2696 25.1119 57.1568C26.116 57.9443 27.5255 58.619 29.9769 59.4855C32.0407 60.2151 31.9138 61.9807 31.8258 62.5045C31.6058 63.8129 30.5066 65.2265 28.6129 65.2435C28.6124 65.2435 28.6121 65.2435 28.6118 65.2435C28.6082 65.2435 28.6046 65.244 28.601 65.244C26.9221 65.2559 26.3501 65.1632 25.0269 64.2974C24.4852 63.943 23.759 64.0949 23.4048 64.6365C23.0504 65.178 23.2023 65.9044 23.7438 66.2587C25.1855 67.2018 26.174 67.489 27.4399 67.5643V68.7518C27.4398 69.399 27.9643 69.9237 28.6116 69.9237Z" fill="#FF0000"/>
<path d="M37.5656 35.5186C37.5867 35.3567 37.5987 35.1919 37.5987 35.0242C37.5987 34.492 37.4889 33.9852 37.2908 33.5247C39.4004 33.2441 41.0334 31.4331 41.0334 29.248C41.0334 28.3581 40.7626 27.5302 40.299 26.8425C41.735 26.1413 42.7265 24.6658 42.7265 22.963C42.7265 21.2602 41.7351 19.7847 40.299 19.0834C40.7626 18.3958 41.0334 17.568 41.0334 16.678C41.0334 14.7194 39.7211 13.0625 37.9298 12.5378C39.2056 10.6831 39.9122 8.46531 39.9122 6.18516C39.9125 2.77484 37.1376 0 33.727 0C31.6665 0 29.8381 1.01266 28.7134 2.56656C27.5887 1.01266 25.7601 0 23.6997 0C20.289 0 17.5142 2.77484 17.5142 6.18547C17.5142 8.39469 18.1783 10.5452 19.38 12.3639H15.8381C15.837 12.3639 15.8361 12.3641 15.8351 12.3641H10.7542C10.107 12.3641 9.58232 12.8887 9.58232 13.5359C9.58232 14.1831 10.107 14.7078 10.7542 14.7078H14.6662V36.4859H2.4292V14.7078H6.0667C6.71389 14.7078 7.23857 14.1831 7.23857 13.5359C7.23857 12.8887 6.71389 12.3641 6.0667 12.3641H1.25732C0.610137 12.3641 0.0854492 12.8887 0.0854492 13.5359V37.6578C0.0854492 38.305 0.610137 38.8297 1.25732 38.8297H13.8945C7.76139 43.4355 4.08545 50.6589 4.08545 58.5062V68.6938C4.08545 74.928 9.1567 80 15.3901 80H42.037C47.3114 80 51.8369 76.4183 53.0419 71.29C53.1898 70.6598 52.7992 70.0292 52.1692 69.8811C51.5392 69.7328 50.9084 70.1237 50.7603 70.7538C49.8053 74.8178 46.2183 77.6562 42.037 77.6562H15.3901C10.449 77.6562 6.4292 73.6358 6.4292 68.6938V58.5062C6.4292 50.2256 10.9533 42.7134 18.2522 38.8298H33.7931C34.8773 38.8298 35.8564 38.3733 36.5503 37.6433C45.2179 40.8964 50.9979 49.1973 50.9979 58.5062V66.35C50.9979 66.9972 51.5226 67.5219 52.1698 67.5219C52.817 67.5219 53.3417 66.9972 53.3417 66.35V58.5062C53.3417 48.2867 47.0395 39.1636 37.5656 35.5186ZM19.8581 6.18547C19.8581 4.06719 21.5815 2.34375 23.6998 2.34375C25.8183 2.34375 27.5415 4.06719 27.5415 6.18547C27.5415 6.83266 28.0662 7.35734 28.7134 7.35734C29.3606 7.35734 29.8853 6.83266 29.8853 6.18547C29.8853 4.06719 31.6087 2.34375 33.727 2.34375C35.8453 2.34375 37.5687 4.06719 37.5687 6.18547C37.5687 8.49109 36.6578 10.718 35.0555 12.3639H22.3712C20.769 10.7178 19.8581 8.49109 19.8581 6.18547ZM33.7933 36.4861H17.0104V14.7077H36.719C37.8058 14.7077 38.6897 15.5917 38.6897 16.6783C38.6897 17.7648 37.8056 18.6489 36.719 18.6489C36.0719 18.6489 35.5472 19.1736 35.5472 19.8208C35.5472 20.468 36.0719 20.9927 36.719 20.9927H38.4122C39.4987 20.9927 40.3828 21.8767 40.3828 22.9633C40.3828 24.0498 39.4987 24.9339 38.4122 24.9339H36.719C36.0719 24.9339 35.5472 25.4586 35.5472 26.1058C35.5472 26.753 36.0719 27.2777 36.719 27.2777C37.8058 27.2777 38.6897 28.1617 38.6897 29.2483C38.6897 30.335 37.8056 31.2189 36.719 31.2189H33.7931C33.1459 31.2189 32.6212 31.7436 32.6212 32.3908C32.6212 33.038 33.1459 33.5627 33.7931 33.5627C34.5992 33.5627 35.255 34.2184 35.255 35.0244C35.255 35.8303 34.5992 36.4861 33.7933 36.4861Z" fill="#FF0000"/>
<path d="M78.7426 31.4831H74.4799L75.4867 27.2981C75.4903 27.2828 75.4937 27.2673 75.4968 27.2518C75.8614 25.4129 75.4979 23.5347 74.474 21.9631L67.7378 11.6217C66.8837 10.3111 65.5088 9.41294 63.9654 9.15762C62.4221 8.90216 60.8315 9.3095 59.6012 10.275C58.5499 11.0997 57.8278 12.2759 57.5677 13.5873C57.2785 15.0487 57.5732 16.5353 58.3974 17.7731L64.3678 26.7418L64.1635 27.2623L63.459 26.0117C62.4354 24.0498 60.4267 22.832 58.2112 22.832C57.2731 22.832 56.3349 23.0607 55.4987 23.4936C52.6021 24.9915 51.4637 28.5668 52.9607 31.4639C52.9674 31.4768 52.9743 31.4895 52.9815 31.5022L54.962 35.009C55.952 36.7629 56.2129 38.8548 55.6963 40.899C55.1934 42.8878 55.4671 44.9739 56.4674 46.7731C57.9296 49.4012 60.6606 50.8993 63.4885 50.8992C63.6449 50.8992 78.7428 50.8847 78.7428 50.8847C79.39 50.8847 79.9146 50.36 79.9146 49.7128V32.655C79.9145 32.0078 79.3898 31.4831 78.7426 31.4831ZM58.5154 45.6339C57.8065 44.3587 57.6121 42.8812 57.9684 41.4734C58.6331 38.8423 58.2903 36.1375 57.0026 33.8565L55.0335 30.3698C54.1435 28.6239 54.8323 26.4767 56.5754 25.5753C57.0878 25.3103 57.6381 25.1757 58.211 25.1757C59.554 25.1757 60.771 25.9161 61.3873 27.1079C61.3937 27.1204 61.4003 27.1326 61.4071 27.1448L65.7624 34.8759C66.0803 35.4397 66.7946 35.6393 67.3587 35.3218C67.9226 35.0042 68.1221 34.2895 67.8046 33.7256L65.6478 29.8968L66.7728 27.029C66.9126 26.6726 66.8695 26.2704 66.6573 25.9517L60.3484 16.4743C59.8699 15.7556 59.699 14.8918 59.867 14.0428C60.0179 13.2812 60.4373 12.5979 61.0481 12.119C61.7732 11.55 62.6732 11.3195 63.5829 11.4701C64.4926 11.6206 65.2707 12.129 65.774 12.9012L72.5103 23.2425C73.1943 24.2925 73.4398 25.5459 73.2021 26.7743L69.0782 43.9173C69.0745 43.9328 69.071 43.9484 69.0681 43.964C68.9017 44.8053 68.5407 45.6122 68.0243 46.2967C67.4834 47.0131 66.7949 47.5787 65.9785 47.9773C63.2626 49.3034 59.9843 48.2739 58.5154 45.6339ZM77.5707 48.5409H69.1682C69.427 48.2815 69.671 48.0054 69.8951 47.7084C70.6185 46.7492 71.1256 45.6206 71.3623 44.4431L73.916 33.8267H77.5707V48.5409Z" fill="#FF0000"/>
</g>
<defs>
<clipPath id="clip0">
<rect width="80" height="80" fill="white"/>
</clipPath>
</defs>
</svg>
