<svg width="80" height="80" viewBox="0 0 80 80" fill="none" xmlns="http://www.w3.org/2000/svg">
<g clip-path="url(#clip0)">
<path d="M79.1319 64.6153L62.6794 48.163C62.1192 47.6028 61.3747 47.2945 60.5825 47.2945C60.0345 47.2945 59.5111 47.4451 59.0539 47.7215L49.8111 38.4787C49.3373 38.0051 48.5694 38.0051 48.0956 38.4787C47.622 38.9523 47.622 39.7204 48.0956 40.194L57.275 49.3734L53.8933 52.7551L37.0564 35.9183L40.4381 32.5365L42.6911 34.7892C43.1645 35.2629 43.9327 35.2628 44.4064 34.7892C44.88 34.3154 44.88 33.5475 44.4062 33.0739L42.1534 30.8212L48.0161 24.9586L48.48 25.4225C49.0561 25.9987 49.8223 26.3161 50.6375 26.3161C51.4525 26.3161 52.2186 25.9987 52.795 25.4225L54.9559 23.2615C55.532 22.6853 55.8495 21.919 55.8495 21.1042C55.8495 20.2892 55.532 19.5229 54.9559 18.9469L38.3752 2.36592C37.7991 1.78967 37.0328 1.47217 36.2177 1.47217C35.4027 1.47217 34.6366 1.78951 34.0605 2.36576L31.8994 4.5267C31.3231 5.10295 31.0056 5.86904 31.0056 6.6842C31.0056 7.49904 31.3231 8.26529 31.8992 8.84154L32.3631 9.30545L13.8253 27.8433L13.3614 27.3794C12.1719 26.19 10.2362 26.19 9.04672 27.3795L6.88578 29.5404C6.30969 30.1167 5.99219 30.8829 5.99219 31.6978C5.99219 32.5128 6.30969 33.279 6.88578 33.8551L23.4663 50.4358C24.0425 51.012 24.8088 51.3294 25.6238 51.3294C26.4388 51.3294 27.2048 51.012 27.7811 50.4358L29.9422 48.2748C29.9423 48.2748 29.9423 48.2748 29.9423 48.2748C31.1316 47.0853 31.1317 45.1498 29.9423 43.9601L29.4784 43.4962L35.3409 37.6337L52.2414 54.5342C51.965 54.9914 51.8144 55.5148 51.8144 56.0628C51.8144 56.8548 52.1228 57.5995 52.6828 58.1597L69.1352 74.612C69.6953 75.1722 70.4398 75.4805 71.2322 75.4805C72.0242 75.4805 72.7687 75.172 73.3291 74.612L79.1319 68.8092C79.6919 68.2492 80.0003 67.5045 80.0003 66.7123C80.0003 65.9201 79.6919 65.1753 79.1319 64.6153ZM33.6147 6.24217L35.7759 4.08107C35.8939 3.96311 36.0509 3.89811 36.2177 3.89811C36.3845 3.89811 36.5416 3.96311 36.6595 4.08123L53.2403 20.6619C53.3583 20.7798 53.4234 20.9369 53.4234 21.1037C53.4234 21.2706 53.3584 21.4276 53.2402 21.5458L51.0794 23.7067C50.8431 23.9428 50.4314 23.9429 50.1953 23.7069L33.6148 7.12623C33.4967 7.0081 33.4316 6.85123 33.4316 6.6842C33.4316 6.51717 33.4967 6.36045 33.6147 6.24217ZM28.2269 46.5594L26.0656 48.7203C25.8297 48.9564 25.4178 48.9564 25.1817 48.7203L8.60109 32.1397C8.48312 32.0217 8.41797 31.8647 8.41797 31.6978C8.41797 31.5309 8.48297 31.3739 8.60125 31.2558L10.762 29.0948C10.8839 28.9729 11.0439 28.912 11.2041 28.912C11.3642 28.912 11.5242 28.9729 11.6459 29.0948L28.2266 45.6753C28.4703 45.919 28.4703 46.3155 28.2269 46.5594ZM34.4831 35.0604C34.483 35.0606 34.483 35.0606 34.4828 35.0608L27.7628 41.7808L15.5406 29.5587L34.0786 11.0211L46.3006 23.2431L39.5814 29.9622C39.5809 29.9626 39.5805 29.9629 39.58 29.9634L34.4831 35.0604ZM77.4163 67.0936L71.6134 72.8964C71.4761 73.0339 71.3156 73.0544 71.2322 73.0544C71.1486 73.0544 70.9881 73.0339 70.8508 72.8964L54.3984 56.4439C54.2609 56.3064 54.2403 56.1459 54.2403 56.0625C54.2403 55.979 54.2608 55.8186 54.3984 55.6811L54.7513 55.3283L60.2011 49.8783C60.3384 49.7408 60.4989 49.7203 60.5825 49.7203C60.6659 49.7203 60.8264 49.7408 60.9637 49.8783L77.4163 66.3306C77.5537 66.4681 77.5744 66.6286 77.5744 66.712C77.5744 66.7954 77.5537 66.9561 77.4163 67.0936Z" fill="#00278C"/>
<path d="M46.0672 67.7759H44.2088V61.384C44.2088 59.9581 43.0489 58.7981 41.623 58.7981H20.7141C20.0441 58.7981 19.5011 59.3412 19.5011 60.0111C19.5011 60.6809 20.0441 61.224 20.7141 61.224H41.623C41.7111 61.224 41.7828 61.2958 41.7828 61.3839V67.7758H9.55328V61.3839C9.55328 61.2956 9.625 61.224 9.71313 61.224H13.0928C13.7628 61.224 14.3058 60.6809 14.3058 60.0111C14.3058 59.3412 13.7628 58.7981 13.0928 58.7981H9.71313C8.28719 58.7981 7.12734 59.9581 7.12734 61.384V67.7759H5.26891C2.36359 67.7759 0 70.1395 0 73.0448V76.4984C0 77.6175 0.910312 78.5278 2.02938 78.5278H49.3067C50.4258 78.5278 51.3361 77.6175 51.3361 76.4984V73.0448C51.3361 70.1395 48.9725 67.7759 46.0672 67.7759ZM48.9103 76.1018H2.42594V73.0448C2.42594 71.4773 3.70125 70.2018 5.26891 70.2018H46.0673C47.6348 70.2018 48.9103 71.4772 48.9103 73.0448V76.1018Z" fill="#00278C"/>
</g>
<defs>
<clipPath id="clip0">
<rect width="80" height="80" fill="white"/>
</clipPath>
</defs>
</svg>
