<svg id="Capa_1" data-name="Capa 1" xmlns="http://www.w3.org/2000/svg" viewBox="0 0 512 512"><defs><style>.cls-1{fill:#099365;}</style></defs><path class="cls-1" d="M376.28,441.14H100.52c-18,0-27.12-9.09-27.14-27.09q0-35.4,0-70.81V337.7H57.75c-.13,1.21-.31,2.12-.31,3,0,25.17-.07,50.34.05,75.51a43.28,43.28,0,0,0,1.32,11.12c5.12,18.84,20.12,29.7,40.93,29.7q135.8,0,271.6,0c1.63,0,3.27-.15,4.94-.23ZM456,361.25c.09-1.74.22-3.11.22-4.48q0-128,0-256a48.23,48.23,0,0,0-1.36-12c-5-19.12-19.58-30.14-39.94-30.23-27.36-.12-54.72,0-82.08,0-1.34,0-2.67.19-3.83.27V74.37h5.4q40.34,0,80.67,0c10.51,0,18.72,4.11,22.86,13.94,1.76,4.16,2.28,9.11,2.29,13.7q.19,126.6.09,253.22v6ZM336.25,401.51H89.61V416.7H336.25Zm-32-31.9H89.61V385H304.23ZM424.05,98.46H352.63v15.33h71.42ZM424,153.84V138.5H368.6v15.34Zm.08,79.82V218.15H368.67v15.51Zm0-55.48H368.58v15.36h55.48Zm-55.48,95.09h55.47V258H368.58ZM424,313.4V297.88H376.82V313.4Z"/><path class="cls-1" d="M455.42,496.53c-11.06-2.26-19.21-8.95-26.93-16.77q-37.39-37.89-75.29-75.27c-6-5.9-9-12.48-8.74-20.85a9.2,9.2,0,0,0-1.85-5.88q-26-29.64-52.2-59c-.5-.57-1.1-1.05-1.87-1.78-42.26,31.76-89.29,43.23-141,32-39.66-8.64-72-29.72-96.55-62C-.73,219.06,5.54,123.62,67.6,63.69c57-55,146-64.11,213.29-17,37.83,26.52,61.18,63,69.24,108.49,8,45.21-1.58,87.16-27.22,125.55l28.46,32.05c8.83,9.93,17.57,19.94,26.59,29.7a9.53,9.53,0,0,0,6.28,2.8,26.25,26.25,0,0,1,19.33,8.08q40.47,40.13,81,80.21c10.25,10.11,13.82,22.29,10.25,36C491,484,481,492.49,466.51,495.83a11.38,11.38,0,0,0-1.71.7ZM185,34.37C100.91,35.12,34,101.44,33.44,185.86c-.5,83.29,67.78,151.34,151.43,151.49,83.48.16,151.48-67.77,151.53-151.35S268.61,34.58,185,34.37Zm174.2,350.44c1.9,3.32,3.13,6.91,5.51,9.38,10.84,11.24,22,22.17,33,33.21,15.68,15.68,31.29,31.44,47.09,47,8.68,8.53,22,8.57,30,.47,7.7-7.77,7.54-20.12-.9-28.62q-40.59-40.9-81.47-81.53c-4.94-4.92-11.51-4.71-16.43.19-4.31,4.31-8.74,8.5-12.86,13C361.66,379.56,360.86,381.89,359.22,384.81Zm6-31.41-52.55-58.92c-4.13,4.43-7.94,8.51-11.95,12.79C318,326.72,335.21,346,352.46,365.34Z"/><path class="cls-1" d="M376.28,444.25v9.66a3.11,3.11,0,0,1-3,3.11c-.66,0-1.32.06-2,.06q-135.81,0-271.6,0c-20.81,0-35.81-10.86-40.93-29.7a43.28,43.28,0,0,1-1.32-11.12c-.12-25.17-.07-50.34-.05-75.51v0a3.08,3.08,0,0,1,3.11-3h9.71a3.12,3.12,0,0,1,3.12,3.11v2.43q0,35.4,0,70.81c0,18,9.12,27.08,27.14,27.09H373.17A3.11,3.11,0,0,1,376.28,444.25Z"/><path class="cls-1" d="M456,361.25H440.25v-6q0-126.62-.09-253.22c0-4.59-.53-9.54-2.29-13.7-4.14-9.83-12.35-14-22.86-13.94q-40.33,0-80.67,0h-5.4V58.7c1.16-.08,2.49-.27,3.83-.27,27.36,0,54.72-.1,82.08,0,20.36.09,34.91,11.11,39.94,30.23a48.23,48.23,0,0,1,1.36,12q.11,128,0,256C456.19,358.14,456.06,359.51,456,361.25Z"/><path class="cls-1" d="M336.25,401.51V416.7H89.61V401.51Z"/><path class="cls-1" d="M304.23,369.61V385H89.61V369.61Z"/><path class="cls-1" d="M424.05,98.46v15.33H352.63V98.46Z"/><path class="cls-1" d="M424,153.84H368.6V138.5H424Z"/><path class="cls-1" d="M424,233.66H368.67V218.15H424Z"/><path class="cls-1" d="M424.06,178.18v15.36H368.58V178.18Z"/><path class="cls-1" d="M368.58,273.27V258h55.47v15.32Z"/><path class="cls-1" d="M424,313.4H376.82V297.88H424Z"/><path class="cls-1" d="M184.77,50.35c75.59.43,135.28,60.68,135.68,135.17.4,74.72-60.14,135.59-135.33,135.85-74.6.26-135.1-59.9-135.79-135C48.64,112.05,109.56,50.88,184.77,50.35ZM65.28,186a119.6,119.6,0,0,0,239.2-.21C304.33,119.67,250.62,66,184.85,66.29,118.67,66.6,65.17,120.18,65.28,186Z"/><path class="cls-1" d="M284.05,185.79c-9.29,13.06-21.09,22.27-34.22,29.6-36.79,20.55-74.92,22.91-114,7-18.1-7.4-33.1-19.22-46.09-33.73-1.75-2-2.35-3.74-.41-5.6,6.93-6.67,13.38-14,21.07-19.69,23-16.91,49.22-24.81,77.73-23.92,32.16,1,60.15,12.68,83.76,34.63C275.92,177.75,279.77,181.63,284.05,185.79Zm-21.89.12a110.17,110.17,0,0,0-63.35-29.54c11.53,6.71,18.59,16.13,18.32,29.9s-7.42,23-20.41,29.79C222.61,212.67,243.79,202.69,262.16,185.91ZM107.72,186c17.8,16.5,38.24,26.15,61.8,29.16-24.68-15.84-21.12-47.06,3.09-59.24C147.31,159.15,126.23,169.16,107.72,186Zm61.41.16A16,16,0,0,0,185,201.9,16.3,16.3,0,0,0,200.92,186a16.07,16.07,0,0,0-16.29-15.89A15.75,15.75,0,0,0,169.13,186.14Z"/><path class="cls-1" d="M240.46,106.5v15.44H129.4V106.5Z"/><path class="cls-1" d="M129.3,265.4V250.1H240.47v15.3Z"/></svg>