<?xml version="1.0" encoding="utf-8"?>
<!-- Generator: Adobe Illustrator 24.1.1, SVG Export Plug-In . SVG Version: 6.00 Build 0)  -->
<svg version="1.1" id="content_1_" xmlns="http://www.w3.org/2000/svg" xmlns:xlink="http://www.w3.org/1999/xlink" x="0px" y="0px"
	 viewBox="0 0 160 160" style="enable-background:new 0 0 160 160;" xml:space="preserve">
<style type="text/css">
	.st0{fill:#F05757;}
	.st1{fill:#F5F1E3;}
</style>
<g>
	<g>
		<path class="st0" d="M95.74,93.27L90.9,73l-8.4,37.78c-0.25,1.12-1.21,1.94-2.36,2.01c-0.05,0-0.11,0.01-0.16,0.01
			c-1.08,0-2.06-0.68-2.43-1.71L65.99,78.6l-7.25,15.17c-0.43,0.9-1.33,1.47-2.32,1.47H36.02c17.39,17.38,43.89,43.86,43.89,43.86
			l0.22-0.22l0.2,0.21l43.86-43.85H98.25C97.06,95.24,96.02,94.43,95.74,93.27z"/>
		<path class="st0" d="M64.01,70.79c0.45-0.94,1.42-1.51,2.46-1.46c1.04,0.05,1.94,0.73,2.29,1.71l10.66,29.9l8.88-39.97
			c0.26-1.17,1.29-2.01,2.49-2.02c0.01,0,0.01,0,0.02,0c1.19,0,2.23,0.82,2.51,1.98l6.96,29.16h29.06l10.15-10.15l-0.12-0.12
			c13.02-13.66,12.83-35.29-0.59-48.71c-13.62-13.63-35.71-13.63-49.33,0c-4.96,4.96-8.1,11.04-9.45,17.42
			c-1.35-6.38-4.49-12.46-9.45-17.42c-13.62-13.63-35.71-13.63-49.34,0c-13.62,13.62-13.62,35.71,0,49.33
			c0.13,0.13,3.98,3.98,9.65,9.64h23.92L64.01,70.79z"/>
		<path class="st1" d="M100.28,90.09l-6.96-29.16c-0.28-1.16-1.31-1.98-2.51-1.98c-0.01,0-0.01,0-0.02,0
			c-1.2,0.01-2.24,0.85-2.49,2.02l-8.88,39.97l-10.66-29.9c-0.35-0.98-1.25-1.65-2.29-1.71c-1.04-0.04-2.01,0.52-2.46,1.46
			l-9.22,19.3H30.86c1.59,1.59,3.32,3.32,5.16,5.15h20.39c0.99,0,1.9-0.57,2.32-1.47l7.25-15.17l11.58,32.49
			c0.37,1.03,1.34,1.71,2.43,1.71c0.05,0,0.11,0,0.16-0.01c1.15-0.07,2.11-0.89,2.36-2.01L90.9,73l4.84,20.26
			c0.28,1.16,1.31,1.98,2.51,1.98h25.94l5.15-5.15H100.28z"/>
	</g>
</g>
</svg>
