<svg width="124" height="124" viewBox="0 0 124 124" fill="none" xmlns="http://www.w3.org/2000/svg">
<path d="M50.4257 48.2784H55.6717C56.147 48.2784 56.6029 48.4673 56.939 48.8034C57.2751 49.1395 57.464 49.5954 57.464 50.0707V57.7234H48.6392V50.0707C48.6392 49.5964 48.8272 49.1413 49.1621 48.8054C49.497 48.4694 49.9514 48.2799 50.4257 48.2784Z" fill="#27273D"/>
<path d="M57.9904 37.0839C57.9904 36.8289 57.8891 36.5843 57.7088 36.4039C57.5285 36.2236 57.2839 36.1223 57.0289 36.1223H53.157C52.9474 36.1223 52.7399 36.1636 52.5463 36.2438C52.3526 36.324 52.1767 36.4416 52.0285 36.5898C51.8803 36.738 51.7627 36.9139 51.6825 37.1075C51.6023 37.3012 51.561 37.5087 51.561 37.7183V49.9512H54.5339V39.0952H57.0289C57.2839 39.0952 57.5285 38.9939 57.7088 38.8136C57.8891 38.6332 57.9904 38.3887 57.9904 38.1336V37.0839Z" fill="#27273D"/>
<path d="M101.44 60.6281C101.44 60.6281 110.995 77.9818 118.113 80.9433L112.364 84.4396C112.364 84.4396 100.765 77.0174 100.896 76.0217C101.027 75.026 99.9687 67.8057 100.367 67.0745C100.765 66.3434 101.44 60.6281 101.44 60.6281Z" fill="#32314B"/>
<path d="M82.4727 69.0005H45.3955V53.4362L82.4727 61.2198V69.0005Z" fill="#32314B"/>
<path d="M22.2237 36.1223H41.6087C42.6137 36.1223 43.5775 36.5216 44.2882 37.2322C44.9988 37.9428 45.3981 38.9067 45.3981 39.9117V59.5584H11.9907V46.3525C11.9937 43.6397 13.0729 41.0389 14.9914 39.121C16.9099 37.203 19.511 36.1246 22.2237 36.1223Z" fill="#F7BB38"/>
<path d="M20.3009 31.5762H23.6237C24.0183 31.5762 24.3967 31.733 24.6757 32.012C24.9548 32.291 25.1115 32.6695 25.1115 33.0641V59.5612H18.813V33.0612C18.8137 32.6671 18.9708 32.2894 19.2498 32.011C19.5287 31.7326 19.9067 31.5762 20.3009 31.5762Z" fill="#E0A836"/>
<path d="M25.1089 50.8133H43.1226V59.5584H25.1089V50.8133Z" fill="#32314B"/>
<path d="M43.1227 43.263V53.0977L36.406 52.3068L32.1387 51.809L25.1118 50.9896V38.5718H38.4344C39.0505 38.5714 39.6607 38.6925 40.23 38.9281C40.7994 39.1637 41.3167 39.5093 41.7524 39.9449C42.1881 40.3806 42.5336 40.8979 42.7692 41.4673C43.0048 42.0366 43.1259 42.6468 43.1256 43.263H43.1227Z" fill="#7CC8FB"/>
<path d="M11.9907 62.5313H82.4724V82.1183H11.9907V62.5313Z" fill="#F7BB38"/>
<path d="M74.1044 51.4884C73.0519 50.6375 71.5094 50.8004 70.6589 51.8522C69.8085 52.9041 69.9723 54.4466 71.0248 55.2975L88.054 69.0653C89.1065 69.9162 90.6491 69.7533 91.4995 68.7015C92.3499 67.6496 92.1861 66.1071 91.1336 65.2562L74.1044 51.4884Z" fill="#E88032"/>
<path d="M71.3922 71.6726C70.1219 72.1366 69.4681 73.5419 69.9318 74.8114C70.3956 76.0809 71.8012 76.7339 73.0715 76.2699L93.6248 68.7622C94.895 68.2982 95.5488 66.8929 95.0851 65.6234C94.6214 64.3539 93.2157 63.7009 91.9454 64.1649L71.3922 71.6726Z" fill="#E0A836"/>
<path d="M8.74232 71.999L20.2413 69.2509C20.6865 69.1429 21.143 69.0885 21.6011 69.0887H44.8011C45.1976 69.0887 45.5932 69.1288 45.9817 69.2082L72.8686 74.7443C73.9687 74.9558 74.996 75.4461 75.8523 76.1684C76.7086 76.8907 77.3651 77.8207 77.7589 78.8694C78.0927 79.7785 78.1858 80.7585 78.0292 81.7143C77.5541 84.6502 74.8998 86.744 71.9269 86.744H9.19181C7.44807 86.7672 5.74632 86.2087 4.35553 85.1566C2.88189 84.0186 1.55618 82.141 1.99713 79.1823C2.27885 77.4496 3.07126 75.8405 4.27291 74.5608C5.47455 73.2811 7.03076 72.3891 8.74232 71.999Z" fill="#A65C3B"/>
<path d="M77.6562 82.6588C77.17 83.7718 76.368 84.7177 75.3497 85.3796C74.3313 86.0415 73.1412 86.3903 71.9267 86.3827H9.19151C7.4477 86.4034 5.74646 85.844 4.35523 84.7924C2.88727 83.6545 1.56156 81.7769 2.00252 78.8182C2.28253 77.0872 3.07218 75.479 4.27061 74.199C5.46904 72.919 7.02183 72.0253 8.73064 71.632L11.6978 70.9236C10.7059 72.114 10.0595 73.5535 9.82876 75.0857C9.38781 78.0501 10.7135 79.922 12.1872 81.0599C13.5777 82.1129 15.2794 82.6724 17.0234 82.6502L77.6562 82.6588Z" fill="#9E4830"/>
<path d="M48.0211 73.723H20.5624C18.534 73.723 16.8896 75.3674 16.8896 77.3958V78.4455C16.8896 80.4739 18.534 82.1182 20.5624 82.1182H48.0211C50.0495 82.1182 51.6938 80.4739 51.6938 78.4455V77.3958C51.6938 75.3674 50.0495 73.723 48.0211 73.723Z" fill="#E88032"/>
<path d="M51.2899 79.9874C50.981 80.5886 50.512 81.0928 49.9347 81.4442C49.3574 81.7956 48.6941 81.9806 48.0183 81.9788H20.5624C19.5903 81.9788 18.6578 81.5935 17.9694 80.9071C17.2809 80.2208 16.8927 79.2896 16.8896 78.3175V77.2791C16.8905 76.5427 17.1125 75.8236 17.527 75.2149C17.9414 74.6061 18.5291 74.136 19.2139 73.8652C18.9481 74.3816 18.8105 74.9544 18.8128 75.5352V76.5849C18.8128 77.0673 18.9078 77.5448 19.0924 77.9904C19.2769 78.436 19.5475 78.8409 19.8885 79.182C20.2295 79.523 20.6344 79.7935 21.08 79.9781C21.5256 80.1627 22.0032 80.2577 22.4855 80.2577H49.9442C50.4058 80.2537 50.8625 80.162 51.2899 79.9874Z" fill="#D17333"/>
<path d="M11.0296 83.8678C13.4932 83.8678 15.4904 81.8707 15.4904 79.4071C15.4904 76.9435 13.4932 74.9463 11.0296 74.9463C8.566 74.9463 6.56885 76.9435 6.56885 79.4071C6.56885 81.8707 8.566 83.8678 11.0296 83.8678Z" fill="#F7BB38"/>
<path d="M79.5711 78.1325C79.0616 76.7754 78.2142 75.5709 77.1089 74.6329C76.0037 73.695 74.6773 73.0547 73.2554 72.7728L49.2504 67.8313C49.2744 67.75 49.2869 67.6657 49.2874 67.5809V66.5738C49.2874 66.4505 49.2631 66.3285 49.2159 66.2146C49.1688 66.1006 49.0996 65.9972 49.0124 65.91C48.9252 65.8228 48.8218 65.7536 48.7079 65.7065C48.5939 65.6593 48.4719 65.635 48.3486 65.635H47.168C46.9187 65.635 46.6796 65.7338 46.5031 65.9098C46.3266 66.0858 46.2271 66.3246 46.2263 66.5738V67.2111C45.7571 67.1241 45.2811 67.0793 44.8039 67.0774H43.9134V66.5738C43.9127 66.3246 43.8131 66.0858 43.6366 65.9098C43.4601 65.7338 43.221 65.635 42.9718 65.635H41.7911C41.5422 65.635 41.3034 65.7339 41.1273 65.91C40.9513 66.086 40.8523 66.3248 40.8523 66.5738V67.0774H38.5338V66.5738C38.5338 66.4505 38.5095 66.3285 38.4623 66.2146C38.4151 66.1006 38.346 65.9972 38.2588 65.91C38.1716 65.8228 38.0681 65.7536 37.9542 65.7065C37.8403 65.6593 37.7182 65.635 37.595 65.635H36.4058C36.2825 65.635 36.1604 65.6593 36.0465 65.7065C35.9326 65.7536 35.8291 65.8228 35.742 65.91C35.6548 65.9972 35.5856 66.1006 35.5385 66.2146C35.4913 66.3285 35.467 66.4505 35.467 66.5738V67.0774H33.1484V66.5738C33.1484 66.4505 33.1241 66.3285 33.077 66.2146C33.0298 66.1006 32.9606 65.9972 32.8735 65.91C32.7863 65.8228 32.6828 65.7536 32.5689 65.7065C32.455 65.6593 32.3329 65.635 32.2096 65.635H31.029C30.7798 65.635 30.5407 65.7338 30.3642 65.9098C30.1876 66.0858 30.0881 66.3246 30.0873 66.5738V67.0774H27.7716V66.5738C27.7709 66.3246 27.6713 66.0858 27.4948 65.9098C27.3183 65.7338 27.0792 65.635 26.83 65.635H25.6493C25.4004 65.635 25.1616 65.7339 24.9855 65.91C24.8094 66.086 24.7105 66.3248 24.7105 66.5738V67.0774H22.392V66.5738C22.392 66.3248 22.2931 66.086 22.117 65.91C21.9409 65.7339 21.7021 65.635 21.4532 65.635H20.2725C20.0233 65.635 19.7842 65.7338 19.6077 65.9098C19.4312 66.0858 19.3316 66.3246 19.3309 66.5738V67.3988L8.28993 70.0417C4.02262 71.0602 0.733949 74.5935 0.105232 78.8125C-0.361327 81.9418 0.733949 84.6957 3.18338 86.596C4.74578 87.7816 6.62975 88.4678 8.58864 88.5647V89.2275C8.58864 89.4765 8.68755 89.7153 8.86361 89.8914C9.03967 90.0674 9.27846 90.1663 9.52745 90.1663H10.7081C10.8321 90.1675 10.9551 90.144 11.07 90.0974C11.1848 90.0507 11.2894 89.9817 11.3774 89.8944C11.4655 89.8071 11.5354 89.7033 11.5831 89.5888C11.6309 89.4743 11.6554 89.3516 11.6554 89.2275V88.5931H13.9598V89.2275C13.9598 89.4765 14.0587 89.7153 14.2347 89.8914C14.4108 90.0674 14.6496 90.1663 14.8986 90.1663H16.0792C16.3284 90.1664 16.5675 90.0675 16.744 89.8916C16.9206 89.7156 17.0201 89.4768 17.0208 89.2275V88.5931H19.3366V89.2275C19.3373 89.4768 19.4369 89.7156 19.6134 89.8916C19.7899 90.0675 20.029 90.1664 20.2782 90.1663H21.4588C21.7078 90.1663 21.9466 90.0674 22.1227 89.8914C22.2987 89.7153 22.3977 89.4765 22.3977 89.2275V88.5931H24.7162V89.2275C24.7162 89.4765 24.8151 89.7153 24.9912 89.8914C25.1673 90.0674 25.406 90.1663 25.655 90.1663H26.8357C27.0849 90.1664 27.324 90.0675 27.5005 89.8916C27.677 89.7156 27.7766 89.4768 27.7773 89.2275V88.5931H30.093V89.2275C30.0938 89.4768 30.1933 89.7156 30.3698 89.8916C30.5464 90.0675 30.7854 90.1664 31.0347 90.1663H32.2153C32.4643 90.1663 32.7031 90.0674 32.8792 89.8914C33.0552 89.7153 33.1541 89.4765 33.1541 89.2275V88.5931H35.4727V89.2275C35.4727 89.4765 35.5716 89.7153 35.7477 89.8914C35.9237 90.0674 36.1625 90.1663 36.4115 90.1663H37.5921C37.7154 90.1663 37.8375 90.1421 37.9514 90.0949C38.0653 90.0477 38.1688 89.9786 38.256 89.8914C38.3431 89.8042 38.4123 89.7007 38.4595 89.5868C38.5066 89.4729 38.5309 89.3508 38.5309 89.2275V88.5931H40.8495V89.2275C40.8495 89.4765 40.9484 89.7153 41.1245 89.8914C41.3005 90.0674 41.5393 90.1663 41.7883 90.1663H42.9689C43.2182 90.1664 43.4573 90.0675 43.6338 89.8916C43.8103 89.7156 43.9098 89.4768 43.9106 89.2275V88.5931H46.2263V89.2275C46.2271 89.4768 46.3266 89.7156 46.5031 89.8916C46.6796 90.0675 46.9187 90.1664 47.168 90.1663H48.3543C48.6033 90.1663 48.842 90.0674 49.0181 89.8914C49.1942 89.7153 49.2931 89.4765 49.2931 89.2275V88.5931H51.6117V89.2275C51.6117 89.4765 51.7106 89.7153 51.8866 89.8914C52.0627 90.0674 52.3015 90.1663 52.5505 90.1663H53.7311C53.9803 90.1664 54.2194 90.0675 54.3959 89.8916C54.5724 89.7156 54.672 89.4768 54.6727 89.2275V88.5931H56.9885V89.2275C56.9892 89.4768 57.0888 89.7156 57.2653 89.8916C57.4418 90.0675 57.6809 90.1664 57.9301 90.1663H59.1107C59.3597 90.1663 59.5985 90.0674 59.7746 89.8914C59.9506 89.7153 60.0495 89.4765 60.0495 89.2275V88.5931H62.3681V89.2275C62.3681 89.4765 62.467 89.7153 62.6431 89.8914C62.8191 90.0674 63.0579 90.1663 63.3069 90.1663H64.4875C64.736 90.1656 64.9741 90.0664 65.1495 89.8904C65.325 89.7144 65.4235 89.476 65.4235 89.2275V88.5931H67.7421V89.2275C67.7421 89.4765 67.841 89.7153 68.0171 89.8914C68.1931 90.0674 68.4319 90.1663 68.6809 90.1663H69.8615C70.1108 90.1664 70.3498 90.0675 70.5264 89.8916C70.7029 89.7156 70.8024 89.4768 70.8032 89.2275V88.5931H71.9411C75.8898 88.5931 79.3378 85.734 79.9437 81.9447C80.1486 80.663 80.0203 79.3502 79.5711 78.1325ZM76.1316 81.3273C75.8158 83.2732 74.0093 84.7412 71.9269 84.7412H9.19176C7.87942 84.7584 6.5982 84.3413 5.54747 83.5549C4.18762 82.5023 3.65279 81.1367 3.91452 79.3814C4.31564 76.6902 6.43507 74.4427 9.18891 73.7827L20.6879 71.0346C20.9868 70.9617 21.2934 70.9254 21.6011 70.9265H44.801C45.0667 70.9259 45.3317 70.9526 45.5919 71.0061L72.4788 76.5423C73.2552 76.6885 73.9815 77.0304 74.5888 77.5357C75.1961 78.041 75.6645 78.693 75.9495 79.4298C76.1734 80.0359 76.2362 80.6897 76.1316 81.3273Z" fill="#32314B"/>
<path d="M95.3322 75.3844H49.507C48.107 75.3844 46.9722 76.5193 46.9722 77.9192V77.9221C46.9722 79.322 48.107 80.4568 49.507 80.4568H95.3322C96.7321 80.4568 97.867 79.322 97.867 77.9221V77.9192C97.867 76.5193 96.7321 75.3844 95.3322 75.3844Z" fill="#F7BB38"/>
<path d="M97.6869 78.8068C97.4994 79.2793 97.1743 79.6846 96.7538 79.9701C96.3333 80.2557 95.8368 80.4084 95.3285 80.4085H49.5061C48.8944 80.4086 48.3033 80.1876 47.8419 79.7861C47.3804 79.3847 47.0796 78.8299 46.995 78.2241C46.9105 77.6183 47.0478 77.0024 47.3817 76.4899C47.7157 75.9774 48.2236 75.603 48.812 75.4356C48.6923 75.7331 48.6314 76.051 48.6327 76.3716C48.632 76.7045 48.697 77.0344 48.8242 77.3421C48.9513 77.6498 49.1381 77.9293 49.3736 78.1646C49.6092 78.3999 49.889 78.5863 50.1968 78.7131C50.5047 78.84 50.8346 78.9047 51.1675 78.9035H97.0013C97.2331 78.9025 97.4638 78.8699 97.6869 78.8068Z" fill="#E0A836"/>
<path d="M123.24 85.2675H100.924C100.086 85.2683 99.2554 85.1036 98.4805 84.7831C97.7057 84.4625 97.0016 83.9923 96.4087 83.3994C95.8157 82.8064 95.3455 82.1024 95.025 81.3275C94.7044 80.5526 94.5398 79.7222 94.5405 78.8836V67.5269C94.5405 65.6972 95.2674 63.9424 96.5611 62.6487C97.8549 61.3549 99.6097 60.6281 101.439 60.6281C101.439 60.6281 102.933 67.3932 104.811 71.1086C106.03 73.574 107.632 75.8305 109.559 77.794C112.554 80.7783 115.795 82.1154 118.113 80.9433C118.682 80.6588 121.629 82.508 123.666 83.8792C123.801 83.9704 123.903 84.1024 123.957 84.2558C124.011 84.4091 124.014 84.5757 123.966 84.7311C123.918 84.8865 123.822 85.0225 123.691 85.119C123.56 85.2156 123.402 85.2676 123.24 85.2675Z" fill="#F7BB38"/>
<path d="M123.24 85.2675H100.925C99.4186 85.2671 97.961 84.7344 96.8096 83.7636C95.6581 82.7927 94.8868 81.4462 94.6318 79.9618C97.9177 78.5536 102.213 77.7058 106.916 77.7058C107.812 77.7058 108.694 77.7371 109.559 77.794C112.555 80.7783 115.795 82.1154 118.113 80.9433C118.682 80.6588 121.63 82.508 123.667 83.8792C123.801 83.9704 123.903 84.1024 123.957 84.2557C124.011 84.4091 124.014 84.5757 123.966 84.7311C123.919 84.8865 123.822 85.0224 123.692 85.119C123.561 85.2155 123.402 85.2676 123.24 85.2675Z" fill="#DBA231"/>
<path d="M47.6826 58.722H6.90707C5.75539 58.722 4.82178 59.6556 4.82178 60.8073V61.2027C4.82178 62.3544 5.75539 63.288 6.90707 63.288H47.6826C48.8343 63.288 49.7679 62.3544 49.7679 61.2027V60.8073C49.7679 59.6556 48.8343 58.722 47.6826 58.722Z" fill="#E88032"/>
<path d="M21.5296 76.0217C22.7991 76.0217 23.8283 74.9925 23.8283 73.723C23.8283 72.4535 22.7991 71.4244 21.5296 71.4244C20.2601 71.4244 19.231 72.4535 19.231 73.723C19.231 74.9925 20.2601 76.0217 21.5296 76.0217Z" fill="#F7BB38"/>
<path d="M46.3348 76.0217C47.6043 76.0217 48.6334 74.9925 48.6334 73.723C48.6334 72.4535 47.6043 71.4244 46.3348 71.4244C45.0653 71.4244 44.0361 72.4535 44.0361 73.723C44.0361 74.9925 45.0653 76.0217 46.3348 76.0217Z" fill="#F7BB38"/>
<path d="M36.9407 38.5718L25.1089 50.4036V45.6242L32.1613 38.5718H36.9407Z" fill="#ADDDF7"/>
<path d="M43.1227 43.2629V45.6014L36.406 52.3068L32.1387 51.8089L42.6818 41.2687C42.974 41.8928 43.1245 42.5738 43.1227 43.2629Z" fill="#ADDDF7"/>
<path d="M32.2466 38.5718H35.3617V53.8886H32.2466V38.5718Z" fill="#32314B"/>
<path d="M69.5807 63.288H62.6023C61.9549 63.288 61.4302 63.8128 61.4302 64.4601V64.463C61.4302 65.1103 61.9549 65.6351 62.6023 65.6351H69.5807C70.2281 65.6351 70.7528 65.1103 70.7528 64.463V64.4601C70.7528 63.8128 70.2281 63.288 69.5807 63.288Z" fill="#A57A2F"/>
<path d="M69.5802 66.7417H62.6018C61.9544 66.7417 61.4297 67.2665 61.4297 67.9138V67.9166C61.4297 68.5639 61.9544 69.0887 62.6018 69.0887H69.5802C70.2276 69.0887 70.7523 68.5639 70.7523 67.9166V67.9138C70.7523 67.2665 70.2276 66.7417 69.5802 66.7417Z" fill="#A57A2F"/>
</svg>
