<svg width="66" height="82" viewBox="0 0 66 82" fill="none" xmlns="http://www.w3.org/2000/svg">
<path d="M22.0575 80.0972C21.4391 79.8712 20.8267 79.6333 20.2261 79.3717C20.8267 79.6333 21.4391 79.8712 22.0575 80.0972Z" fill="#00A3FF"/>
<path d="M18.0079 78.3133C17.443 78.016 16.8781 77.7068 16.3311 77.3738C16.8841 77.7008 17.443 78.01 18.0079 78.3133Z" fill="#00A3FF"/>
<path d="M19.894 79.2231C19.3945 79.003 18.9069 78.7711 18.4253 78.5214C18.9069 78.7711 19.4005 79.003 19.894 79.2231Z" fill="#00A3FF"/>
<path d="M32.9985 82C32.3147 82 31.6368 81.9703 30.9648 81.9286C31.6368 81.9762 32.3147 82 32.9985 82Z" fill="#00A3FF"/>
<path d="M58.9494 30.5047L58.9375 30.4869C58.0991 29.369 32.9996 0 32.9996 0C32.9996 0 7.90006 29.369 7.06163 30.4869L7.04973 30.5047C3.06569 35.8743 0.710938 42.5163 0.710938 49.7114C0.710938 61.4435 6.96649 71.7069 16.326 77.3618C13.0199 73.8951 10.4035 69.5127 9.01797 64.7556L8.56011 62.8944C8.48875 62.5852 8.39955 62.276 8.34604 61.9608L8.20927 61.0154C8.12008 60.3851 8.02493 59.7607 7.94763 59.1304C7.9179 58.4941 7.88817 57.8638 7.85249 57.2335L7.81087 56.288L7.85249 55.3485C7.88222 54.7241 7.91195 54.0998 7.94169 53.4754C8.01304 52.857 8.10818 52.2445 8.19738 51.632C8.28657 51.0196 8.35793 50.413 8.52443 49.8244C9.57693 45.0494 11.7295 40.7681 14.3816 37.4441C15.0297 36.5997 15.773 35.8683 16.4331 35.1131C17.1288 34.3758 17.9196 33.7276 18.6332 33.0795C19.4241 32.5086 20.1555 31.9199 20.9225 31.4442C21.7075 30.9983 22.427 30.5047 23.1881 30.1658C23.9433 29.8328 24.645 29.4522 25.3526 29.2084C26.0602 28.9646 26.7202 28.7208 27.3505 28.5246C28.629 28.2035 29.735 27.9181 30.6626 27.8229C31.1205 27.7575 31.5308 27.698 31.8876 27.6505C32.2444 27.6326 32.5476 27.6148 32.7914 27.6029C33.279 27.5791 33.5407 27.5672 33.5407 27.5672C33.5407 27.5672 33.7547 27.5553 34.165 27.5375C34.5753 27.5315 35.1878 27.5732 35.9668 27.6088C36.7517 27.6088 37.7031 27.7991 38.8091 27.9478C39.3621 28.031 39.9389 28.2035 40.5574 28.3462C40.8666 28.4294 41.1877 28.4889 41.5088 28.59C41.8299 28.703 42.1569 28.81 42.4899 28.9289C45.1598 29.8447 48.2222 31.4502 51.017 33.9952C52.4441 35.2083 53.7999 36.8376 54.9059 38.6393C56.0416 40.441 56.8979 42.5223 57.3855 44.7402C58.3964 49.1584 57.9563 54.2068 55.7027 58.5655C54.5848 60.7537 53.0982 62.7041 51.2489 64.4107C49.3579 66.1173 47.0745 67.4077 44.6365 68.1093C39.7546 69.5246 34.4029 68.6088 30.4664 65.927C29.9907 65.5762 29.5031 65.2373 29.0512 64.8686C28.6171 64.4761 28.183 64.1075 27.7668 63.6853C26.9462 62.8112 26.1969 61.8895 25.632 60.8667C24.4487 58.8568 23.8541 56.627 23.753 54.5041C23.646 52.3456 24.0265 50.3893 24.6568 48.7481C25.2872 47.1009 26.1494 45.769 27.0235 44.7046C27.8916 43.664 28.8906 42.8136 29.7826 42.219C30.6983 41.6422 31.5189 41.2497 32.2146 41.0119C35.0213 39.9951 37.822 40.2091 40.0519 41.113C41.1817 41.5471 42.1688 42.1774 43.0072 42.9028C43.4354 43.2537 43.8041 43.6521 44.1549 44.0564C44.4998 44.4727 44.8447 44.9186 45.1004 45.3943C46.1945 47.2793 46.468 49.4497 45.9983 51.3764C45.5404 53.3089 44.3333 55.0155 42.6742 56.0085C43.6673 54.3376 43.81 52.631 43.5305 51.2396C43.251 49.8363 42.5494 48.7124 41.6574 47.9275C41.4434 47.7194 41.2055 47.5588 40.9498 47.3804C40.6763 47.208 40.4146 47.0296 40.1292 46.8928C39.5643 46.6014 38.9697 46.3636 38.3334 46.2328C37.0728 45.9414 35.6457 45.9533 34.2245 46.4885C33.8677 46.6074 33.4634 46.8215 32.9936 47.1069C32.5417 47.428 32.066 47.8145 31.5249 48.4567C31.0194 49.087 30.514 49.86 30.1453 50.8293C29.7766 51.7867 29.5566 52.9402 29.622 54.2068C29.6815 55.4555 30.0264 56.7578 30.7221 57.9292C31.0373 58.5298 31.4951 59.065 31.9708 59.5823C32.2265 59.838 32.5298 60.0877 32.8093 60.3494C33.1066 60.5932 33.4277 60.8013 33.7369 61.0392C36.2938 62.7874 39.8141 63.382 43.0072 62.4603C44.6009 62.0025 46.0815 61.1581 47.3243 60.0402C48.573 58.8866 49.6909 57.4416 50.4699 55.9075C52.0814 52.8094 52.3906 49.1881 51.677 46.0365C51.3321 44.4489 50.7197 42.9682 49.9109 41.6898C49.0963 40.3935 48.2043 39.2756 47.0864 38.3301C44.9458 36.3737 42.6088 35.1488 40.5692 34.4471C40.3136 34.3579 40.0638 34.2687 39.826 34.1855C39.5822 34.1082 39.3324 34.0606 39.0946 34.0012C38.6189 33.8941 38.1788 33.7514 37.7566 33.6919C36.9063 33.5909 36.1808 33.4244 35.5743 33.4303C34.9737 33.4065 34.5099 33.3649 34.1888 33.3708C33.8737 33.3887 33.7072 33.3946 33.7072 33.3946C33.7072 33.3946 33.5109 33.4065 33.1363 33.4244C32.952 33.4303 32.7201 33.4422 32.4406 33.46C32.1671 33.5017 31.8579 33.5492 31.5011 33.5968C30.7875 33.6622 29.9491 33.8941 28.9679 34.132C28.4863 34.2866 27.9808 34.4769 27.4397 34.6612C26.8986 34.8396 26.3694 35.1429 25.7866 35.3926C25.2039 35.6423 24.6628 36.0408 24.0622 36.3737C23.4735 36.7365 22.9205 37.2003 22.314 37.6284C21.7669 38.1398 21.1723 38.6155 20.6193 39.2042C20.0901 39.8226 19.4776 40.4113 18.9603 41.0951C16.8255 43.7888 15.0951 47.2318 14.2448 51.085C14.1021 51.5607 14.0545 52.0542 13.9832 52.5478C13.9178 53.0413 13.8286 53.5349 13.775 54.0344C13.7513 54.5339 13.7275 55.0393 13.7037 55.5447L13.6621 56.3059L13.7037 57.067C13.7275 57.5724 13.7513 58.0838 13.775 58.5952L13.9951 60.1175L14.1021 60.8786C14.1437 61.1343 14.221 61.3781 14.2745 61.6278L14.6373 63.1323C15.8027 67.0925 17.9969 70.7198 20.7917 73.5681C23.6816 76.464 27.0175 78.6522 30.3178 80.1031C32.1136 80.888 33.8796 81.4708 35.5684 81.893C35.1581 81.9227 34.7478 81.9524 34.3315 81.9703C51.5343 81.2626 65.2644 67.0985 65.2644 49.7173C65.2822 42.5163 62.9275 35.8743 58.9494 30.5047Z" fill="#00A3FF"/>
<path d="M23.9371 80.7037C23.4079 80.5491 22.8846 80.3826 22.3613 80.1983C22.8846 80.3826 23.4079 80.5491 23.9371 80.7037Z" fill="#00A3FF"/>
<path d="M28.3445 81.661C27.6845 81.5659 27.0363 81.4529 26.3882 81.3221C27.0304 81.4588 27.6845 81.5659 28.3445 81.661Z" fill="#00A3FF"/>
<path d="M30.3882 81.887C29.8709 81.8454 29.3536 81.7919 28.8481 81.7265C29.3536 81.7919 29.8709 81.8454 30.3882 81.887Z" fill="#00A3FF"/>
<path d="M26.1087 81.2567C25.5497 81.1378 25.0026 81.001 24.4556 80.8464C24.9967 81.001 25.5497 81.1378 26.1087 81.2567Z" fill="#00A3FF"/>
</svg>
