<svg width="85" height="85" viewBox="0 0 85 85" fill="none" xmlns="http://www.w3.org/2000/svg">
<g clip-path="url(#clip0)">
<path d="M68.2415 4.96491V79.7031C68.2415 82.537 65.9445 84.834 63.1106 84.834H22.0645C19.2306 84.834 16.9336 82.537 16.9336 79.7031V4.96491C16.9336 2.13097 19.2306 -0.166016 22.0645 -0.166016H63.1106C65.9445 -0.166016 68.2415 2.13097 68.2415 4.96491Z" fill="#8393A2"/>
<path d="M22.0644 84.834H63.1105C65.9445 84.834 68.2414 82.537 68.2414 79.7031V4.96493C68.2414 3.06612 67.209 1.40921 65.676 0.522064C64.1429 1.40921 63.1105 3.06612 63.1105 4.96493V79.7031H22.0644C20.1656 79.7031 18.5087 80.7355 17.6216 82.2685C18.5087 83.8016 20.1656 84.834 22.0644 84.834Z" fill="#596775"/>
<path d="M34.2879 27.0068C33.9137 26.0035 32.9552 25.3382 31.8845 25.3382C30.8138 25.3382 29.856 26.0035 29.4812 27.0068L22.2984 46.2471C21.803 47.5745 22.4774 49.0518 23.8042 49.5473C25.1317 50.0427 26.6096 49.3689 27.1051 48.0415L27.9189 45.8612H35.8507L36.6646 48.0415C37.0498 49.0732 38.0284 49.7107 39.0679 49.71C39.3662 49.71 39.6697 49.6582 39.9648 49.5473C41.2923 49.0518 41.9667 47.5745 41.4713 46.2471L34.2879 27.0068ZM29.8346 40.7309L31.8845 35.2388L33.9351 40.7309H29.8346Z" fill="#FFF9EB"/>
<path d="M60.5464 31.1104C59.5049 31.1104 58.61 31.7324 58.2086 32.624C56.6477 31.6649 54.8131 31.1104 52.8507 31.1104C47.1926 31.1104 42.5889 35.7135 42.5889 41.3723C42.5889 47.0304 47.1926 51.6335 52.8507 51.6335C54.7177 51.6335 56.4687 51.1296 57.979 50.2541C57.9317 52.437 56.1399 54.199 53.9421 54.199H52.8501C51.4337 54.199 50.2846 55.3474 50.2846 56.7644C50.2846 58.1814 51.4337 59.3299 52.8501 59.3299H53.9421C58.9985 59.3299 63.1119 55.219 63.1119 50.1666V33.6759C63.1119 32.2589 61.9634 31.1104 60.5464 31.1104ZM52.8507 46.5026C50.0213 46.5026 47.7198 44.201 47.7198 41.3723C47.7198 38.5429 50.0213 36.2414 52.8507 36.2414C55.6795 36.2414 57.981 38.5429 57.981 41.3723C57.981 44.201 55.6795 46.5026 52.8507 46.5026Z" fill="#FFF9EB"/>
<path d="M30.6151 11.8053C30.6151 12.5141 30.0412 13.088 29.3324 13.088H29.1689C29.1689 13.7962 28.5944 14.3701 27.8862 14.3701C27.1781 14.3701 26.6035 13.7962 26.6035 13.088H23.3474C22.8675 13.088 22.4285 12.8202 22.208 12.3948C21.9881 11.9687 22.0238 11.4557 22.3007 11.0647L26.8395 4.65168C27.1625 4.19579 27.7429 4.00124 28.2753 4.17049C28.8077 4.33975 29.1689 4.83391 29.1689 5.39291V10.5232H29.333C30.0412 10.5225 30.6151 11.0971 30.6151 11.8053ZM26.6041 9.42463L25.8266 10.5225H26.6041V9.42463Z" fill="#FFF9EB"/>
<path d="M38.1147 5.69704L36.2334 13.3921C36.09 13.9777 35.5661 14.3707 34.9889 14.3707C34.8877 14.3707 34.7853 14.3584 34.6835 14.3337C33.9954 14.1651 33.5739 13.4712 33.7418 12.7832L35.2347 6.67498H33.1063C32.3981 6.67498 31.8242 6.10106 31.8242 5.39225C31.8242 4.68409 32.3981 4.11017 33.1063 4.11017H36.8682C37.2625 4.11017 37.6341 4.2911 37.8773 4.60043C38.1205 4.91042 38.208 5.31443 38.1147 5.69704Z" fill="#FFF9EB"/>
<path d="M30.1316 68.7999C30.1316 70.5683 28.6932 72.0061 26.9254 72.0061H25.0013C24.2932 72.0061 23.7192 71.4321 23.7192 70.724C23.7192 70.0152 24.2932 69.4412 25.0013 69.4412H26.9254C27.2788 69.4412 27.5668 69.1533 27.5668 68.7999C27.5668 68.4471 27.2788 68.1585 26.9254 68.1585C25.157 68.1585 23.7192 66.7201 23.7192 64.9523C23.7192 63.1845 25.157 61.7462 26.9254 61.7462H27.8229C28.5311 61.7462 29.1057 62.3201 29.1057 63.0282C29.1057 63.737 28.5311 64.311 27.8229 64.311H26.9254C26.5713 64.311 26.284 64.5989 26.284 64.9523C26.284 65.3058 26.5713 65.5937 26.9254 65.5937C28.6932 65.5937 30.1316 67.0321 30.1316 68.7999Z" fill="#FFF9EB"/>
<path d="M31.4497 63.0276C31.4497 62.3188 32.0236 61.7449 32.7318 61.7449C33.4399 61.7449 34.0145 62.3188 34.0145 63.0276C34.0145 63.7358 33.4399 64.3097 32.7318 64.3097C32.0236 64.3097 31.4497 63.7358 31.4497 63.0276ZM34.0145 66.8752V70.724C34.0145 71.4322 33.4399 72.0061 32.7318 72.0061C32.0236 72.0061 31.4497 71.4322 31.4497 70.724V66.8752C31.4497 66.1663 32.0236 65.5924 32.7318 65.5924C33.4399 65.5924 34.0145 66.1663 34.0145 66.8752Z" fill="#FFF9EB"/>
<path d="M39.064 70.724C39.064 71.4321 38.4895 72.0061 37.7813 72.0061H36.7554C36.0472 72.0061 35.4727 71.4321 35.4727 70.724V63.0282C35.4727 62.3201 36.0472 61.7462 36.7554 61.7462C37.4635 61.7462 38.0375 62.3201 38.0375 63.0282V69.4672C38.6231 69.5859 39.064 70.1034 39.064 70.724Z" fill="#FFF9EB"/>
<path d="M46.7718 66.1676L44.207 71.2972C43.9897 71.7324 43.5455 72.0067 43.0598 72.0067C42.5741 72.0067 42.1299 71.7317 41.9126 71.2972L39.3478 66.1676C39.0307 65.534 39.2875 64.7636 39.9217 64.4465C40.5553 64.13 41.3251 64.3868 41.6422 65.0204L43.0598 67.8556L44.4781 65.0204C44.7945 64.3868 45.5649 64.1294 46.1985 64.4465C46.8321 64.7636 47.0889 65.5334 46.7718 66.1676Z" fill="#FFF9EB"/>
<path d="M51.7081 66.929C51.5914 66.8946 51.4695 66.8758 51.3456 66.8758C50.6387 66.8758 50.0629 67.4517 50.0629 68.1585C50.0629 68.866 50.6387 69.4413 51.3456 69.4413H52.9532C53.6614 69.4413 54.2359 70.0152 54.2359 70.724C54.2359 71.4322 53.6614 72.0061 52.9532 72.0061H51.3456C49.2237 72.0061 47.498 70.2804 47.498 68.1585C47.498 66.0373 49.2237 64.311 51.3456 64.311C52.7133 64.311 53.9902 65.047 54.6763 66.2312C54.9681 66.7344 54.8844 67.3706 54.4733 67.7818L53.6108 68.6443C53.1102 69.1449 52.2982 69.1449 51.7969 68.6436C51.3281 68.1747 51.2982 67.4329 51.7081 66.929Z" fill="#FFF9EB"/>
<path d="M61.4565 65.5937C61.4565 66.3025 60.8819 66.8758 60.1737 66.8758C59.4662 66.8758 58.891 67.4517 58.891 68.1585V70.724C58.891 71.4322 58.3171 72.0061 57.6089 72.0061C56.9001 72.0061 56.3262 71.4322 56.3262 70.724V65.5937C56.3262 64.8855 56.9001 64.311 57.6089 64.311C57.963 64.311 58.284 64.4549 58.5162 64.6871C59.0181 64.4465 59.581 64.311 60.1737 64.311C60.8819 64.311 61.4565 64.8855 61.4565 65.5937Z" fill="#FFF9EB"/>
<path d="M53.4905 74.5721H31.6841C30.9759 74.5721 30.4014 75.1467 30.4014 75.8549C30.4014 76.5637 30.9759 77.1376 31.6841 77.1376H53.4905C54.1987 77.1376 54.7726 76.5637 54.7726 75.8549C54.7726 75.1467 54.1987 74.5721 53.4905 74.5721Z" fill="#FFF9EB"/>
<path d="M61.8722 4.0246H57.1699C56.4618 4.0246 55.8872 4.59852 55.8872 5.30733C55.8872 6.01549 56.4618 6.59006 57.1699 6.59006H61.8722C62.581 6.59006 63.1549 6.01549 63.1549 5.30733C63.1549 4.59852 62.581 4.0246 61.8722 4.0246Z" fill="#FFF9EB"/>
</g>
<defs>
<clipPath id="clip0">
<rect width="85" height="85" fill="white"/>
</clipPath>
</defs>
</svg>
