<svg width="100" height="100" viewBox="0 0 100 100" fill="none" xmlns="http://www.w3.org/2000/svg">
<path d="M57.7122 50.8036H30.0664C28.5779 50.8036 27.3711 49.5968 27.3711 48.1083V35.6493H57.7122V50.8036Z" fill="#986B54"/>
<path d="M85.3577 50.8036H57.7119V35.6493H85.3577C86.8463 35.6493 88.0531 36.856 88.0531 38.3446V48.1083C88.0531 49.597 86.8463 50.8036 85.3577 50.8036Z" fill="#986B54"/>
<path d="M52.3171 35.6503V43.6217C52.3171 44.6091 51.5168 45.4095 50.5294 45.4095H27.3711V48.1229C27.3711 49.6039 28.5718 50.8046 30.0527 50.8046H57.7124V35.6503H52.3171Z" fill="#845C52"/>
<path d="M85.3714 35.6502H82.6579V43.6216C82.6579 44.609 81.8576 45.4094 80.8702 45.4094H57.7119V50.8045H85.3716C86.8526 50.8045 88.0532 49.6038 88.0532 48.1228V38.3318C88.0531 36.8507 86.8526 35.6502 85.3714 35.6502Z" fill="#845C52"/>
<path d="M83.323 42.8695H78.5469C77.8064 42.8695 77.2061 42.2692 77.2061 41.5287C77.2061 40.7882 77.8064 40.1878 78.5469 40.1878H83.3232C84.0636 40.1878 84.664 40.7882 84.664 41.5287C84.6638 42.2693 84.0635 42.8695 83.323 42.8695Z" fill="#785252"/>
<path d="M42.2874 35.6494H14.6416C13.1531 35.6494 11.9463 34.4426 11.9463 32.9541V23.1904C11.9463 21.7019 13.1531 20.4951 14.6416 20.4951H42.2874V35.6494Z" fill="#986B54"/>
<path d="M42.2871 20.4951H72.6282V35.6494H42.2871V20.4951Z" fill="#986B54"/>
<path d="M36.8923 20.4951V28.4666C36.8923 29.454 36.092 30.2543 35.1046 30.2543H11.9463V32.9678C11.9463 34.4487 13.147 35.6494 14.6279 35.6494H42.2876V20.4951H36.8923Z" fill="#845C52"/>
<path d="M67.2333 20.4951V28.4666C67.2333 29.454 66.433 30.2543 65.4456 30.2543H42.2871V35.6494H72.6282V20.4951H67.2333Z" fill="#845C52"/>
<path d="M23.0525 27.1322H18.2764C17.5359 27.1322 16.9355 26.5319 16.9355 25.7914C16.9355 25.0509 17.5359 24.4506 18.2764 24.4506H23.0525C23.793 24.4506 24.3933 25.0509 24.3933 25.7914C24.3933 26.5319 23.793 27.1322 23.0525 27.1322Z" fill="#785252"/>
<path d="M30.9217 32.0697H28.8018C28.0613 32.0697 27.4609 31.4694 27.4609 30.7289C27.4609 29.9884 28.0613 29.388 28.8018 29.388H30.9217C31.6622 29.388 32.2625 29.9884 32.2625 30.7289C32.2625 31.4694 31.6622 32.0697 30.9217 32.0697Z" fill="#785252"/>
<path d="M57.7122 20.4951H27.3711V8.03613C27.3711 6.5476 28.5779 5.34082 30.0664 5.34082H57.7122V20.4951Z" fill="#986B54"/>
<path d="M85.3577 20.4951H57.7119V5.34082H85.3577C86.8463 5.34082 88.0531 6.5476 88.0531 8.03613V17.7998C88.0531 19.2883 86.8463 20.4951 85.3577 20.4951Z" fill="#986B54"/>
<path d="M52.3171 5.34082V13.3123C52.3171 14.2997 51.5168 15.1 50.5294 15.1H27.3711V20.4951H57.7122V5.34082H52.3171Z" fill="#845C52"/>
<path d="M85.3714 5.34082H82.6579V13.3123C82.6579 14.2997 81.8576 15.1 80.8702 15.1H57.7119V20.4951H85.3716C86.8526 20.4951 88.0532 19.2945 88.0532 17.8135V8.02248C88.0531 6.54149 86.8526 5.34082 85.3714 5.34082Z" fill="#845C52"/>
<path d="M72.6282 15.1214C73.3465 15.1214 73.9288 14.5391 73.9288 13.8208C73.9288 13.1026 73.3465 12.5203 72.6282 12.5203C71.9099 12.5203 71.3276 13.1026 71.3276 13.8208C71.3276 14.5391 71.9099 15.1214 72.6282 15.1214Z" fill="#785252"/>
<path d="M67.387 15.1617H65.2671C64.5266 15.1617 63.9263 14.5613 63.9263 13.8208C63.9263 13.0803 64.5266 12.48 65.2671 12.48H67.387C68.1275 12.48 68.7279 13.0803 68.7279 13.8208C68.7279 14.5613 68.1275 15.1617 67.387 15.1617Z" fill="#785252"/>
<path d="M72.6285 34.3332H43.628V21.836H72.6283C73.3688 21.836 73.9691 21.2356 73.9691 20.4951C73.9691 19.7546 73.3688 19.1543 72.6283 19.1543H59.0529V5.34083C59.0529 4.60034 58.4525 4 57.7121 4C56.9716 4 56.3712 4.60034 56.3712 5.34083V19.1543H27.3711C26.6306 19.1543 26.0303 19.7546 26.0303 20.4951C26.0303 21.2356 26.6306 21.836 27.3711 21.836H40.9465V34.3332H27.3711C26.6306 34.3332 26.0303 34.9336 26.0303 35.6741C26.0303 36.4146 26.6306 37.0149 27.3711 37.0149H72.6285C73.3689 37.0149 73.9693 36.4146 73.9693 35.6741C73.9691 34.9334 73.3689 34.3332 72.6285 34.3332Z" fill="#ECBE6B"/>
<path d="M58.2492 24.7322L42.8902 48.5023C40.2544 52.5816 40.3151 57.8421 43.0446 61.8596C45.2955 65.1726 49.0409 67.156 53.0461 67.156H66.4553C70.4608 67.156 74.2062 65.1726 76.4569 61.8596C79.1862 57.8423 79.2471 52.5816 76.6113 48.5023L61.2523 24.7322C60.5479 23.6422 58.9534 23.6422 58.2492 24.7322Z" fill="#DAE4EA"/>
<path d="M76.6113 48.5025L61.2524 24.7323C60.548 23.6424 58.9536 23.6424 58.2493 24.7323L54.1069 31.1431L65.4391 48.6813C68.0749 52.7605 68.0142 58.0211 65.2847 62.0385C63.4264 64.7739 60.5487 66.6017 57.3476 67.1562H66.4552C70.4606 67.1562 74.2061 65.1728 76.4568 61.8597C79.1865 57.8423 79.2472 52.5818 76.6113 48.5025Z" fill="#B9C1CB"/>
<path d="M59.751 74.369C59.0105 74.369 58.4102 73.7687 58.4102 73.0282V64.7665C58.4102 64.0261 59.0105 63.4257 59.751 63.4257C60.4915 63.4257 61.0918 64.0261 61.0918 64.7665V73.0282C61.0918 73.7687 60.4915 74.369 59.751 74.369Z" fill="#004C67"/>
<path d="M63.6011 67.1562L60.6584 55.4151C60.4217 54.4706 59.0795 54.4706 58.8426 55.4151L55.8999 67.1562H63.6011Z" fill="#F6F9F9"/>
<path d="M64.4992 83.803C64.4992 82.2394 64.2706 80.7735 63.8715 79.5085C63.5032 78.3407 63.3386 77.1183 63.3386 75.8939V73.2971C63.3386 72.744 62.8903 72.2957 62.3372 72.2957H57.1654C56.6123 72.2957 56.164 72.744 56.164 73.2971V75.8939C56.164 77.1183 55.9996 78.3409 55.6311 79.5085C55.232 80.7735 55.0034 82.2394 55.0034 83.803C55.0034 85.3667 55.232 86.8326 55.6311 88.0976C55.9994 89.2653 56.164 90.4878 56.164 91.7121V94.9986C56.164 95.5517 56.6123 96 57.1654 96H62.3372C62.8903 96 63.3386 95.5517 63.3386 94.9986V91.7121C63.3386 90.4878 63.503 89.2652 63.8715 88.0976C64.2706 86.8326 64.4992 85.3667 64.4992 83.803Z" fill="#057096"/>
<path d="M63.8712 79.5086C63.5028 78.3409 63.3382 77.1184 63.3382 75.894V73.2972C63.3382 72.7441 62.8899 72.2958 62.3368 72.2958H58.6558C59.2088 72.2958 59.6572 72.7441 59.6572 73.2972V75.894C59.6572 77.1184 59.8216 78.341 60.1901 79.5086C60.5892 80.7736 60.8178 82.2395 60.8178 83.8032C60.8178 85.3668 60.5892 86.8327 60.1901 88.0977C59.8216 89.2655 59.6572 90.4879 59.6572 91.7123V94.9988C59.6572 95.5519 59.2088 96.0002 58.6558 96.0002H62.3368C62.8899 96.0002 63.3382 95.5519 63.3382 94.9988V91.7123C63.3382 90.4879 63.5027 89.2653 63.8712 88.0977C64.2703 86.8327 64.4988 85.3668 64.4988 83.8032C64.499 82.2394 64.2705 80.7736 63.8712 79.5086Z" fill="#055E7F"/>
<path d="M57.3477 67.1562H63.6013L62.9571 64.5862C61.3471 65.9085 59.4151 66.7979 57.3477 67.1562Z" fill="#DAE4EA"/>
</svg>
