<svg width="100" height="100" viewBox="0 0 100 100" fill="none" xmlns="http://www.w3.org/2000/svg">
<path d="M77.5632 48.4835H61.5666H50.0233H38.4771H22.4835C21.2923 51.6707 20.6475 55.1371 20.6475 58.7503C20.6475 66.1237 23.3647 72.864 27.8592 78.0209C33.235 84.2045 41.165 88.1262 50.0233 88.1262C58.8787 88.1262 66.8116 84.2045 72.1874 78.0209C76.6834 72.864 79.3992 66.1222 79.3992 58.7503C79.3992 55.1371 78.75 51.6707 77.5632 48.4835Z" fill="#FC6E51"/>
<path d="M61.5665 48.4835H50.0233H38.4757H22.4834H22.1016L22.1163 22.1774L50.0086 29.3745L77.9157 22.1774V48.4835H77.5632H61.5665Z" fill="#545C66"/>
<path d="M95.5089 17.6241L77.9157 22.1627V22.1774L50.0086 29.3745L22.1162 22.1774L4.49072 17.6241L50.0086 5.87378L95.5089 17.6241Z" fill="#656D78"/>
<path d="M49.9784 30.8492C49.855 30.8492 49.7316 30.833 49.6112 30.8022L4.10208 19.0518C3.45435 18.8859 3.00049 18.2998 3.00049 17.63C3.00049 16.9603 3.45435 16.3757 4.10208 16.2082L49.6112 4.45203C49.852 4.38887 50.1047 4.38887 50.3456 4.45203L95.8752 16.2082C96.5229 16.3742 96.9768 16.9603 96.9768 17.63C96.9768 18.2998 96.5229 18.8844 95.8752 19.0533L50.3456 30.8036C50.2251 30.833 50.1017 30.8492 49.9784 30.8492ZM10.343 17.63L49.9784 27.8631L89.6313 17.63L49.9784 7.39109L10.343 17.63Z" fill="black"/>
<path d="M22.0845 49.9552C21.2723 49.9552 20.6157 49.2972 20.6157 48.4864L20.6245 22.1803C20.6245 21.3681 21.2826 20.7115 22.0933 20.7115C22.9056 20.7115 23.5621 21.3696 23.5621 22.1803L23.5533 48.4864C23.5533 49.2972 22.8953 49.9552 22.0845 49.9552Z" fill="black"/>
<path d="M77.8926 49.9552C77.0804 49.9552 76.4238 49.2987 76.4238 48.4864V22.1715C76.4238 21.3593 77.0804 20.7027 77.8926 20.7027C78.7049 20.7027 79.3614 21.3593 79.3614 22.1715V48.4864C79.3614 49.2972 78.7049 49.9552 77.8926 49.9552Z" fill="black"/>
<path d="M95.5313 33.8074C94.7191 33.8074 94.0625 33.1508 94.0625 32.3386V17.6301C94.0625 16.8178 94.7191 16.1613 95.5313 16.1613C96.3435 16.1613 97.0001 16.8178 97.0001 17.6301V32.3386C97.0001 33.1493 96.3435 33.8074 95.5313 33.8074Z" fill="black"/>
<path d="M95.4896 19.0989H49.96C49.1478 19.0989 48.4912 18.4423 48.4912 17.6301C48.4912 16.8178 49.1478 16.1613 49.96 16.1613H95.4896C96.3019 16.1613 96.9584 16.8178 96.9584 17.6301C96.9584 18.4423 96.3004 19.0989 95.4896 19.0989Z" fill="black"/>
<path d="M77.8928 49.9552H22.0845C21.2723 49.9552 20.6157 49.2987 20.6157 48.4864C20.6157 47.6742 21.2723 47.0176 22.0845 47.0176H77.8928C78.705 47.0176 79.3616 47.6742 79.3616 48.4864C79.3616 49.2987 78.705 49.9552 77.8928 49.9552Z" fill="black"/>
<path d="M49.9999 89.595C32.9928 89.595 19.1553 75.7575 19.1553 58.7503C19.1553 55.0431 19.8059 51.4166 21.0911 47.9723C21.3731 47.2115 22.2221 46.8296 22.98 47.1102C23.7408 47.3922 24.1257 48.2397 23.8422 48.999C22.6818 52.1129 22.0929 55.3941 22.0929 58.7503C22.0929 74.1389 34.6114 86.6574 49.9999 86.6574C65.3885 86.6574 77.907 74.1389 77.907 58.7503C77.907 55.3956 77.3195 52.1143 76.1576 48.9975C75.8756 48.2382 76.2619 47.3922 77.0228 47.1087C77.7763 46.8311 78.6282 47.2115 78.9116 47.9738C80.1939 51.4181 80.8446 55.0446 80.8446 58.7503C80.8446 75.7575 67.0071 89.595 49.9999 89.595Z" fill="black"/>
<path d="M50 89.595C49.1878 89.595 48.5312 88.9384 48.5312 88.1262V48.4864C48.5312 47.6742 49.1878 47.0176 50 47.0176C50.8123 47.0176 51.4688 47.6742 51.4688 48.4864V88.1262C51.4688 88.9384 50.8123 89.595 50 89.595Z" fill="black"/>
<path d="M79.3758 60.2191H20.6241C19.8118 60.2191 19.1553 59.5626 19.1553 58.7503C19.1553 57.9381 19.8118 57.2816 20.6241 57.2816H79.3758C80.188 57.2816 80.8446 57.9381 80.8446 58.7503C80.8446 59.5626 80.188 60.2191 79.3758 60.2191Z" fill="black"/>
<path d="M27.8254 79.4882C27.2305 79.4882 26.6709 79.124 26.4491 78.5335C26.1657 77.7742 26.5505 76.9281 27.3113 76.6447C34.7317 73.8701 39.7182 66.6789 39.7182 58.7504C39.7182 55.3942 38.8355 52.0938 37.1684 49.2061C36.763 48.504 37.0039 47.6052 37.706 47.1998C38.4051 46.7944 39.3055 47.0338 39.7123 47.7373C41.6379 51.07 42.6558 54.8786 42.6558 58.7504C42.6558 67.8995 36.9025 76.1952 28.3395 79.3957C28.1706 79.4589 27.9973 79.4882 27.8254 79.4882Z" fill="black"/>
<path d="M72.1742 79.4882C72.0038 79.4882 71.8305 79.4574 71.6601 79.3957C63.097 76.1952 57.3438 67.8995 57.3438 58.7504C57.3438 54.8786 58.3616 51.0701 60.2872 47.7374C60.6926 47.0338 61.5915 46.793 62.2936 47.1998C62.9957 47.6067 63.238 48.5056 62.8312 49.2062C61.1641 52.0938 60.2813 55.3942 60.2813 58.7504C60.2813 66.6789 65.2679 73.8701 72.6868 76.6447C73.4476 76.9281 73.8324 77.7756 73.549 78.5335C73.3286 79.124 72.769 79.4882 72.1742 79.4882Z" fill="black"/>
</svg>
