<svg width="100" height="100" viewBox="0 0 100 100" fill="none" xmlns="http://www.w3.org/2000/svg">
<g clip-path="url(#clip0)">
<path d="M11.2006 30C10.5373 30 10 29.3629 10 28.5764V26.2197C10 23.3416 11.9747 21 14.4018 21H19.7994C20.4627 21 21 21.6378 21 22.4236C21 23.2101 20.4627 23.8472 19.7994 23.8472H14.4018C13.2988 23.8472 12.4011 24.9117 12.4011 26.2197V28.5764C12.4011 29.3629 11.8638 30 11.2006 30Z" fill="black"/>
<path d="M88.7994 30C88.1362 30 87.5989 29.3629 87.5989 28.5764V26.2197C87.5989 24.9117 86.7012 23.8472 85.5982 23.8472H80.2006C79.5373 23.8472 79 23.2101 79 22.4236C79 21.6378 79.5373 21 80.2006 21H85.5982C88.0253 21 90 23.3416 90 26.2197V28.5764C90 29.3629 89.4627 30 88.7994 30Z" fill="black"/>
<path d="M34.6305 94H28.3695C27.0606 94 26 93.0633 26 91.9075V86H37V91.9075C37 93.0633 35.9394 94 34.6305 94Z" fill="black"/>
<path d="M71.6305 94H65.3695C64.0606 94 63 93.0633 63 91.9075V86H74V91.9075C74 93.0633 72.9394 94 71.6305 94Z" fill="black"/>
<path d="M77.4104 87H22.5896C20.607 87 19 85.4316 19 83.4966V55.2071L20.9527 52.9606V29.4943L19 27.6919V15.5034C19 13.5684 20.607 12 22.5896 12H77.4104C79.393 12 81 13.5684 81 15.5034V27.6919L79.3903 30.0565V53.0302L81 55.2071V83.4966C81 85.4316 79.393 87 77.4104 87Z" fill="#43B28A"/>
<path d="M22.5896 62H77.4104C79.393 62 81 60.3791 81 58.3794V55.4966L78.4679 53.2468V29.5041L81 27.0604V20H19V27.0604L20.9527 29.0663V53.1748L19 55.4966V58.3794C19 60.3791 20.607 62 22.5896 62Z" fill="black"/>
<path d="M19 27H81V55H19V27Z" fill="white"/>
<path d="M14.4428 44H7.55719C6.69706 44 6 43.4203 6 42.7051V29.2949C6 28.5797 6.69706 28 7.55719 28H14.4428C15.3029 28 16 28.5797 16 29.2949V42.7051C16 43.4203 15.3029 44 14.4428 44Z" fill="black"/>
<path d="M92.4428 44H85.5572C84.6971 44 84 43.4203 84 42.7051V29.2949C84 28.5797 84.6971 28 85.5572 28H92.4428C93.3029 28 94 28.5797 94 29.2949V42.7051C94 43.4203 93.3029 44 92.4428 44Z" fill="black"/>
<path d="M38.1374 76H29.7953C27.6995 76 26 74.0423 26 71.6282V68.9936C26 68.4448 26.3861 68 26.8626 68H35.2047C37.3011 68 39 69.9569 39 72.3718V75.0064C39 75.5552 38.6139 76 38.1374 76Z" fill="white"/>
<path d="M61.8626 76H70.2047C72.3005 76 74 74.0423 74 71.6282V68.9936C74 68.4448 73.6139 68 73.1374 68H64.7953C62.6989 68 61 69.9569 61 72.3718V75.0064C61 75.5552 61.3861 76 61.8626 76Z" fill="white"/>
<path d="M55.6518 83H44.3482C44.156 83 44 82.848 44 82.66V79.34C44 79.152 44.156 79 44.3482 79H55.6518C55.844 79 56 79.152 56 79.34V82.66C56 82.848 55.844 83 55.6518 83Z" fill="white"/>
<path d="M40.1984 55.3204L53.8353 43.9206C54.4139 43.4366 54.4913 42.576 54.0073 41.9974C53.524 41.4188 52.6628 41.3415 52.0841 41.8254L35.9414 55.3204H40.1984Z" fill="black"/>
<path d="M49.6971 55.3195L63.334 43.9197C63.912 43.4358 63.9893 42.5752 63.5054 41.9965C63.0221 41.4172 62.1608 41.3406 61.5822 41.8245L45.4395 55.3195H49.6971Z" fill="black"/>
</g>
<defs>
<clipPath id="clip0">
<rect width="100" height="100" fill="white"/>
</clipPath>
</defs>
</svg>
