<svg width="100" height="100" viewBox="0 0 100 100" fill="none" xmlns="http://www.w3.org/2000/svg">
<path d="M47.3945 40.3483V65.6982H52.6053V33.718L47.3945 40.3483Z" fill="#EFC277"/>
<path d="M50 65.6982H52.6054V33.718L50 36.7209V65.6982Z" fill="#E9A43A"/>
<path d="M70.9293 73.5578C69.5281 73.5578 68.1481 73.7812 66.8355 74.2146C65.6584 71.4657 63.8096 69.013 61.4571 67.1223C58.2239 64.5239 54.1548 63.0928 49.9993 63.0928C45.8439 63.0928 41.7748 64.5239 38.5415 67.1223C36.189 69.013 34.3403 71.4657 33.1631 74.2146C31.8506 73.7812 30.4706 73.5578 29.0694 73.5578C21.8624 73.5578 15.999 79.4212 15.999 86.6282V91.8607C15.999 93.2995 17.1655 94.4661 18.6044 94.4661H81.3943C82.8331 94.4661 83.9997 93.2995 83.9997 91.8607V86.6282C83.9997 79.4212 78.1363 73.5578 70.9293 73.5578Z" fill="#8F5041"/>
<path d="M81.3949 94.4661C82.8338 94.4661 84.0003 93.2995 84.0003 91.8607V86.6282C84.0003 79.4212 78.137 73.5578 70.93 73.5578C69.5288 73.5578 68.1488 73.7812 66.8362 74.2146C65.6591 71.4657 63.8103 69.013 61.4578 67.1223C58.2245 64.5239 54.1554 63.0928 50 63.0928V94.4661H81.3949Z" fill="#773941"/>
<path d="M71.9796 18.457C71.9065 17.131 70.8476 16.0722 69.5217 15.999C69.0699 15.9739 58.3744 15.4632 51.8512 21.9864C51.1572 22.6805 50.5435 23.4221 49.9995 24.1932C49.0438 20.353 47.2477 16.0626 43.8906 12.7055C36.0987 4.91364 23.2767 5.52626 22.7348 5.55648C21.4088 5.6296 20.35 6.68843 20.2769 8.0144C20.247 8.5565 19.634 21.3783 27.4261 29.1702C33.1857 34.9298 41.5777 36.0911 45.8427 36.2962H47.3938V40.3483C47.3938 41.3344 48.1931 42.1337 49.1791 42.1337C51.9122 42.1337 60.4551 41.6647 65.9921 36.1276C72.5154 29.6042 72.0044 18.9091 71.9796 18.457Z" fill="#00D059"/>
<path d="M69.5223 15.999C69.0706 15.9739 58.3751 15.4632 51.8519 21.9864C51.1578 22.6805 50.5442 23.4221 50.0002 24.1932L50 42.12C53.346 42.0166 60.9263 41.194 65.9929 36.1274C72.5161 29.604 72.0053 18.9089 71.9803 18.4568C71.9071 17.131 70.8483 16.0722 69.5223 15.999Z" fill="#219653"/>
</svg>
