<svg width="86" height="86" viewBox="0 0 86 86" fill="none" xmlns="http://www.w3.org/2000/svg">
<g clip-path="url(#clip0)">
<path d="M81.3744 65.8356C83.9253 65.8356 86 63.7609 86 61.21C86 58.6592 83.9253 56.5845 81.3744 56.5845C78.8236 56.5845 76.7497 58.6592 76.7497 61.21C76.7497 63.7609 78.8236 65.8356 81.3744 65.8356ZM81.3744 59.5151C82.3091 59.5151 83.0703 60.2754 83.0703 61.21C83.0703 62.1447 82.3091 62.905 81.3744 62.905C80.4406 62.905 79.6795 62.1447 79.6795 61.21C79.6795 60.2754 80.4406 59.5151 81.3744 59.5151Z" fill="#00278C"/>
<path d="M77.6441 23.1209C77.6441 24.3724 78.6584 25.3867 79.9099 25.3867C81.1615 25.3867 82.1758 24.3724 82.1758 23.1209C82.1758 21.8693 81.1615 20.855 79.9099 20.855C78.6584 20.855 77.6441 21.8693 77.6441 23.1209Z" fill="#00278C"/>
<path d="M-0.000282288 45.0952C-0.000282288 46.3467 1.01486 47.361 2.26555 47.361C3.51709 47.361 4.53223 46.3467 4.53223 45.0952C4.53223 43.8437 3.51709 42.8293 2.26555 42.8293C1.01486 42.8293 -0.000282288 43.8437 -0.000282288 45.0952Z" fill="#00278C"/>
<path d="M47.6805 26.7833C47.6805 26.7833 51.6153 33.3754 56.4705 33.3754C61.3249 33.3754 65.2598 30.4238 65.2598 26.7833C65.2598 23.1418 61.3249 20.1903 56.4705 20.1903C51.6153 20.1903 47.6805 26.7833 47.6805 26.7833Z" fill="#49FFF4"/>
<path d="M56.4701 34.8407C62.1242 34.8407 66.7246 31.2252 66.7246 26.7833C66.7246 22.3413 62.1242 18.7258 56.4701 18.7258C50.8487 18.7258 46.5995 25.7346 46.4226 26.0322C46.146 26.4941 46.146 27.0716 46.4226 27.5343C46.5995 27.8319 50.8487 34.8407 56.4701 34.8407ZM56.4701 21.6556C60.4401 21.6556 63.7949 24.0036 63.7949 26.7833C63.7949 29.563 60.4401 31.9101 56.4701 31.9101C53.6116 31.9101 50.7657 28.6945 49.4278 26.7833C50.7657 24.872 53.6116 21.6556 56.4701 21.6556Z" fill="#00278C"/>
<path d="M41.8811 32.1683C44.307 31.1288 46.2493 29.4632 47.3457 26.7036C46.0799 24.1008 44.1217 22.4704 41.8811 21.239V32.1683Z" fill="#49FFF4"/>
<path d="M41.8804 33.6344C42.0766 33.6344 42.2727 33.5959 42.4571 33.5154C45.5059 32.2094 47.5496 30.1581 48.7072 27.2452C48.859 26.8629 48.843 26.4337 48.6628 26.0632C47.4096 23.4855 45.4782 21.5441 42.5854 19.9556C42.1302 19.7058 41.5786 19.7158 41.1344 19.9782C40.6884 20.2423 40.4151 20.7209 40.4151 21.239V32.1691C40.4151 32.6612 40.6624 33.1206 41.0732 33.3922C41.3171 33.5531 41.5988 33.6344 41.8804 33.6344ZM45.7213 26.7615C45.1547 27.9401 44.3768 28.8949 43.3457 29.6661V23.965C44.3449 24.7798 45.117 25.6927 45.7213 26.7615Z" fill="#00278C"/>
<path d="M58.3253 26.0506C58.3253 26.6441 58.8065 27.1253 59.3999 27.1253C59.9934 27.1253 60.4746 26.6441 60.4746 26.0506C60.4746 25.4571 59.9934 24.976 59.3999 24.976C58.8065 24.976 58.3253 25.4571 58.3253 26.0506Z" fill="#00278C"/>
<path d="M57.9355 44.3626C57.9355 44.3626 61.8712 50.9555 66.7256 50.9555C71.58 50.9555 75.5156 48.004 75.5156 44.3626C75.5156 40.722 71.58 37.7704 66.7256 37.7704C61.8712 37.7704 57.9355 44.3626 57.9355 44.3626Z" fill="#49FFF4"/>
<path d="M66.726 52.42C72.3801 52.42 76.9805 48.8054 76.9805 44.3626C76.9805 39.9206 72.3801 36.3051 66.726 36.3051C61.1045 36.3051 56.8562 43.3139 56.6785 43.6115C56.4027 44.0742 56.4027 44.6518 56.6785 45.1136C56.8562 45.4112 61.1045 52.42 66.726 52.42ZM66.726 39.2357C70.696 39.2357 74.0507 41.5829 74.0507 44.3626C74.0507 47.1422 70.696 49.4902 66.726 49.4902C63.8675 49.4902 61.0224 46.2738 59.6845 44.3626C61.0224 42.4513 63.8675 39.2357 66.726 39.2357Z" fill="#00278C"/>
<path d="M52.1369 49.7484C54.5637 48.709 56.5059 47.0433 57.6016 44.2838C56.3358 41.6809 54.3784 40.0505 52.1369 38.8191V49.7484Z" fill="#49FFF4"/>
<path d="M52.1343 51.2137C52.3305 51.2137 52.5266 51.176 52.711 51.0955C55.7598 49.7895 57.8043 47.7374 58.9612 44.8253C59.1129 44.443 59.097 44.0138 58.9167 43.6433C57.6635 41.0648 55.733 39.1234 52.8393 37.5357C52.3866 37.2867 51.8342 37.2951 51.3891 37.5583C50.9423 37.8215 50.669 38.301 50.669 38.8182V49.7484C50.669 50.2413 50.9172 50.7007 51.3271 50.9723C51.571 51.1324 51.8527 51.2137 52.1343 51.2137ZM55.9761 44.3407C55.4094 45.5202 54.6307 46.4741 53.5996 47.2453V41.5443C54.5997 42.3599 55.3709 43.2728 55.9761 44.3407Z" fill="#00278C"/>
<path d="M68.5811 43.6299C68.5811 44.2234 69.0623 44.7046 69.6558 44.7046C70.2493 44.7046 70.7305 44.2234 70.7305 43.6299C70.7305 43.0364 70.2493 42.5561 69.6558 42.5561C69.0623 42.5561 68.5811 43.0364 68.5811 43.6299Z" fill="#00278C"/>
<path d="M27.1699 41.4328C27.1699 41.4328 31.1055 48.0249 35.9599 48.0249C40.8143 48.0249 44.75 45.0734 44.75 41.4328C44.75 37.7922 40.8143 34.8407 35.9599 34.8407C31.1055 34.8407 27.1699 41.4328 27.1699 41.4328Z" fill="#49FFF4"/>
<path d="M35.9603 49.4902C41.6144 49.4902 46.2148 45.8748 46.2148 41.4328C46.2148 36.9908 41.6144 33.3754 35.9603 33.3754C30.3389 33.3754 26.0906 40.3841 25.9129 40.6817C25.6363 41.1436 25.6363 41.722 25.9129 42.1839C26.0906 42.4815 30.3389 49.4902 35.9603 49.4902ZM35.9603 36.3051C39.9304 36.3051 43.2851 38.6531 43.2851 41.4328C43.2851 44.2125 39.9304 46.5605 35.9603 46.5605C33.1018 46.5605 30.2559 43.3441 28.9181 41.4328C30.2559 39.5216 33.1018 36.3051 35.9603 36.3051Z" fill="#00278C"/>
<path d="M21.3713 46.8187C23.7981 45.7784 25.7403 44.1127 26.8359 41.354C25.5702 38.7512 23.6128 37.1199 21.3713 35.8893V46.8187Z" fill="#49FFF4"/>
<path d="M21.3707 48.284C21.5668 48.284 21.763 48.2454 21.9474 48.1658C24.9961 46.8598 27.0407 44.8077 28.1975 41.8947C28.3492 41.5133 28.3333 41.0841 28.1531 40.7127C26.8998 38.1351 24.9685 36.1936 22.0756 34.606C21.6213 34.3553 21.0689 34.3654 20.6254 34.6286C20.1786 34.8918 19.9054 35.3705 19.9054 35.8885V46.8187C19.9054 47.3107 20.1535 47.7701 20.5634 48.0417C20.8073 48.2027 21.089 48.284 21.3707 48.284ZM25.2124 41.411C24.6458 42.5905 23.867 43.5444 22.8359 44.3156V38.6146C23.836 39.4302 24.6072 40.3422 25.2124 41.411Z" fill="#00278C"/>
<path d="M37.8155 40.7002C37.8155 41.2937 38.2967 41.7748 38.8902 41.7748C39.4837 41.7748 39.9648 41.2937 39.9648 40.7002C39.9648 40.1067 39.4837 39.6255 38.8902 39.6255C38.2967 39.6255 37.8155 40.1067 37.8155 40.7002Z" fill="#00278C"/>
<path d="M50.6093 61.9427C50.6093 61.9427 54.545 68.5348 59.3994 68.5348C64.2538 68.5348 68.1895 65.5833 68.1895 61.9427C68.1895 58.3021 64.2538 55.3497 59.3994 55.3497C54.545 55.3497 50.6093 61.9427 50.6093 61.9427Z" fill="#49FFF4"/>
<path d="M59.3998 70.0001C65.0539 70.0001 69.6543 66.3846 69.6543 61.9427C69.6543 57.5007 65.0539 53.8853 59.3998 53.8853C53.7784 53.8853 49.53 60.894 49.3523 61.1916C49.0757 61.6535 49.0757 62.2319 49.3523 62.6938C49.53 62.9913 53.7784 70.0001 59.3998 70.0001ZM59.3998 56.815C63.3698 56.815 66.7246 59.163 66.7246 61.9427C66.7246 64.7224 63.3698 67.0695 59.3998 67.0695C56.5413 67.0695 53.6962 63.8539 52.3583 61.9427C53.6962 60.0314 56.5413 56.815 59.3998 56.815Z" fill="#00278C"/>
<path d="M44.8107 67.3285C47.2375 66.2883 49.1798 64.6226 50.2754 61.863C49.0096 59.2602 47.0523 57.6298 44.8107 56.3984V67.3285Z" fill="#49FFF4"/>
<path d="M44.8101 68.7938C45.0063 68.7938 45.2024 68.7553 45.3868 68.6748C48.4356 67.3688 50.4801 65.3175 51.6369 62.4046C51.7887 62.0223 51.7727 61.5931 51.5925 61.2226C50.3393 58.6449 48.4079 56.7035 45.5151 55.115C45.0616 54.866 44.5083 54.8752 44.0649 55.1385C43.6181 55.4017 43.3448 55.8803 43.3448 56.3984V67.3285C43.3448 67.8206 43.5929 68.28 44.0028 68.5516C44.2468 68.7125 44.5284 68.7938 44.8101 68.7938ZM48.6519 61.9209C48.0852 63.0995 47.3065 64.0543 46.2754 64.8255V59.1244C47.2754 59.9392 48.0466 60.8521 48.6519 61.9209Z" fill="#00278C"/>
<path d="M61.255 61.21C61.255 61.8035 61.7361 62.2847 62.3296 62.2847C62.9231 62.2847 63.4043 61.8035 63.4043 61.21C63.4043 60.6165 62.9231 60.1354 62.3296 60.1354C61.7361 60.1354 61.255 60.6165 61.255 61.21Z" fill="#00278C"/>
<path d="M19.8456 57.5476C19.8456 57.5476 23.7813 64.1398 28.6357 64.1398C33.4901 64.1398 37.4258 61.1882 37.4258 57.5476C37.4258 53.9071 33.4901 50.9555 28.6357 50.9555C23.7813 50.9555 19.8456 57.5476 19.8456 57.5476Z" fill="#49FFF4"/>
<path d="M28.6361 65.605C34.2902 65.605 38.8906 61.9896 38.8906 57.5476C38.8906 53.1057 34.2902 49.4902 28.6361 49.4902C23.0147 49.4902 18.7663 56.499 18.5886 56.7965C18.312 57.2584 18.312 57.8368 18.5886 58.2987C18.7663 58.5963 23.0147 65.605 28.6361 65.605ZM28.6361 52.42C32.6061 52.42 35.9609 54.7679 35.9609 57.5476C35.9609 60.3273 32.6061 62.6753 28.6361 62.6753C25.7776 62.6753 22.9317 59.4589 21.5938 57.5476C22.9317 55.6364 25.7776 52.42 28.6361 52.42Z" fill="#00278C"/>
<path d="M14.0471 62.9335C16.4738 61.8932 18.4153 60.2276 19.5117 57.4688C18.2459 54.8652 16.2877 53.2348 14.0471 52.0033V62.9335Z" fill="#49FFF4"/>
<path d="M14.0445 64.3988C14.2406 64.3988 14.4368 64.3602 14.6212 64.2806C17.67 62.9746 19.7137 60.9225 20.8713 58.0095C21.023 57.6281 21.0071 57.1989 20.8269 56.8276C19.5737 54.2499 17.6423 52.3085 14.7495 50.7208C14.2951 50.471 13.7427 50.4802 13.2992 50.7434C12.8525 51.0066 12.5792 51.4853 12.5792 52.0033V62.9335C12.5792 63.4256 12.8265 63.8849 13.2372 64.1565C13.4812 64.3175 13.7628 64.3988 14.0445 64.3988ZM17.8854 57.5258C17.3196 58.7053 16.5408 59.6592 15.5098 60.4304V54.7294C16.5098 55.5442 17.281 56.457 17.8854 57.5258Z" fill="#00278C"/>
<path d="M30.4913 56.815C30.4913 57.4085 30.9725 57.8896 31.566 57.8896C32.1595 57.8896 32.6406 57.4085 32.6406 56.815C32.6406 56.2215 32.1595 55.7403 31.566 55.7403C30.9725 55.7403 30.4913 56.2215 30.4913 56.815Z" fill="#00278C"/>
<path d="M66.9604 14.4113C67.9923 14.4113 69.0284 14.2218 70.0184 13.8413L79.329 10.2636C80.0843 9.97267 80.4623 9.12602 80.1714 8.37075C79.8814 7.61463 79.0356 7.23909 78.2786 7.52745L68.968 11.106C67.4097 11.707 65.6828 11.5813 64.2268 10.7581L62.4371 9.74969C59.6188 8.16034 56.2029 8.29446 53.5213 10.0934C51.8045 11.2435 49.6099 11.3533 47.7892 10.3834L46.0448 9.45211C43.4252 8.05304 40.327 8.11172 37.7585 9.60551L36.0317 10.6114C34.5111 11.4983 32.6392 11.6098 31.0188 10.914L26.5081 8.97178C24.0135 7.89545 21.1281 8.08322 18.7952 9.47055L17.1497 10.4496C15.5176 11.4195 13.5259 11.4966 11.8251 10.6508L5.62608 7.58194C4.90098 7.22316 4.02415 7.52074 3.6637 8.24584C3.30492 8.97011 3.60166 9.84945 4.32676 10.2091L10.5249 13.2771C13.1202 14.5655 16.1589 14.4473 18.6469 12.967L20.2915 11.9879C21.8256 11.08 23.715 10.9551 25.3488 11.6601L29.8595 13.6032C32.3232 14.6645 35.185 14.4951 37.5079 13.143L39.2339 12.1371C40.9163 11.1555 42.9491 11.1186 44.6658 12.0373L46.4094 12.967C49.1849 14.4524 52.5371 14.2814 55.1525 12.526C56.9162 11.3458 59.1536 11.2628 60.9978 12.3014L62.7875 13.3107C64.0809 14.0399 65.5177 14.4113 66.9604 14.4113Z" fill="#00278C"/>
<path d="M67.0438 78.625C68.5468 78.625 70.0465 78.2235 71.3869 77.4263L73.0324 76.448C74.5647 75.5385 76.4559 75.417 78.0897 76.1203L82.6004 78.0633C83.3473 78.3836 84.2073 78.039 84.5242 77.298C84.8452 76.5553 84.5016 75.6927 83.7589 75.3734L79.2481 73.4303C76.7543 72.3548 73.8681 72.5417 71.5353 73.9299L69.8906 74.9081C68.2593 75.8797 66.2668 75.9568 64.5659 75.1101C63.8358 74.7514 62.9623 75.0481 62.6019 75.7724C62.2422 76.4975 62.5398 77.3776 63.2641 77.7364C64.4628 78.3308 65.7562 78.625 67.0438 78.625Z" fill="#00278C"/>
<path d="M19.6522 27.1563C21.3086 27.1563 22.9583 26.6718 24.3893 25.712C26.1513 24.5317 28.3895 24.4487 30.2345 25.4873C30.942 25.888 31.8331 25.6348 32.2304 24.9307C32.6286 24.2249 32.3788 23.333 31.6738 22.9348C28.8581 21.3471 25.443 21.4787 22.758 23.2785C21.0412 24.4303 18.8466 24.5384 17.0251 23.5685L15.2815 22.6372C12.6619 21.2381 9.56199 21.2968 6.99522 22.7906L5.26839 23.7965C4.57011 24.2039 4.33372 25.1009 4.74028 25.8008C5.14851 26.4991 6.04295 26.7363 6.74541 26.3289L8.47057 25.323C10.153 24.3414 12.1841 24.3045 13.9025 25.2233L15.647 26.1529C16.9035 26.8243 18.28 27.1563 19.6522 27.1563Z" fill="#00278C"/>
<path d="M16.7229 78.4305C18.3793 78.4305 20.029 77.946 21.4599 76.9862C23.222 75.8059 25.4601 75.7229 27.3052 76.7615C28.011 77.1622 28.9046 76.9099 29.3011 76.2049C29.6984 75.4991 29.4495 74.6072 28.7445 74.209C25.9279 72.6197 22.512 72.753 19.8287 74.5527C18.1111 75.7028 15.9173 75.8126 14.0958 74.8428L12.3522 73.9114C9.73258 72.5115 6.63351 72.5711 4.0659 74.0648L2.33907 75.0708C1.64079 75.4782 1.4044 76.3751 1.81096 77.0751C2.22003 77.7733 3.11279 78.0089 3.81526 77.6023L5.54125 76.5972C7.22365 75.6173 9.25477 75.5796 10.9732 76.4967L12.7168 77.4271C13.9742 78.0986 15.3506 78.4305 16.7229 78.4305Z" fill="#00278C"/>
</g>
<defs>
<clipPath id="clip0">
<rect width="86" height="86" fill="white" transform="matrix(-1 0 0 1 86 0)"/>
</clipPath>
</defs>
</svg>
