<svg width="100" height="100" viewBox="0 0 100 100" fill="none" xmlns="http://www.w3.org/2000/svg">
<path d="M81.1652 27.0922H19.8347C14.4074 27.0922 9.98926 31.5103 9.98926 36.9377V69.4195C9.98926 74.8468 14.4074 79.265 19.8347 79.265H81.1652C86.5926 79.265 91.0107 74.8468 91.0107 69.4195V36.9451C91.0107 31.5103 86.6001 27.0922 81.1652 27.0922ZM56.2488 72.2677C45.723 72.2677 37.1634 63.7081 37.1634 53.1823C37.1634 42.6566 45.723 34.0969 56.2488 34.0969C66.7746 34.0969 75.3342 42.6566 75.3342 53.1823C75.3417 63.7081 66.7746 72.2677 56.2488 72.2677Z" fill="#9B51E0"/>
<path d="M56.2481 44.3087C51.3516 44.3087 47.3745 48.2932 47.3745 53.1823C47.3745 58.0789 51.3591 62.0559 56.2481 62.0559C61.1447 62.0559 65.1218 58.0714 65.1218 53.1823C65.1293 48.2857 61.1447 44.3087 56.2481 44.3087Z" fill="#777777"/>
<path d="M63.6725 19.9753H48.8333L44.1909 24.1168H68.3298L63.6725 19.9753ZM21.3228 24.1168H28.3574V22.7563H21.3228V24.1168ZM56.2491 37.0722C47.368 37.0722 40.139 44.3012 40.139 53.1823C40.139 62.0634 47.368 69.2924 56.2491 69.2924C65.1303 69.2924 72.3592 62.0634 72.3592 53.1823C72.3592 44.3012 65.1377 37.0722 56.2491 37.0722ZM56.2491 65.0387C49.7154 65.0387 44.3927 59.7235 44.3927 53.1823C44.3927 46.6486 49.7079 41.3259 56.2491 41.3259C62.7829 41.3259 68.1056 46.6411 68.1056 53.1823C68.1056 59.716 62.7904 65.0387 56.2491 65.0387Z" fill="#383842"/>
<path d="M56.2485 41.3259C49.7148 41.3259 44.3921 46.6411 44.3921 53.1823C44.3921 59.7161 49.7073 65.0387 56.2485 65.0387C62.7823 65.0387 68.105 59.7235 68.105 53.1823C68.105 46.6486 62.7897 41.3259 56.2485 41.3259ZM56.2485 62.0559C51.352 62.0559 47.3749 58.0714 47.3749 53.1823C47.3749 48.2857 51.3594 44.3087 56.2485 44.3087C61.1451 44.3087 65.1222 48.2932 65.1222 53.1823C65.1296 58.0789 61.1451 62.0559 56.2485 62.0559ZM56.2485 34.0969C45.7228 34.0969 37.1631 42.6565 37.1631 53.1823C37.1631 63.7081 45.7228 72.2677 56.2485 72.2677C66.7743 72.2677 75.3339 63.7081 75.3339 53.1823C75.3414 42.6565 66.7743 34.0969 56.2485 34.0969ZM56.2485 69.2924C47.3674 69.2924 40.1384 62.0634 40.1384 53.1823C40.1384 44.3012 47.3674 37.0722 56.2485 37.0722C65.1296 37.0722 72.3586 44.3012 72.3586 53.1823C72.3586 62.0634 65.1371 69.2924 56.2485 69.2924ZM81.165 24.1169H72.7997L65.2343 17.3738C64.9652 17.1346 64.6063 17 64.24 17H48.2645C47.8982 17 47.5468 17.1346 47.2702 17.3738L39.7048 24.1169H31.3321V21.2686C31.3321 20.4463 30.6667 19.781 29.8444 19.781H19.8345C19.0121 19.781 18.3468 20.4463 18.3468 21.2686V24.2066C11.9775 24.9467 7.01367 30.374 7.01367 36.9451V69.427C7.01367 76.499 12.7699 82.2552 19.8419 82.2552H81.1725C88.2444 82.2552 94.0007 76.499 94.0007 69.427V36.9451C93.9933 29.8731 88.237 24.1169 81.165 24.1169ZM48.8326 19.9753H63.6794L68.3218 24.1169H44.1828L48.8326 19.9753ZM21.3221 22.7563H28.3568V24.1169H21.3221V22.7563ZM91.0105 69.4195C91.0105 74.8468 86.5923 79.265 81.165 79.265H19.8345C14.4071 79.265 9.98899 74.8468 9.98899 69.4195V36.9451C9.98899 31.5178 14.4071 27.0996 19.8345 27.0996H81.165C86.5923 27.0996 91.0105 31.5178 91.0105 36.9451V69.4195Z" fill="black"/>
</svg>
