<svg width="38" height="52" viewBox="0 0 38 52" fill="none" xmlns="http://www.w3.org/2000/svg">
<path d="M7.15169 36.488H10.0637C11.3117 36.488 12.2717 36.728 12.9437 37.208C13.6264 37.6773 13.9677 38.456 13.9677 39.544C13.9677 40.6 13.6264 41.4 12.9437 41.944C12.261 42.4773 11.3224 42.744 10.1277 42.744H8.33569V47H7.15169V36.488ZM9.95169 41.768C10.9224 41.768 11.637 41.592 12.0957 41.24C12.5544 40.8773 12.7837 40.312 12.7837 39.544C12.7837 38.776 12.549 38.2373 12.0797 37.928C11.6104 37.608 10.8797 37.448 9.88769 37.448H8.33569V41.768H9.95169ZM16.1361 36.488H18.7121C20.3121 36.488 21.5281 36.9413 22.3601 37.848C23.2027 38.7547 23.6241 40.04 23.6241 41.704C23.6241 43.368 23.2027 44.6693 22.3601 45.608C21.5281 46.536 20.3281 47 18.7601 47H16.1361V36.488ZM18.6161 46.024C19.8747 46.024 20.8187 45.6507 21.4481 44.904C22.0881 44.1467 22.4081 43.08 22.4081 41.704C22.4081 40.3493 22.0881 39.304 21.4481 38.568C20.8187 37.832 19.8747 37.464 18.6161 37.464H17.3201V46.024H18.6161ZM25.9486 36.488H31.9166V37.496H27.1326V41.208H31.1806V42.2H27.1326V47H25.9486V36.488Z" fill="#AD8400"/>
<g clip-path="url(#clip0)">
<path d="M33.748 21.9749C32.6803 20.0468 28.0043 18.8188 23.8754 18.5859C23.5022 18.1864 23.1234 17.7662 22.7351 17.3244C19.1866 13.2672 17.7497 7.37121 17.213 4.24777C17.1492 3.58592 17.0791 3.03571 17.0201 2.62585C16.9722 2.29971 16.8717 1.61952 16.1645 1.61952C15.938 1.61952 15.7195 1.71681 15.564 1.88984C15.312 2.17771 15.3495 2.4871 15.3942 2.84434C15.4444 3.2542 15.5201 3.80282 15.6278 4.42878C15.93 7.60006 16.0728 13.638 13.6319 18.4344C13.3775 18.9344 13.1239 19.4144 12.872 19.8721C8.30442 21.2006 4.61881 23.5697 4.07897 25.5345C3.88361 26.2458 4.05345 26.9276 4.55821 27.4555C5.1459 28.0695 5.83964 28.3805 6.6203 28.3805C8.78127 28.3805 11.2445 25.9739 13.9413 21.2301C15.1422 20.9143 16.3343 20.6943 17.4866 20.5778C17.9355 20.5324 18.6619 20.4375 19.1085 20.3689C20.3389 20.1791 21.7311 20.1026 23.1617 20.1496C26.4725 23.5912 29.1797 25.336 31.2083 25.336C32.2976 25.3352 33.1994 24.8041 33.7465 23.8408C34.083 23.2444 34.0846 22.5809 33.748 21.9749ZM6.6195 26.7856C6.2814 26.7856 5.99274 26.6485 5.70966 26.3527C5.59404 26.2322 5.56852 26.1286 5.61637 25.9579C5.89466 24.946 8.23266 23.2117 11.6495 21.9526C9.71902 24.9987 7.87143 26.7856 6.6195 26.7856ZM18.8637 18.7948C18.4394 18.8602 17.7505 18.9495 17.3247 18.9942C16.5504 19.0707 15.7546 19.1927 14.9516 19.357C14.9851 19.2916 15.0186 19.2254 15.0521 19.1593C16.249 16.8077 16.9906 13.9881 17.2649 10.7562C18.3629 13.8294 19.795 16.3859 21.5342 18.3746C21.5852 18.4336 21.6386 18.4934 21.6897 18.554C20.6857 18.5779 19.7384 18.6601 18.8637 18.7948ZM32.3558 23.0578C32.091 23.5266 31.7147 23.7443 31.1748 23.7443H31.174C29.9061 23.7443 27.9565 22.5442 25.6225 20.3434C29.2347 20.7971 31.8797 21.8904 32.3542 22.7476C32.4228 22.872 32.4228 22.9382 32.3558 23.0578Z" fill="#AD8400"/>
</g>
<defs>
<clipPath id="clip0">
<rect width="30" height="30" fill="white" transform="translate(4)"/>
</clipPath>
</defs>
</svg>
