<svg width="38" height="52" viewBox="0 0 38 52" fill="none" xmlns="http://www.w3.org/2000/svg">
<path d="M3.33631 36.488H4.60031L6.36031 42.28C6.53098 42.888 6.65365 43.304 6.72831 43.528C6.90965 44.2107 7.12831 44.9573 7.38431 45.768H7.44831C7.56565 45.416 7.81098 44.6053 8.18431 43.336L8.48831 42.28L10.2483 36.488H11.4483L8.08831 47H6.72831L3.33631 36.488ZM12.8209 39.24H13.9729V47H12.8209V39.24ZM13.4129 37.576C13.1783 37.576 12.9863 37.5013 12.8369 37.352C12.6876 37.2027 12.6129 37.0053 12.6129 36.76C12.6129 36.5253 12.6876 36.3387 12.8369 36.2C12.9863 36.0507 13.1783 35.976 13.4129 35.976C13.6476 35.976 13.8396 36.0507 13.9889 36.2C14.1383 36.3387 14.2129 36.5253 14.2129 36.76C14.2129 37.0053 14.1383 37.2027 13.9889 37.352C13.8396 37.5013 13.6476 37.576 13.4129 37.576ZM22.6159 42.68C22.6159 42.9573 22.5999 43.192 22.5679 43.384H17.2079C17.2613 44.2907 17.5386 44.9947 18.0399 45.496C18.5519 45.9973 19.1759 46.248 19.9119 46.248C20.5946 46.248 21.2506 46.04 21.8799 45.624L22.3119 46.392C21.9279 46.6373 21.5333 46.8347 21.1279 46.984C20.7226 47.1227 20.2693 47.192 19.7679 47.192C19.0853 47.192 18.4613 47.032 17.8959 46.712C17.3413 46.3813 16.8986 45.9067 16.5679 45.288C16.2479 44.6693 16.0879 43.9493 16.0879 43.128C16.0879 42.3173 16.2479 41.6027 16.5679 40.984C16.8986 40.3653 17.3306 39.8907 17.8639 39.56C18.3973 39.2187 18.9626 39.048 19.5599 39.048C20.5199 39.048 21.2666 39.3733 21.7999 40.024C22.3439 40.664 22.6159 41.5493 22.6159 42.68ZM21.5759 42.536C21.5759 41.7147 21.3999 41.0853 21.0479 40.648C20.6959 40.2107 20.2053 39.992 19.5759 39.992C18.9999 39.992 18.4879 40.2107 18.0399 40.648C17.5919 41.0853 17.3253 41.7147 17.2399 42.536H21.5759ZM23.7043 39.24H24.9043L26.1203 43.864L26.2643 44.552C26.4136 45.192 26.5203 45.6773 26.5843 46.008H26.6483C26.851 45.176 27.0323 44.4613 27.1923 43.864L28.4403 39.24H29.6083L30.8723 43.864L31.4163 46.008H31.4803L31.9923 43.864L33.1763 39.24H34.2963L32.1843 47H30.7443L29.5603 42.664L29.2563 41.4C29.235 41.3147 29.1603 40.9947 29.0323 40.44H28.9683C28.7336 41.496 28.547 42.248 28.4083 42.696L27.2563 47H25.8963L23.7043 39.24Z" fill="#AD8400"/>
<g clip-path="url(#clip0)">
<path d="M15.8988 15.1717C15.6703 14.9426 15.2988 14.9426 15.0703 15.1717C14.8412 15.4002 14.8412 15.7717 15.0703 16.0002C15.2988 16.2293 15.6703 16.2293 15.8988 16.0002C16.1279 15.7717 16.1279 15.4002 15.8988 15.1717Z" fill="#AD8400"/>
<path d="M19 16.1719C18.0307 16.1719 17.2422 16.9604 17.2422 17.9297C17.2422 18.8989 18.0307 19.6875 19 19.6875C19.9693 19.6875 20.7578 18.8989 20.7578 17.9297C20.7578 16.9604 19.9693 16.1719 19 16.1719ZM19 18.5156C18.6769 18.5156 18.4141 18.2528 18.4141 17.9297C18.4141 17.6066 18.6769 17.3438 19 17.3438C19.3231 17.3438 19.5859 17.6066 19.5859 17.9297C19.5859 18.2528 19.3231 18.5156 19 18.5156Z" fill="#AD8400"/>
<path d="M19 13.2422C18.345 13.2422 17.7117 13.3746 17.1177 13.6356C16.8215 13.7659 16.6869 14.1116 16.8171 14.4079C16.9473 14.7041 17.293 14.8386 17.5893 14.7085C18.0337 14.5131 18.5084 14.4141 19 14.4141C20.9385 14.4141 22.5156 15.9912 22.5156 17.9297C22.5156 19.8682 20.9385 21.4453 19 21.4453C17.0615 21.4453 15.4844 19.8682 15.4844 17.9297C15.4844 17.9096 15.4843 17.8901 15.4848 17.87C15.4923 17.5465 15.2361 17.2782 14.9126 17.2707C14.5886 17.2626 14.3208 17.5193 14.3133 17.8429C14.3126 17.872 14.3125 17.9005 14.3125 17.9297C14.3125 20.5144 16.4153 22.6172 19 22.6172C21.5847 22.6172 23.6875 20.5144 23.6875 17.9297C23.6875 15.345 21.5847 13.2422 19 13.2422Z" fill="#AD8400"/>
<path d="M19 4.45312C18.6764 4.45312 18.4141 4.71545 18.4141 5.03906V8.55469C18.4141 8.8783 18.6764 9.14062 19 9.14062C19.3236 9.14062 19.5859 8.8783 19.5859 8.55469V5.03906C19.5859 4.71545 19.3236 4.45312 19 4.45312Z" fill="#AD8400"/>
<path d="M12.4546 8.79716L9.96905 6.31162C9.74024 6.08281 9.36922 6.08281 9.14036 6.31162C8.91155 6.54043 8.91155 6.91144 9.14036 7.14031L11.6259 9.62585C11.8547 9.85466 12.2258 9.85472 12.4546 9.62585C12.6834 9.39705 12.6834 9.02603 12.4546 8.79716Z" fill="#AD8400"/>
<path d="M28.8608 6.31162C28.632 6.08281 28.261 6.08281 28.0321 6.31162L25.5466 8.79716C25.3178 9.02597 25.3178 9.39699 25.5466 9.62585C25.7754 9.85466 26.1464 9.85472 26.3753 9.62585L28.8608 7.14031C29.0896 6.9115 29.0896 6.54049 28.8608 6.31162Z" fill="#AD8400"/>
<path d="M33.8532 18.0299C30.131 13.8159 24.6043 10.3125 19 10.3125C13.395 10.3125 7.86824 13.8168 4.14677 18.0299C3.93255 18.2725 3.95552 18.6427 4.19804 18.8569C4.44062 19.0712 4.81093 19.0482 5.02509 18.8057C5.14996 18.6643 5.27787 18.5234 5.40742 18.3834C8.30283 22.7583 13.5515 25.5469 19 25.5469C24.4485 25.5469 29.6972 22.7583 32.5926 18.3834C32.7221 18.5235 32.85 18.6643 32.9749 18.8057C33.1884 19.0474 33.5587 19.0718 33.8019 18.8569C34.0445 18.6427 34.0674 18.2724 33.8532 18.0299ZM19 24.375C13.8487 24.375 8.89427 21.6985 6.24478 17.5207C8.33236 15.4751 13.1559 11.4844 19 11.4844C24.8441 11.4844 29.6676 15.4751 31.7552 17.5206C29.1057 21.6985 24.1513 24.375 19 24.375Z" fill="#AD8400"/>
</g>
<defs>
<clipPath id="clip0">
<rect width="30" height="30" fill="white" transform="translate(4)"/>
</clipPath>
</defs>
</svg>
